G04 #@! TF.GenerationSoftware,KiCad,Pcbnew,9.0.0*
G04 #@! TF.CreationDate,2025-03-01T00:43:59+09:00*
G04 #@! TF.ProjectId,tijuana_lp,74696a75-616e-4615-9f6c-702e6b696361,rev?*
G04 #@! TF.SameCoordinates,Original*
G04 #@! TF.FileFunction,Profile,NP*
%FSLAX46Y46*%
G04 Gerber Fmt 4.6, Leading zero omitted, Abs format (unit mm)*
G04 Created by KiCad (PCBNEW 9.0.0) date 2025-03-01 00:43:59*
%MOMM*%
%LPD*%
G01*
G04 APERTURE LIST*
G04 #@! TA.AperFunction,Profile*
%ADD10C,0.100000*%
G04 #@! TD*
G04 #@! TA.AperFunction,Profile*
%ADD11C,0.120000*%
G04 #@! TD*
G04 APERTURE END LIST*
D10*
X324227767Y-114949965D02*
G75*
G02*
X323127767Y-116049967I-1099967J-35D01*
G01*
X17566883Y-109301339D02*
X15374830Y-109301321D01*
X19766883Y-116050000D02*
G75*
G02*
X18666900Y-114950000I17J1100000D01*
G01*
X324232760Y-18350023D02*
X324232761Y-22898702D01*
X323127876Y-17250034D02*
X19776043Y-17251321D01*
X17566872Y-69163299D02*
X15374819Y-69163317D01*
X18666884Y-18351321D02*
X18666883Y-22900000D01*
X14275000Y-25099830D02*
X14274994Y-62994280D01*
X17566883Y-23999982D02*
X15374830Y-24000000D01*
X17566874Y-64094107D02*
G75*
G02*
X18666893Y-65194107I26J-1099993D01*
G01*
X324227766Y-114949965D02*
X324227767Y-110401286D01*
X325332761Y-23998684D02*
X327524814Y-23998702D01*
X328622350Y-70297198D02*
X328619670Y-108201457D01*
X19766900Y-116050000D02*
X323127800Y-116049965D01*
X328619650Y-108201457D02*
G75*
G02*
X327519821Y-109301350I-1099850J-43D01*
G01*
X325330465Y-64128177D02*
X327522518Y-64128159D01*
X17566883Y-109301321D02*
G75*
G02*
X18666879Y-110401321I17J-1099979D01*
G01*
X15374829Y-109301321D02*
G75*
G02*
X14274979Y-108201492I-29J1099821D01*
G01*
X18666883Y-22900000D02*
G75*
G02*
X17566883Y-23999983I-1099983J0D01*
G01*
X325330467Y-69197351D02*
X327522520Y-69197369D01*
X327524815Y-23998702D02*
G75*
G02*
X328624598Y-25098531I-15J-1099798D01*
G01*
X18666883Y-18351321D02*
G75*
G02*
X19766883Y-17251283I1100017J21D01*
G01*
X324227767Y-110401286D02*
G75*
G02*
X325327767Y-109301267I1100033J-14D01*
G01*
X325327767Y-109301304D02*
X327519820Y-109301286D01*
X14275000Y-25099829D02*
G75*
G02*
X15374829Y-24000000I1099830J-1D01*
G01*
X324230465Y-65228159D02*
G75*
G02*
X325330465Y-64128165I1100035J-41D01*
G01*
X325330467Y-69197369D02*
G75*
G02*
X324230531Y-68097369I33J1099969D01*
G01*
X14274980Y-108201492D02*
X14274989Y-70263146D01*
X18666892Y-65194107D02*
X18666872Y-68063310D01*
X18666872Y-68063317D02*
G75*
G02*
X17566872Y-69163272I-1099972J17D01*
G01*
X14274989Y-70263146D02*
G75*
G02*
X15374818Y-69163309I1099831J6D01*
G01*
X327522521Y-69197369D02*
G75*
G02*
X328622331Y-70297198I-21J-1099831D01*
G01*
X18666884Y-114950000D02*
X18666883Y-110401321D01*
X323132761Y-17250023D02*
G75*
G02*
X324232777Y-18350023I39J-1099977D01*
G01*
X17566874Y-64094125D02*
X15374821Y-64094107D01*
X324230447Y-65228159D02*
X324230467Y-68097362D01*
X15374820Y-64094107D02*
G75*
G02*
X14274993Y-62994278I-20J1099807D01*
G01*
X328624597Y-25098529D02*
X328622348Y-63028300D01*
X328622348Y-63028330D02*
G75*
G02*
X327522519Y-64128148I-1099848J30D01*
G01*
X325332761Y-23998702D02*
G75*
G02*
X324232798Y-22898702I39J1100002D01*
G01*
D11*
X24607300Y-46303900D02*
X28107300Y-46303900D01*
X24607300Y-49503900D02*
X24607300Y-46303900D01*
X28107300Y-46303900D02*
X28107300Y-49503900D01*
X28107300Y-49503900D02*
X24607300Y-49503900D01*
X227244641Y-74603490D02*
X230725468Y-74237640D01*
X227579132Y-77785960D02*
X227244641Y-74603490D01*
X230725468Y-74237640D02*
X231059959Y-77420110D01*
X231059959Y-77420110D02*
X227579132Y-77785960D01*
X57859953Y-97976171D02*
X61351427Y-97732024D01*
X58083173Y-101168376D02*
X57859953Y-97976171D01*
X61351427Y-97732024D02*
X61574647Y-100924229D01*
X61574647Y-100924229D02*
X58083173Y-101168376D01*
X169664000Y-42682300D02*
X173164000Y-42682300D01*
X169664000Y-45882300D02*
X169664000Y-42682300D01*
X173164000Y-42682300D02*
X173164000Y-45882300D01*
X173164000Y-45882300D02*
X169664000Y-45882300D01*
X150613200Y-61730400D02*
X154113200Y-61730400D01*
X150613200Y-64930400D02*
X150613200Y-61730400D01*
X154113200Y-61730400D02*
X154113200Y-64930400D01*
X154113200Y-64930400D02*
X150613200Y-64930400D01*
X238876241Y-33471290D02*
X242357068Y-33105440D01*
X239210732Y-36653760D02*
X238876241Y-33471290D01*
X242357068Y-33105440D02*
X242691559Y-36287910D01*
X242691559Y-36287910D02*
X239210732Y-36653760D01*
X81226050Y-33674941D02*
X81726641Y-30514338D01*
X81726641Y-30514338D02*
X85183550Y-31061859D01*
X84682959Y-34222462D02*
X81226050Y-33674941D01*
X85183550Y-31061859D02*
X84682959Y-34222462D01*
X317361200Y-26105600D02*
X320861200Y-26105600D01*
X317361200Y-29305600D02*
X317361200Y-26105600D01*
X320861200Y-26105600D02*
X320861200Y-29305600D01*
X320861200Y-29305600D02*
X317361200Y-29305600D01*
X277620941Y-28372290D02*
X281101768Y-28006440D01*
X277955432Y-31554760D02*
X277620941Y-28372290D01*
X281101768Y-28006440D02*
X281436259Y-31188910D01*
X281436259Y-31188910D02*
X277955432Y-31554760D01*
X285826861Y-67849481D02*
X289322064Y-67666305D01*
X285994336Y-71045095D02*
X285826861Y-67849481D01*
X289322064Y-67666305D02*
X289489539Y-70861919D01*
X289489539Y-70861919D02*
X285994336Y-71045095D01*
X111886523Y-77345610D02*
X112221014Y-74163140D01*
X112221014Y-74163140D02*
X115701841Y-74528990D01*
X115367350Y-77711460D02*
X111886523Y-77345610D01*
X115701841Y-74528990D02*
X115367350Y-77711460D01*
X124424461Y-58098219D02*
X124591936Y-54902605D01*
X124591936Y-54902605D02*
X128087139Y-55085781D01*
X127919664Y-58281395D02*
X124424461Y-58098219D01*
X128087139Y-55085781D02*
X127919664Y-58281395D01*
X131124561Y-79036019D02*
X131292036Y-75840405D01*
X131292036Y-75840405D02*
X134787239Y-76023581D01*
X134619764Y-79219195D02*
X131124561Y-79036019D01*
X134787239Y-76023581D02*
X134619764Y-79219195D01*
X84577955Y-96631779D02*
X88075823Y-96509631D01*
X84689633Y-99829829D02*
X84577955Y-96631779D01*
X88075823Y-96509631D02*
X88187501Y-99707681D01*
X88187501Y-99707681D02*
X84689633Y-99829829D01*
X61637841Y-31189410D02*
X61972332Y-28006940D01*
X61972332Y-28006940D02*
X65453159Y-28372790D01*
X65118668Y-31555260D02*
X61637841Y-31189410D01*
X65453159Y-28372790D02*
X65118668Y-31555260D01*
X188702790Y-80799528D02*
X192202790Y-80799528D01*
X188702790Y-83999528D02*
X188702790Y-80799528D01*
X192202790Y-80799528D02*
X192202790Y-83999528D01*
X192202790Y-83999528D02*
X188702790Y-83999528D01*
X169659300Y-80777900D02*
X173159300Y-80777900D01*
X169659300Y-83977900D02*
X169659300Y-80777900D01*
X173159300Y-80777900D02*
X173159300Y-83977900D01*
X173159300Y-83977900D02*
X169659300Y-83977900D01*
X169661700Y-61739000D02*
X173161700Y-61739000D01*
X169661700Y-64939000D02*
X169661700Y-61739000D01*
X173161700Y-61739000D02*
X173161700Y-64939000D01*
X173161700Y-64939000D02*
X169661700Y-64939000D01*
X41955461Y-29738119D02*
X42122936Y-26542505D01*
X42122936Y-26542505D02*
X45618139Y-26725681D01*
X45450664Y-29921295D02*
X41955461Y-29738119D01*
X45618139Y-26725681D02*
X45450664Y-29921295D01*
X73124241Y-72322710D02*
X73458732Y-69140240D01*
X73458732Y-69140240D02*
X76939559Y-69506090D01*
X76605068Y-72688560D02*
X73124241Y-72322710D01*
X76939559Y-69506090D02*
X76605068Y-72688560D01*
X281336653Y-100924428D02*
X281559873Y-97732224D01*
X281559873Y-97732224D02*
X285051347Y-97976372D01*
X284828127Y-101168576D02*
X281336653Y-100924428D01*
X285051347Y-97976372D02*
X284828127Y-101168576D01*
X113758100Y-95981100D02*
X117258100Y-95981100D01*
X113758100Y-99181100D02*
X113758100Y-95981100D01*
X117258100Y-95981100D02*
X117258100Y-99181100D01*
X117258100Y-99181100D02*
X113758100Y-99181100D01*
X225675800Y-95977500D02*
X229175800Y-95977500D01*
X225675800Y-99177500D02*
X225675800Y-95977500D01*
X229175800Y-95977500D02*
X229175800Y-99177500D01*
X229175800Y-99177500D02*
X225675800Y-99177500D01*
X314982200Y-46304900D02*
X318482200Y-46304900D01*
X314982200Y-49504900D02*
X314982200Y-46304900D01*
X318482200Y-46304900D02*
X318482200Y-49504900D01*
X318482200Y-49504900D02*
X314982200Y-49504900D01*
X246260950Y-72193059D02*
X249717859Y-71645538D01*
X246761541Y-75353662D02*
X246260950Y-72193059D01*
X249717859Y-71645538D02*
X250218450Y-74806141D01*
X250218450Y-74806141D02*
X246761541Y-75353662D01*
X188712500Y-61729400D02*
X192212500Y-61729400D01*
X188712500Y-64929400D02*
X188712500Y-61729400D01*
X192212500Y-61729400D02*
X192212500Y-64929400D01*
X192212500Y-64929400D02*
X188712500Y-64929400D01*
X234076740Y-53644522D02*
X237557567Y-53278672D01*
X234411231Y-56826992D02*
X234076740Y-53644522D01*
X237557567Y-53278672D02*
X237892058Y-56461142D01*
X237892058Y-56461142D02*
X234411231Y-56826992D01*
X253129850Y-51254959D02*
X256586759Y-50707438D01*
X253630441Y-54415562D02*
X253129850Y-51254959D01*
X256586759Y-50707438D02*
X257087350Y-53868041D01*
X257087350Y-53868041D02*
X253630441Y-54415562D01*
X257885850Y-31069259D02*
X261342759Y-30521738D01*
X258386441Y-34229862D02*
X257885850Y-31069259D01*
X261342759Y-30521738D02*
X261843350Y-33682341D01*
X261843350Y-33682341D02*
X258386441Y-34229862D01*
X22224500Y-26112000D02*
X25724500Y-26112000D01*
X22224500Y-29312000D02*
X22224500Y-26112000D01*
X25724500Y-26112000D02*
X25724500Y-29312000D01*
X25724500Y-29312000D02*
X22224500Y-29312000D01*
X208130561Y-76014581D02*
X211625764Y-75831405D01*
X208298036Y-79210195D02*
X208130561Y-76014581D01*
X211625764Y-75831405D02*
X211793239Y-79027019D01*
X211793239Y-79027019D02*
X208298036Y-79210195D01*
X297439450Y-26726421D02*
X300934653Y-26543245D01*
X297606925Y-29922035D02*
X297439450Y-26726421D01*
X300934653Y-26543245D02*
X301102128Y-29738859D01*
X301102128Y-29738859D02*
X297606925Y-29922035D01*
X53430261Y-70867919D02*
X53597736Y-67672305D01*
X53597736Y-67672305D02*
X57092939Y-67855481D01*
X56925464Y-71051095D02*
X53430261Y-70867919D01*
X57092939Y-67855481D02*
X56925464Y-71051095D01*
X219755761Y-34885981D02*
X223250964Y-34702805D01*
X219923236Y-38081595D02*
X219755761Y-34885981D01*
X223250964Y-34702805D02*
X223418439Y-37898419D01*
X223418439Y-37898419D02*
X219923236Y-38081595D01*
X26554100Y-67239100D02*
X30054100Y-67239100D01*
X26554100Y-70439100D02*
X26554100Y-67239100D01*
X30054100Y-67239100D02*
X30054100Y-70439100D01*
X30054100Y-70439100D02*
X26554100Y-70439100D01*
X85998150Y-53874841D02*
X86498741Y-50714238D01*
X86498741Y-50714238D02*
X89955650Y-51261759D01*
X89455059Y-54422362D02*
X85998150Y-53874841D01*
X89955650Y-51261759D02*
X89455059Y-54422362D01*
X265981341Y-69505090D02*
X269462168Y-69139240D01*
X266315832Y-72687560D02*
X265981341Y-69505090D01*
X269462168Y-69139240D02*
X269796659Y-72321710D01*
X269796659Y-72321710D02*
X266315832Y-72687560D01*
X150624300Y-99832500D02*
X154124300Y-99832500D01*
X150624300Y-103032500D02*
X150624300Y-99832500D01*
X154124300Y-99832500D02*
X154124300Y-103032500D01*
X154124300Y-103032500D02*
X150624300Y-103032500D01*
X188710600Y-42686300D02*
X192210600Y-42686300D01*
X188710600Y-45886300D02*
X188710600Y-42686300D01*
X192210600Y-42686300D02*
X192210600Y-45886300D01*
X192210600Y-45886300D02*
X188710600Y-45886300D01*
X312876500Y-67234800D02*
X316376500Y-67234800D01*
X312876500Y-70434800D02*
X312876500Y-67234800D01*
X316376500Y-67234800D02*
X316376500Y-70434800D01*
X316376500Y-70434800D02*
X312876500Y-70434800D01*
X214980436Y-55082146D02*
X218475639Y-54898970D01*
X215147911Y-58277760D02*
X214980436Y-55082146D01*
X218475639Y-54898970D02*
X218643114Y-58094584D01*
X218643114Y-58094584D02*
X215147911Y-58277760D01*
X92700150Y-74807041D02*
X93200741Y-71646438D01*
X93200741Y-71646438D02*
X96657650Y-72193959D01*
X96157059Y-75354562D02*
X92700150Y-74807041D01*
X96657650Y-72193959D02*
X96157059Y-75354562D01*
X66261841Y-51369210D02*
X66596332Y-48186740D01*
X66596332Y-48186740D02*
X70077159Y-48552590D01*
X69742668Y-51735060D02*
X66261841Y-51369210D01*
X70077159Y-48552590D02*
X69742668Y-51735060D01*
X150618200Y-80783600D02*
X154118200Y-80783600D01*
X150618200Y-83983600D02*
X150618200Y-80783600D01*
X154118200Y-80783600D02*
X154118200Y-83983600D01*
X154118200Y-83983600D02*
X150618200Y-83983600D01*
X119654561Y-37896019D02*
X119822036Y-34700405D01*
X119822036Y-34700405D02*
X123317239Y-34883581D01*
X123149764Y-38079195D02*
X119654561Y-37896019D01*
X123317239Y-34883581D02*
X123149764Y-38079195D01*
X100381441Y-36298810D02*
X100715932Y-33116340D01*
X100715932Y-33116340D02*
X104196759Y-33482190D01*
X103862268Y-36664660D02*
X100381441Y-36298810D01*
X104196759Y-33482190D02*
X103862268Y-36664660D01*
X254712427Y-99705751D02*
X254824105Y-96507701D01*
X254824105Y-96507701D02*
X258321973Y-96629849D01*
X258210295Y-99827899D02*
X254712427Y-99705751D01*
X258321973Y-96629849D02*
X258210295Y-99827899D01*
X46715361Y-49932519D02*
X46882836Y-46736905D01*
X46882836Y-46736905D02*
X50378039Y-46920081D01*
X50210564Y-50115695D02*
X46715361Y-49932519D01*
X50378039Y-46920081D02*
X50210564Y-50115695D01*
X188712900Y-99840400D02*
X192212900Y-99840400D01*
X188712900Y-103040400D02*
X188712900Y-99840400D01*
X192212900Y-99840400D02*
X192212900Y-103040400D01*
X192212900Y-103040400D02*
X188712900Y-103040400D01*
X105159541Y-56481010D02*
X105494032Y-53298540D01*
X105494032Y-53298540D02*
X108974859Y-53664390D01*
X108640368Y-56846860D02*
X105159541Y-56481010D01*
X108974859Y-53664390D02*
X108640368Y-56846860D01*
X169657200Y-99835400D02*
X173157200Y-99835400D01*
X169657200Y-103035400D02*
X169657200Y-99835400D01*
X173157200Y-99835400D02*
X173157200Y-103035400D01*
X173157200Y-103035400D02*
X169657200Y-103035400D01*
X292695461Y-46911181D02*
X296190664Y-46728005D01*
X292862936Y-50106795D02*
X292695461Y-46911181D01*
X296190664Y-46728005D02*
X296358139Y-49923619D01*
X296358139Y-49923619D02*
X292862936Y-50106795D01*
X272850441Y-48565290D02*
X276331268Y-48199440D01*
X273184932Y-51747760D02*
X272850441Y-48565290D01*
X276331268Y-48199440D02*
X276665759Y-51381910D01*
X276665759Y-51381910D02*
X273184932Y-51747760D01*
X150608892Y-42672265D02*
X154108892Y-42672265D01*
X150608892Y-45872265D02*
X150608892Y-42672265D01*
X154108892Y-42672265D02*
X154108892Y-45872265D01*
X154108892Y-45872265D02*
X150608892Y-45872265D01*
M02*
