G04 #@! TF.GenerationSoftware,KiCad,Pcbnew,9.0.0*
G04 #@! TF.CreationDate,2025-03-01T00:39:15+09:00*
G04 #@! TF.ProjectId,tijuana_lp,74696a75-616e-4615-9f6c-702e6b696361,rev?*
G04 #@! TF.SameCoordinates,Original*
G04 #@! TF.FileFunction,Profile,NP*
%FSLAX46Y46*%
G04 Gerber Fmt 4.6, Leading zero omitted, Abs format (unit mm)*
G04 Created by KiCad (PCBNEW 9.0.0) date 2025-03-01 00:39:15*
%MOMM*%
%LPD*%
G01*
G04 APERTURE LIST*
G04 #@! TA.AperFunction,Profile*
%ADD10C,0.100000*%
G04 #@! TD*
G04 #@! TA.AperFunction,Profile*
%ADD11C,0.150000*%
G04 #@! TD*
G04 #@! TA.AperFunction,Profile*
%ADD12C,0.010000*%
G04 #@! TD*
G04 APERTURE END LIST*
D10*
X325625000Y-17250000D02*
G75*
G02*
X328625000Y-20250000I0J-3000000D01*
G01*
X14275000Y-20250000D02*
G75*
G02*
X17275000Y-17250000I3000000J0D01*
G01*
X17275000Y-116050000D02*
G75*
G02*
X14275000Y-113050000I0J3000000D01*
G01*
X325625000Y-17250000D02*
X17275000Y-17250000D01*
X328625000Y-113050000D02*
X328625000Y-20250000D01*
X17275000Y-116050000D02*
X325625000Y-116050000D01*
X14275000Y-20250000D02*
X14275000Y-113050000D01*
X328625000Y-113050000D02*
G75*
G02*
X325625000Y-116050000I-3000000J0D01*
G01*
D11*
X307561222Y-67264759D02*
X321661222Y-67264759D01*
X307561222Y-81364759D02*
X307561222Y-67264759D01*
X321661222Y-67264759D02*
X321661222Y-81364759D01*
X321661222Y-81364759D02*
X307561222Y-81364759D01*
X79301864Y-96843305D02*
X93393275Y-96351222D01*
X79793947Y-110934716D02*
X79301864Y-96843305D01*
X93393275Y-96351222D02*
X93885358Y-110442633D01*
X93885358Y-110442633D02*
X79793947Y-110934716D01*
X21238778Y-67264759D02*
X35338778Y-67264759D01*
X21238778Y-81364759D02*
X21238778Y-67264759D01*
X35338778Y-67264759D02*
X35338778Y-81364759D01*
X35338778Y-81364759D02*
X21238778Y-81364759D01*
X249506725Y-96351222D02*
X263598136Y-96843305D01*
X249014642Y-110442633D02*
X249506725Y-96351222D01*
X263598136Y-96843305D02*
X263106053Y-110934716D01*
X263106053Y-110934716D02*
X249014642Y-110442633D01*
X108440396Y-96004659D02*
X122540396Y-96004659D01*
X108440396Y-110104659D02*
X108440396Y-96004659D01*
X122540396Y-96004659D02*
X122540396Y-110104659D01*
X122540396Y-110104659D02*
X108440396Y-110104659D01*
X220359604Y-96004659D02*
X234459604Y-96004659D01*
X220359604Y-110104659D02*
X220359604Y-96004659D01*
X234459604Y-96004659D02*
X234459604Y-110104659D01*
X234459604Y-110104659D02*
X220359604Y-110104659D01*
X22593611Y-92250000D02*
X38593611Y-92250000D01*
X22593611Y-106350000D02*
X22593611Y-92250000D01*
X22593611Y-106350000D02*
X38593611Y-106350000D01*
X38593611Y-92250000D02*
X38593611Y-106350000D01*
X304593611Y-92250000D02*
X320593611Y-92250000D01*
X304593611Y-106350000D02*
X304593611Y-92250000D01*
X304593611Y-106350000D02*
X320593611Y-106350000D01*
X320593611Y-92250000D02*
X320593611Y-106350000D01*
X163405943Y-21050000D02*
X179405943Y-21050000D01*
X163405943Y-35150000D02*
X163405943Y-21050000D01*
X163405943Y-35150000D02*
X179405943Y-35150000D01*
X179405943Y-21050000D02*
X179405943Y-35150000D01*
X164355943Y-99857157D02*
X178455943Y-99857157D01*
X164355943Y-113957157D02*
X164355943Y-99857157D01*
X178455943Y-99857157D02*
X178455943Y-113957157D01*
X178455943Y-113957157D02*
X164355943Y-113957157D01*
X56699062Y-27479429D02*
X70721821Y-28953280D01*
X55225211Y-41502188D02*
X56699062Y-27479429D01*
X70721821Y-28953280D02*
X69247970Y-42976039D01*
X69247970Y-42976039D02*
X55225211Y-41502188D01*
X106912041Y-73708504D02*
X120934800Y-75182355D01*
X105438190Y-87731263D02*
X106912041Y-73708504D01*
X120934800Y-75182355D02*
X119460949Y-89205114D01*
X119460949Y-89205114D02*
X105438190Y-87731263D01*
X287398717Y-47216508D02*
X301479394Y-46478571D01*
X288136654Y-61297185D02*
X287398717Y-47216508D01*
X301479394Y-46478571D02*
X302217331Y-60559248D01*
X302217331Y-60559248D02*
X288136654Y-61297185D01*
X16912917Y-26134152D02*
X31012917Y-26134152D01*
X16912917Y-40234152D02*
X16912917Y-26134152D01*
X31012917Y-26134152D02*
X31012917Y-40234152D01*
X31012917Y-40234152D02*
X16912917Y-40234152D01*
X228836275Y-54246502D02*
X242859034Y-52772651D01*
X230310126Y-68269261D02*
X228836275Y-54246502D01*
X242859034Y-52772651D02*
X244332885Y-66795410D01*
X244332885Y-66795410D02*
X230310126Y-68269261D01*
X100203753Y-52772651D02*
X114226512Y-54246502D01*
X98729902Y-66795410D02*
X100203753Y-52772651D01*
X114226512Y-54246502D02*
X112752661Y-68269261D01*
X112752661Y-68269261D02*
X98729902Y-66795410D01*
X276265346Y-97382547D02*
X290330999Y-98366114D01*
X275281779Y-111448200D02*
X276265346Y-97382547D01*
X290330999Y-98366114D02*
X289347432Y-112431767D01*
X289347432Y-112431767D02*
X275281779Y-111448200D01*
X52569001Y-98366114D02*
X66634654Y-97382547D01*
X53552568Y-112431767D02*
X52569001Y-98366114D01*
X66634654Y-97382547D02*
X67618221Y-111448200D01*
X67618221Y-111448200D02*
X53552568Y-112431767D01*
X309671969Y-46327018D02*
X323771969Y-46327018D01*
X309671969Y-60427018D02*
X309671969Y-46327018D01*
X323771969Y-46327018D02*
X323771969Y-60427018D01*
X323771969Y-60427018D02*
X309671969Y-60427018D01*
X164355943Y-42707157D02*
X178455943Y-42707157D01*
X164355943Y-56807157D02*
X164355943Y-42707157D01*
X178455943Y-42707157D02*
X178455943Y-56807157D01*
X178455943Y-56807157D02*
X164355943Y-56807157D01*
X48293825Y-67415886D02*
X62374502Y-68153823D01*
X47555888Y-81496563D02*
X48293825Y-67415886D01*
X62374502Y-68153823D02*
X61636565Y-82234500D01*
X61636565Y-82234500D02*
X47555888Y-81496563D01*
X41583393Y-46478571D02*
X55664070Y-47216508D01*
X40845456Y-60559248D02*
X41583393Y-46478571D01*
X55664070Y-47216508D02*
X54926133Y-61297185D01*
X54926133Y-61297185D02*
X40845456Y-60559248D01*
X76484675Y-29711297D02*
X90411081Y-31917023D01*
X74278949Y-43637703D02*
X76484675Y-29711297D01*
X90411081Y-31917023D02*
X88205355Y-45843429D01*
X88205355Y-45843429D02*
X74278949Y-43637703D01*
X214458439Y-35188790D02*
X228539116Y-34450853D01*
X215196376Y-49269467D02*
X214458439Y-35188790D01*
X228539116Y-34450853D02*
X229277053Y-48531530D01*
X229277053Y-48531530D02*
X215196376Y-49269467D01*
X119285282Y-54644816D02*
X133365959Y-55382753D01*
X118547345Y-68725493D02*
X119285282Y-54644816D01*
X133365959Y-55382753D02*
X132628022Y-69463430D01*
X132628022Y-69463430D02*
X118547345Y-68725493D01*
X164355943Y-80807157D02*
X178455943Y-80807157D01*
X164355943Y-94907157D02*
X164355943Y-80807157D01*
X178455943Y-80807157D02*
X178455943Y-94907157D01*
X178455943Y-94907157D02*
X164355943Y-94907157D01*
X221965200Y-75182355D02*
X235987959Y-73708504D01*
X223439051Y-89205114D02*
X221965200Y-75182355D01*
X235987959Y-73708504D02*
X237461810Y-87731263D01*
X237461810Y-87731263D02*
X223439051Y-89205114D01*
X202824781Y-76317635D02*
X216905458Y-75579698D01*
X203562718Y-90398312D02*
X202824781Y-76317635D01*
X216905458Y-75579698D02*
X217643395Y-89660375D01*
X217643395Y-89660375D02*
X203562718Y-90398312D01*
X125994542Y-75579698D02*
X140075219Y-76317635D01*
X125256605Y-89660375D02*
X125994542Y-75579698D01*
X140075219Y-76317635D02*
X139337282Y-90398312D01*
X139337282Y-90398312D02*
X125256605Y-89660375D01*
X183405943Y-42707157D02*
X197505943Y-42707157D01*
X183405943Y-56807157D02*
X183405943Y-42707157D01*
X197505943Y-42707157D02*
X197505943Y-56807157D01*
X197505943Y-56807157D02*
X183405943Y-56807157D01*
X247890586Y-52110704D02*
X261816992Y-49904978D01*
X250096312Y-66037110D02*
X247890586Y-52110704D01*
X261816992Y-49904978D02*
X264022718Y-63831384D01*
X264022718Y-63831384D02*
X250096312Y-66037110D01*
X267580677Y-49146931D02*
X281603436Y-47673080D01*
X269054528Y-63169690D02*
X267580677Y-49146931D01*
X281603436Y-47673080D02*
X283077287Y-61695839D01*
X283077287Y-61695839D02*
X269054528Y-63169690D01*
X145305943Y-42707157D02*
X159405943Y-42707157D01*
X145305943Y-56807157D02*
X145305943Y-42707157D01*
X159405943Y-42707157D02*
X159405943Y-56807157D01*
X159405943Y-56807157D02*
X145305943Y-56807157D01*
X280525498Y-68153823D02*
X294606175Y-67415886D01*
X281263435Y-82234500D02*
X280525498Y-68153823D01*
X294606175Y-67415886D02*
X295344112Y-81496563D01*
X295344112Y-81496563D02*
X281263435Y-82234500D01*
X68169264Y-68609054D02*
X82192023Y-70082905D01*
X66695413Y-82631813D02*
X68169264Y-68609054D01*
X82192023Y-70082905D02*
X80718172Y-84105664D01*
X80718172Y-84105664D02*
X66695413Y-82631813D01*
X183405943Y-61757157D02*
X197505943Y-61757157D01*
X183405943Y-75857157D02*
X183405943Y-61757157D01*
X197505943Y-61757157D02*
X197505943Y-75857157D01*
X197505943Y-75857157D02*
X183405943Y-75857157D01*
X252651706Y-31917023D02*
X266578112Y-29711297D01*
X254857432Y-45843429D02*
X252651706Y-31917023D01*
X266578112Y-29711297D02*
X268783838Y-43637703D01*
X268783838Y-43637703D02*
X254857432Y-45843429D01*
X114523671Y-34450853D02*
X128604348Y-35188790D01*
X113785734Y-48531530D02*
X114523671Y-34450853D01*
X128604348Y-35188790D02*
X127866411Y-49269467D01*
X127866411Y-49269467D02*
X113785734Y-48531530D01*
X19290818Y-46327018D02*
X33390818Y-46327018D01*
X19290818Y-60427018D02*
X19290818Y-46327018D01*
X33390818Y-46327018D02*
X33390818Y-60427018D01*
X33390818Y-60427018D02*
X19290818Y-60427018D01*
X61296564Y-47673080D02*
X75319323Y-49146931D01*
X59822713Y-61695839D02*
X61296564Y-47673080D01*
X75319323Y-49146931D02*
X73845472Y-63169690D01*
X73845472Y-63169690D02*
X59822713Y-61695839D01*
X81245795Y-49904978D02*
X95172201Y-52110704D01*
X79040069Y-63831384D02*
X81245795Y-49904978D01*
X95172201Y-52110704D02*
X92966475Y-66037110D01*
X92966475Y-66037110D02*
X79040069Y-63831384D01*
X87954865Y-70841091D02*
X101881271Y-73046817D01*
X85749139Y-84767497D02*
X87954865Y-70841091D01*
X101881271Y-73046817D02*
X99675545Y-86973223D01*
X99675545Y-86973223D02*
X85749139Y-84767497D01*
X233598129Y-34053371D02*
X247620888Y-32579520D01*
X235071980Y-48076130D02*
X233598129Y-34053371D01*
X247620888Y-32579520D02*
X249094739Y-46602279D01*
X249094739Y-46602279D02*
X235071980Y-48076130D01*
X183405943Y-80807157D02*
X197505943Y-80807157D01*
X183405943Y-94907157D02*
X183405943Y-80807157D01*
X197505943Y-80807157D02*
X197505943Y-94907157D01*
X197505943Y-94907157D02*
X183405943Y-94907157D01*
X241018729Y-73046817D02*
X254945135Y-70841091D01*
X243224455Y-86973223D02*
X241018729Y-73046817D01*
X254945135Y-70841091D02*
X257150861Y-84767497D01*
X257150861Y-84767497D02*
X243224455Y-86973223D01*
X292158560Y-27023635D02*
X306239237Y-26285698D01*
X292896497Y-41104312D02*
X292158560Y-27023635D01*
X306239237Y-26285698D02*
X306977174Y-40366375D01*
X306977174Y-40366375D02*
X292896497Y-41104312D01*
X209696828Y-55382753D02*
X223777505Y-54644816D01*
X210434765Y-69463430D02*
X209696828Y-55382753D01*
X223777505Y-54644816D02*
X224515442Y-68725493D01*
X224515442Y-68725493D02*
X210434765Y-69463430D01*
X272340966Y-28953280D02*
X286363725Y-27479429D01*
X273814817Y-42976039D02*
X272340966Y-28953280D01*
X286363725Y-27479429D02*
X287837576Y-41502188D01*
X287837576Y-41502188D02*
X273814817Y-42976039D01*
X260707977Y-70082905D02*
X274730736Y-68609054D01*
X262181828Y-84105664D02*
X260707977Y-70082905D01*
X274730736Y-68609054D02*
X276204587Y-82631813D01*
X276204587Y-82631813D02*
X262181828Y-84105664D01*
X145305943Y-80807157D02*
X159405943Y-80807157D01*
X145305943Y-94907157D02*
X145305943Y-80807157D01*
X159405943Y-80807157D02*
X159405943Y-94907157D01*
X159405943Y-94907157D02*
X145305943Y-94907157D01*
X164355943Y-61757157D02*
X178455943Y-61757157D01*
X164355943Y-75857157D02*
X164355943Y-61757157D01*
X178455943Y-61757157D02*
X178455943Y-75857157D01*
X178455943Y-75857157D02*
X164355943Y-75857157D01*
X95441899Y-32579520D02*
X109464658Y-34053371D01*
X93968048Y-46602279D02*
X95441899Y-32579520D01*
X109464658Y-34053371D02*
X107990807Y-48076130D01*
X107990807Y-48076130D02*
X93968048Y-46602279D01*
X145305943Y-61757157D02*
X159405943Y-61757157D01*
X145305943Y-75857157D02*
X145305943Y-61757157D01*
X159405943Y-61757157D02*
X159405943Y-75857157D01*
X159405943Y-75857157D02*
X145305943Y-75857157D01*
X312049870Y-26134152D02*
X326149870Y-26134152D01*
X312049870Y-40234152D02*
X312049870Y-26134152D01*
X326149870Y-26134152D02*
X326149870Y-40234152D01*
X326149870Y-40234152D02*
X312049870Y-40234152D01*
X36823550Y-26285698D02*
X50904227Y-27023635D01*
X36085613Y-40366375D02*
X36823550Y-26285698D01*
X50904227Y-27023635D02*
X50166290Y-41104312D01*
X50166290Y-41104312D02*
X36085613Y-40366375D01*
X145305943Y-99857157D02*
X159405943Y-99857157D01*
X145305943Y-113957157D02*
X145305943Y-99857157D01*
X159405943Y-99857157D02*
X159405943Y-113957157D01*
X159405943Y-113957157D02*
X145305943Y-113957157D01*
X183405943Y-99857157D02*
X197505943Y-99857157D01*
X183405943Y-113957157D02*
X183405943Y-99857157D01*
X197505943Y-99857157D02*
X197505943Y-113957157D01*
X197505943Y-113957157D02*
X183405943Y-113957157D01*
D12*
X17175000Y-66650000D02*
G75*
G02*
X14975000Y-66650000I-1100000J0D01*
G01*
X14975000Y-66650000D02*
G75*
G02*
X17175000Y-66650000I1100000J0D01*
G01*
X17175000Y-111750000D02*
G75*
G02*
X14975000Y-111750000I-1100000J0D01*
G01*
X14975000Y-111750000D02*
G75*
G02*
X17175000Y-111750000I1100000J0D01*
G01*
X327925000Y-21550000D02*
G75*
G02*
X325725000Y-21550000I-1100000J0D01*
G01*
X325725000Y-21550000D02*
G75*
G02*
X327925000Y-21550000I1100000J0D01*
G01*
X327925000Y-66650000D02*
G75*
G02*
X325725000Y-66650000I-1100000J0D01*
G01*
X325725000Y-66650000D02*
G75*
G02*
X327925000Y-66650000I1100000J0D01*
G01*
X327925000Y-111750000D02*
G75*
G02*
X325725000Y-111750000I-1100000J0D01*
G01*
X325725000Y-111750000D02*
G75*
G02*
X327925000Y-111750000I1100000J0D01*
G01*
X17175000Y-21550000D02*
G75*
G02*
X14975000Y-21550000I-1100000J0D01*
G01*
X14975000Y-21550000D02*
G75*
G02*
X17175000Y-21550000I1100000J0D01*
G01*
M02*
