<?xml version="1.0" standalone="no"?>
 <!DOCTYPE svg PUBLIC "-//W3C//DTD SVG 1.1//EN" 
 "http://www.w3.org/Graphics/SVG/1.1/DTD/svg11.dtd"> 
<svg
  xmlns:svg="http://www.w3.org/2000/svg"
  xmlns="http://www.w3.org/2000/svg"
  xmlns:xlink="http://www.w3.org/1999/xlink"
  version="1.1"
  width="346.6846mm" height="105.2830mm" viewBox="0.0000 0.0000 346.6846 105.2830">
<title>SVG Image created as GL516_Inspire-brd.svg date 2025/02/02 01:25:14 </title>
  <desc>Image generated by PCBNEW </desc>
<g style="fill:#000000; fill-opacity:1.0000;stroke:#000000; stroke-opacity:1.0000;
stroke-linecap:round; stroke-linejoin:round;"
 transform="translate(0 0) scale(1 1)">
</g>
<g style="fill:none; 
stroke:#000000; stroke-width:0.1000; stroke-opacity:1; 
stroke-linecap:round; stroke-linejoin:round;">
<path d="M17.0416 99.2500 A3.0000 3.0000 0.0 0 0 20.0416 102.2500" />
<path d="M20.0416 102.2500
L328.9916 102.2500
" />
<path d="M331.9916 99.2500
L331.9916 6.0500
" />
<path d="M328.9916 0.0500
L20.0416 0.0500
" />
<path d="M328.9916 105.2500 A6.0000 6.0000 0.0 0 0 334.9916 99.2500" />
<path d="M334.9916 99.2500
L334.9916 6.0500
" />
<path d="M17.0416 6.0500
L17.0416 99.2500
" />
<path d="M20.0416 105.2500
L328.9916 105.2500
" />
<path d="M331.9916 6.0500 A3.0000 3.0000 0.0 0 0 328.9916 3.0500" />
<path d="M328.9916 102.2500 A3.0000 3.0000 0.0 0 0 331.9916 99.2500" />
<path d="M14.0416 99.2500 A6.0000 6.0000 0.0 0 0 20.0416 105.2500" />
<path d="M334.9916 6.0500 A6.0000 6.0000 0.0 0 0 328.9916 0.0500" />
<path d="M328.9916 3.0500
L20.0416 3.0500
" />
<path d="M20.0416 3.0500 A3.0000 3.0000 0.0 0 0 17.0416 6.0500" />
<path d="M20.0416 0.0500 A6.0000 6.0000 0.0 0 0 14.0416 6.0500" />
<path d="M14.0416 6.0500
L14.0416 99.2500
" />
</g>
<g style="fill:none; 
stroke:#000000; stroke-width:0.0100; stroke-opacity:1; 
stroke-linecap:round; stroke-linejoin:round;">
<circle cx="19.1416" cy="7.5500" r="1.1000" /> 
<circle cx="19.1416" cy="52.6500" r="1.1000" /> 
<circle cx="19.1416" cy="97.7500" r="1.1000" /> 
<circle cx="329.8916" cy="7.5500" r="1.1000" /> 
<circle cx="329.8916" cy="52.6500" r="1.1000" /> 
<circle cx="329.8916" cy="97.7500" r="1.1000" /> 
</g> 
</svg>
