<?xml version="1.0" standalone="no"?>
 <!DOCTYPE svg PUBLIC "-//W3C//DTD SVG 1.1//EN" 
 "http://www.w3.org/Graphics/SVG/1.1/DTD/svg11.dtd"> 
<svg
  xmlns:svg="http://www.w3.org/2000/svg"
  xmlns="http://www.w3.org/2000/svg"
  xmlns:xlink="http://www.w3.org/1999/xlink"
  version="1.1"
  width="419.9890mm" height="297.0022mm" viewBox="0.0000 0.0000 419.9890 297.0022">
<title>SVG Image created as Woorden_decoration-Edge_Cuts.svg date 2025/03/30 13:26:44 </title>
  <desc>Image generated by PCBNEW </desc>
<g style="fill:#000000; fill-opacity:1.0000;stroke:#000000; stroke-opacity:1.0000;
stroke-linecap:round; stroke-linejoin:round;"
 transform="translate(0 0) scale(1 1)">
</g>
<g style="fill:none; 
stroke:#000000; stroke-width:0.1000; stroke-opacity:1; 
stroke-linecap:round; stroke-linejoin:round;">
<path d="M279.1845 125.8499
L263.1413 125.3779
" />
<path d="M304.4487 127.4112 A1.0000 1.0000 0.0 0 0 305.5052 126.4735" />
<path d="M235.4428 109.0068 A1.0000 1.0000 0.0 0 0 234.4339 110.0050" />
<path d="M279.2218 125.8517 A0.9978 0.9978 0.0 0 0 279.1845 125.8499" />
<path d="M289.3198 126.5268 A1.0243 1.0243 0.0 0 0 289.3281 126.5274" />
<path d="M250.6408 125.1591 A0.9964 0.9964 0.0 0 0 250.6294 125.1589" />
<path d="M234.4097 124.0655 A1.0000 1.0000 0.0 0 0 235.4036 125.0672" />
<path d="M306.3612 112.3603 A1.0000 1.0000 0.0 0 0 305.4234 111.3015" />
<path d="M263.6223 109.2578 A0.9944 0.9944 0.0 0 0 263.5986 109.2573" />
<path d="M250.6294 125.1589
L235.4036 125.0672
" />
<path d="M263.6223 109.2578
L279.6740 109.7809
" />
<path d="M290.3818 110.3913
L305.4234 111.3015
" />
<path d="M306.3612 112.3603
L305.5052 126.4735
" />
<path d="M289.3198 126.5268
L279.2218 125.8517
" />
<path d="M279.6984 109.7820
L290.3783 110.3911
" />
<path d="M234.4097 124.0655
L234.4339 110.0050
" />
<path d="M304.4487 127.4112
L289.3281 126.5274
" />
<path d="M263.1413 125.3779 A0.9602 0.9602 0.0 0 0 263.1294 125.3776" />
<path d="M263.1294 125.3776
L250.6408 125.1591
" />
<path d="M290.3818 110.3913 A1.5060 1.5060 0.0 0 0 290.3783 110.3911" />
<path d="M279.6984 109.7820 A1.0109 1.0109 0.0 0 0 279.6740 109.7809" />
<path d="M235.4428 109.0068
L263.5986 109.2573
" />
<path d="M336.8372 96.3000 A1.0000 1.0000 0.0 0 0 337.8371 95.2873" />
<path d="M229.3547 66.7984
L228.3093 49.2113
" />
<path d="M228.4127 67.8561 A0.9999 0.9999 0.0 0 0 229.3547 66.7984" />
<path d="M262.9500 45.6000
L266.8500 44.9000
" />
<path d="M341.9580 55.1994
L339.7435 59.9974
" />
<path d="M224.3232 87.5892
L223.6834 69.1024
" />
<path d="M339.6515 60.4231
L339.7487 75.0374
" />
<path d="M217.7876 104.3194 A1.0000 1.0000 0.0 0 0 218.8315 105.2548" />
<path d="M339.6801 75.4082 A1.0002 1.0002 0.0 0 0 339.7487 75.0374" />
<path d="M337.6525 80.7951
L337.8371 95.2873
" />
<path d="M248.0500 47.1000
L262.9500 45.6000
" />
<path d="M272.9500 99.6000
L258.1500 101.8000
" />
<path d="M281.8500 42.6000
L286.7500 42.0000
" />
<path d="M337.7211 80.4182 A1.0001 1.0001 0.0 0 0 337.6525 80.7951" />
<path d="M326.6500 39.1319
L341.0414 39.0086
" />
<path d="M258.1500 101.8000
L253.0500 102.6000
" />
<path d="M342.0500 40.0086 A1.0000 1.0000 0.0 0 0 341.0414 39.0086" />
<path d="M295.8500 97.2000
L291.9500 97.6000
" />
<path d="M339.7435 59.9974 A0.9998 0.9998 0.0 0 0 339.6515 60.4231" />
<path d="M266.8500 44.9000
L281.8500 42.6000
" />
<path d="M217.8332 89.2215 A0.9999 0.9999 0.0 0 0 216.9428 90.2757" />
<path d="M217.7875 104.3194
L216.9428 90.2757
" />
<path d="M238.1500 104.2000
L233.0500 104.6000
" />
<path d="M233.0500 104.6000
L218.8315 105.2548
" />
<path d="M301.6500 40.4868
L306.7500 40.0387
" />
<path d="M342.0500 40.0086
L342.0500 54.7804
" />
<path d="M224.6266 68.0694 A1.0000 1.0000 0.0 0 0 223.6834 69.1024" />
<path d="M321.7500 39.3000
L326.6500 39.1319
" />
<path d="M223.4310 88.6183 A1.0000 1.0000 0.0 0 0 224.3232 87.5892" />
<path d="M291.9500 97.6000
L276.9500 99.1000
" />
<path d="M253.0500 102.6000
L238.1500 104.2000
" />
<path d="M244.0500 47.5000
L248.0500 47.1000
" />
<path d="M229.2634 48.1551 A1.0000 1.0000 0.0 0 0 228.3093 49.2113" />
<path d="M341.9580 55.1994 A1.0003 1.0003 0.0 0 0 342.0500 54.7804" />
<path d="M306.7500 40.0387
L321.7500 39.3000
" />
<path d="M336.8372 96.3000
L321.8500 96.3000
" />
<path d="M272.9500 99.6000
L276.9500 99.1000
" />
<path d="M229.2634 48.1552
L244.0500 47.5000
" />
<path d="M224.6266 68.0694
L228.4127 67.8561
" />
<path d="M286.7500 42.0000
L301.6500 40.4868
" />
<path d="M339.6801 75.4082
L337.7211 80.4182
" />
<path d="M310.9500 96.5000
L321.8500 96.3000
" />
<path d="M217.8332 89.2214
L223.4310 88.6183
" />
<path d="M310.9500 96.5000
L295.8500 97.2000
" />
<path d="M334.3814 106.2000
L320.3814 106.2000
" />
<path d="M335.3814 107.2000 A1.0000 1.0000 0.0 0 0 334.3814 106.2000" />
<path d="M334.3814 120.3000
L320.3814 120.3000
" />
<path d="M335.3814 107.2000
L335.3814 119.3000
" />
<path d="M334.3814 120.3000 A1.0000 1.0000 0.0 0 0 335.3814 119.3000" />
<path d="M320.3814 106.2000 A1.0000 1.0000 0.0 0 0 319.3814 107.2000" />
<path d="M319.3814 119.3000 A1.0000 1.0000 0.0 0 0 320.3814 120.3000" />
<path d="M319.3814 119.3000
L319.3814 107.2000
" />
<path d="M347.0000 34.0000 A6.0000 6.0000 0.0 0 0 341.0000 28.0000" />
<path d="M347.0000 127.2000
L347.0000 34.0000
" />
<path d="M341.0000 133.2000 A6.0000 6.0000 0.0 0 0 347.0000 127.2000" />
<path d="M213.6732 56.6675
L213.6732 127.8829
" />
<path d="M212.6727 128.8829 A1.0000 1.0000 0.0 0 0 213.6732 127.8829" />
<path d="M213.6733 56.6675 A1.0001 1.0001 0.0 0 0 212.6732 55.6675" />
<path d="M158.3786 127.8729 A1.0000 1.0000 0.0 0 0 159.3782 128.8729" />
<path d="M194.4571 47.9939 A0.9999 0.9999 0.0 0 0 195.4571 46.9940" />
<path d="M45.4000 39.1319
L31.0086 39.0086
" />
<path d="M36.6686 119.3000 A1.0000 1.0000 0.0 0 0 37.6686 120.3000" />
<path d="M67.6013 127.4112
L82.7219 126.5274
" />
<path d="M65.6888 112.3603
L66.5448 126.4735
" />
<path d="M177.5100 33.9940
L194.4571 33.9940
" />
<path d="M81.6717 110.3911 A1.5060 1.5060 0.0 0 0 81.6682 110.3913" />
<path d="M85.3000 42.0000
L70.4000 40.4868
" />
<path d="M137.6161 110.0050 A1.0000 1.0000 0.0 0 0 136.6072 109.0068" />
<path d="M65.3000 40.0387
L50.3000 39.3000
" />
<path d="M142.7866 48.1552
L128.0000 47.5000
" />
<path d="M142.6953 66.7984
L143.7407 49.2113
" />
<path d="M34.3975 80.7951 A1.0004 1.0004 0.0 0 0 34.3289 80.4182" />
<path d="M31.0086 39.0086 A1.0000 1.0000 0.0 0 0 30.0000 40.0086" />
<path d="M195.4571 34.9940
L195.4571 46.9940
" />
<path d="M108.9206 125.3776
L121.4092 125.1591
" />
<path d="M31.5000 28.0000
L341.0000 28.0000
" />
<path d="M159.3822 55.6822
L212.6732 55.6675
" />
<path d="M61.1000 96.5000
L76.2000 97.2000
" />
<path d="M66.5448 126.4735 A1.0000 1.0000 0.0 0 0 67.6013 127.4112" />
<path d="M92.3760 109.7809 A1.0109 1.0109 0.0 0 0 92.3516 109.7820" />
<path d="M139.0000 104.6000
L153.2185 105.2548
" />
<path d="M155.1073 90.2757 A1.0002 1.0002 0.0 0 0 154.2168 89.2214" />
<path d="M37.6686 120.3000
L51.6686 120.3000
" />
<path d="M32.3013 75.0374 A1.0002 1.0002 0.0 0 0 32.3699 75.4082" />
<path d="M147.4234 68.0694
L143.6373 67.8561
" />
<path d="M34.2129 95.2873 A1.0000 1.0000 0.0 0 0 35.2128 96.3000" />
<path d="M148.3665 69.1024 A0.9999 0.9999 0.0 0 0 147.4234 68.0694" />
<path d="M37.6686 106.2000
L51.6686 106.2000
" />
<path d="M109.1000 45.6000
L105.2000 44.9000
" />
<path d="M99.1000 99.6000
L113.9000 101.8000
" />
<path d="M143.7408 49.2113 A1.0000 1.0000 0.0 0 0 142.7866 48.1552" />
<path d="M113.9000 101.8000
L119.0000 102.6000
" />
<path d="M159.3782 128.8729
L212.6727 128.8976
" />
<path d="M128.0000 47.5000
L124.0000 47.1000
" />
<path d="M92.3516 109.7820
L81.6717 110.3911
" />
<path d="M136.6072 109.0068
L108.4514 109.2573
" />
<path d="M108.4277 109.2578
L92.3760 109.7809
" />
<path d="M66.6266 111.3016 A0.9999 0.9999 0.0 0 0 65.6888 112.3603" />
<path d="M31.0500 133.2000
L341.0000 133.2000
" />
<path d="M32.3985 60.4231 A1.0001 1.0001 0.0 0 0 32.3065 59.9974" />
<path d="M81.6682 110.3913
L66.6266 111.3015
" />
<path d="M52.6686 107.2000 A1.0000 1.0000 0.0 0 0 51.6686 106.2000" />
<path d="M99.1000 99.6000
L95.1000 99.1000
" />
<path d="M76.2000 97.2000
L80.1000 97.6000
" />
<path d="M121.4206 125.1589
L136.6464 125.0672
" />
<path d="M121.4206 125.1590 A0.9964 0.9964 0.0 0 0 121.4092 125.1591" />
<path d="M30.0920 55.1994
L32.3065 59.9974
" />
<path d="M136.6464 125.0672 A1.0000 1.0000 0.0 0 0 137.6403 124.0655" />
<path d="M154.2625 104.3194
L155.1072 90.2757
" />
<path d="M147.7268 87.5892 A1.0000 1.0000 0.0 0 0 148.6190 88.6183" />
<path d="M108.4514 109.2573 A0.9944 0.9944 0.0 0 0 108.4277 109.2578" />
<path d="M92.8655 125.8499
L108.9087 125.3779
" />
<path d="M30.0000 54.7804 A1.0003 1.0003 0.0 0 0 30.0920 55.1994" />
<path d="M82.7219 126.5274 A1.0243 1.0243 0.0 0 0 82.7302 126.5268" />
<path d="M159.3822 55.6675 A1.0000 1.0000 0.0 0 0 158.3786 56.6675" />
<path d="M92.8655 125.8499 A0.9978 0.9978 0.0 0 0 92.8282 125.8517" />
<path d="M176.5100 34.9905
L176.4684 46.9905
" />
<path d="M82.7302 126.5268
L92.8282 125.8517
" />
<path d="M70.4000 40.4868
L65.3000 40.0387
" />
<path d="M124.0000 47.1000
L109.1000 45.6000
" />
<path d="M34.3975 80.7951
L34.2129 95.2873
" />
<path d="M50.3000 39.3000
L45.4000 39.1319
" />
<path d="M176.4684 46.9905 A1.0000 1.0000 0.0 0 0 177.4684 47.9940" />
<path d="M25.0500 127.2000 A6.0000 6.0000 0.0 0 0 31.0500 133.2000" />
<path d="M195.4571 34.9940 A1.0000 1.0000 0.0 0 0 194.4571 33.9940" />
<path d="M30.0000 40.0086
L30.0000 54.7804
" />
<path d="M177.5100 33.9940 A1.0000 1.0000 0.0 0 0 176.5100 34.9905" />
<path d="M80.1000 97.6000
L95.1000 99.1000
" />
<path d="M153.2185 105.2548 A1.0000 1.0000 0.0 0 0 154.2625 104.3194" />
<path d="M158.3786 56.6675
L158.3786 127.8729
" />
<path d="M51.6686 120.3000 A1.0000 1.0000 0.0 0 0 52.6686 119.3000" />
<path d="M61.1000 96.5000
L50.2000 96.3000
" />
<path d="M32.3699 75.4082
L34.3289 80.4182
" />
<path d="M52.6686 119.3000
L52.6686 107.2000
" />
<path d="M142.6953 66.7984 A1.0000 1.0000 0.0 0 0 143.6373 67.8561" />
<path d="M133.9000 104.2000
L139.0000 104.6000
" />
<path d="M32.3985 60.4231
L32.3013 75.0374
" />
<path d="M154.2168 89.2214
L148.6190 88.6183
" />
<path d="M35.2128 96.3000
L50.2000 96.3000
" />
<path d="M31.0500 28.0000 A6.0000 6.0000 0.0 0 0 25.0500 34.0000" />
<path d="M37.6686 106.2000 A1.0000 1.0000 0.0 0 0 36.6686 107.2000" />
<path d="M105.2000 44.9000
L90.2000 42.6000
" />
<path d="M36.6686 107.2000
L36.6686 119.3000
" />
<path d="M90.2000 42.6000
L85.3000 42.0000
" />
<path d="M108.9206 125.3776 A0.9602 0.9602 0.0 0 0 108.9087 125.3779" />
<path d="M137.6403 124.0655
L137.6161 110.0050
" />
<path d="M147.7268 87.5892
L148.3666 69.1024
" />
<path d="M119.0000 102.6000
L133.9000 104.2000
" />
<path d="M25.0500 34.0000
L25.0500 127.2000
" />
<path d="M177.4684 47.9940
L194.4571 47.9940
" />
</g>
<g style="fill:none; 
stroke:#000000; stroke-width:0.0100; stroke-opacity:1; 
stroke-linecap:round; stroke-linejoin:round;">
<circle cx="341.9000" cy="80.6000" r="1.1000" /> 
<circle cx="341.9000" cy="125.7000" r="1.1000" /> 
<circle cx="341.9000" cy="35.5000" r="1.1000" /> 
<circle cx="30.1500" cy="80.6000" r="1.1000" /> 
<circle cx="30.1500" cy="125.7000" r="1.1000" /> 
<circle cx="30.1500" cy="35.5000" r="1.1000" /> 
</g> 
</svg>
