G04 #@! TF.GenerationSoftware,KiCad,Pcbnew,9.0.0*
G04 #@! TF.CreationDate,2025-03-01T00:43:59+09:00*
G04 #@! TF.ProjectId,tijuana_lp,74696a75-616e-4615-9f6c-702e6b696361,rev?*
G04 #@! TF.SameCoordinates,Original*
G04 #@! TF.FileFunction,Legend,Top*
G04 #@! TF.FilePolarity,Positive*
%FSLAX46Y46*%
G04 Gerber Fmt 4.6, Leading zero omitted, Abs format (unit mm)*
G04 Created by KiCad (PCBNEW 9.0.0) date 2025-03-01 00:43:59*
%MOMM*%
%LPD*%
G01*
G04 APERTURE LIST*
%ADD10C,0.150000*%
G04 APERTURE END LIST*
D10*
X25037350Y-93743750D02*
X25037350Y-94537500D01*
X25037350Y-104062500D02*
X25037350Y-104856250D01*
X25037350Y-104856250D02*
X25831100Y-104856250D01*
X25831100Y-93743750D02*
X25037350Y-93743750D01*
X35356100Y-93743750D02*
X36149850Y-93743750D01*
X35356100Y-104856250D02*
X36149850Y-104856250D01*
X36149850Y-93743750D02*
X36149850Y-94537500D01*
X36149850Y-104856250D02*
X36149850Y-104062500D01*
X307037350Y-93743750D02*
X307037350Y-94537500D01*
X307037350Y-104062500D02*
X307037350Y-104856250D01*
X307037350Y-104856250D02*
X307831100Y-104856250D01*
X307831100Y-93743750D02*
X307037350Y-93743750D01*
X317356100Y-93743750D02*
X318149850Y-93743750D01*
X317356100Y-104856250D02*
X318149850Y-104856250D01*
X318149850Y-93743750D02*
X318149850Y-94537500D01*
X318149850Y-104856250D02*
X318149850Y-104062500D01*
X165849650Y-22543750D02*
X165849650Y-23337500D01*
X165849650Y-32862500D02*
X165849650Y-33656250D01*
X165849650Y-33656250D02*
X166643400Y-33656250D01*
X166643400Y-22543750D02*
X165849650Y-22543750D01*
X176168400Y-22543750D02*
X176962150Y-22543750D01*
X176168400Y-33656250D02*
X176962150Y-33656250D01*
X176962150Y-22543750D02*
X176962150Y-23337500D01*
X176962150Y-33656250D02*
X176962150Y-32862500D01*
M02*
