G04 #@! TF.GenerationSoftware,KiCad,Pcbnew,9.0.0*
G04 #@! TF.CreationDate,2025-03-01T00:43:59+09:00*
G04 #@! TF.ProjectId,tijuana_lp,74696a75-616e-4615-9f6c-702e6b696361,rev?*
G04 #@! TF.SameCoordinates,Original*
G04 #@! TF.FileFunction,Soldermask,Bot*
G04 #@! TF.FilePolarity,Negative*
%FSLAX46Y46*%
G04 Gerber Fmt 4.6, Leading zero omitted, Abs format (unit mm)*
G04 Created by KiCad (PCBNEW 9.0.0) date 2025-03-01 00:43:59*
%MOMM*%
%LPD*%
G01*
G04 APERTURE LIST*
G04 Aperture macros list*
%AMHorizOval*
0 Thick line with rounded ends*
0 $1 width*
0 $2 $3 position (X,Y) of the first rounded end (center of the circle)*
0 $4 $5 position (X,Y) of the second rounded end (center of the circle)*
0 Add line between two ends*
20,1,$1,$2,$3,$4,$5,0*
0 Add two circle primitives to create the rounded ends*
1,1,$1,$2,$3*
1,1,$1,$4,$5*%
%AMRotRect*
0 Rectangle, with rotation*
0 The origin of the aperture is its center*
0 $1 length*
0 $2 width*
0 $3 Rotation angle, in degrees counterclockwise*
0 Add horizontal line*
21,1,$1,$2,0,0,$3*%
G04 Aperture macros list end*
%ADD10R,0.950000X1.300000*%
%ADD11RotRect,1.300000X0.950000X267.000000*%
%ADD12C,2.000000*%
%ADD13R,3.200000X2.500000*%
%ADD14C,3.100000*%
%ADD15C,5.000000*%
%ADD16O,1.500000X0.600000*%
%ADD17R,3.000000X3.500000*%
%ADD18R,2.200000X0.820000*%
%ADD19HorizOval,0.600000X0.447535X-0.047038X-0.447535X0.047038X0*%
%ADD20RotRect,3.000000X3.500000X174.000000*%
%ADD21RotRect,2.200000X0.820000X6.000000*%
%ADD22RotRect,2.200000X0.820000X4.000000*%
%ADD23RotRect,1.300000X0.950000X93.000000*%
%ADD24HorizOval,0.600000X0.449383X0.023551X-0.449383X-0.023551X0*%
%ADD25RotRect,3.000000X3.500000X183.000000*%
%ADD26RotRect,1.300000X0.950000X96.000000*%
%ADD27RotRect,2.200000X0.820000X171.000000*%
%ADD28RotRect,1.300000X0.950000X272.000000*%
%ADD29R,2.550000X3.500000*%
%ADD30HorizOval,0.600000X0.447535X0.047038X-0.447535X-0.047038X0*%
%ADD31RotRect,3.000000X3.500000X186.000000*%
%ADD32HorizOval,0.600000X0.448904X-0.031390X-0.448904X0.031390X0*%
%ADD33RotRect,3.000000X3.500000X176.000000*%
%ADD34HorizOval,0.600000X0.448904X0.031390X-0.448904X-0.031390X0*%
%ADD35RotRect,3.000000X3.500000X184.000000*%
%ADD36RotRect,2.200000X0.820000X3.000000*%
%ADD37RotRect,2.200000X0.820000X174.000000*%
%ADD38RotRect,2.200000X0.820000X357.000000*%
%ADD39RotRect,2.200000X0.820000X177.000000*%
%ADD40RotRect,1.300000X0.950000X261.000000*%
%ADD41RotRect,2.200000X0.820000X2.000000*%
%ADD42RotRect,1.300000X0.950000X264.000000*%
%ADD43HorizOval,0.600000X0.449383X-0.023551X-0.449383X0.023551X0*%
%ADD44RotRect,3.000000X3.500000X177.000000*%
%ADD45HorizOval,0.600000X0.444460X-0.070396X-0.444460X0.070396X0*%
%ADD46RotRect,3.000000X3.500000X171.000000*%
%ADD47RotRect,1.300000X0.950000X99.000000*%
%ADD48RotRect,2.200000X0.820000X176.000000*%
%ADD49HorizOval,0.600000X0.444460X0.070396X-0.444460X-0.070396X0*%
%ADD50RotRect,3.000000X3.500000X189.000000*%
%ADD51RotRect,1.300000X0.950000X86.000000*%
%ADD52RotRect,2.200000X0.820000X9.000000*%
%ADD53HorizOval,0.600000X0.449726X0.015705X-0.449726X-0.015705X0*%
%ADD54RotRect,3.000000X3.500000X182.000000*%
%ADD55RotRect,2.200000X0.820000X186.000000*%
%ADD56RotRect,2.200000X0.820000X189.000000*%
%ADD57HorizOval,0.600000X0.449726X-0.015705X-0.449726X0.015705X0*%
%ADD58RotRect,3.000000X3.500000X178.000000*%
%ADD59RotRect,2.200000X0.820000X351.000000*%
%ADD60RotRect,2.200000X0.820000X183.000000*%
%ADD61RotRect,2.200000X0.820000X354.000000*%
%ADD62RotRect,1.300000X0.950000X274.000000*%
%ADD63R,1.300000X0.950000*%
%ADD64RotRect,2.200000X0.820000X178.000000*%
%ADD65O,1.500000X2.500000*%
%ADD66O,2.500000X1.500000*%
G04 APERTURE END LIST*
D10*
X34500000Y-72525000D03*
X34500000Y-76075000D03*
D11*
X132244596Y-60934433D03*
X132058804Y-64479567D03*
D12*
X23093600Y-96800000D03*
X23093600Y-101800000D03*
X23093600Y-99300000D03*
D13*
X30593600Y-93700000D03*
X30593600Y-104900000D03*
D12*
X37593600Y-101800000D03*
X37593600Y-96800000D03*
D14*
X166405900Y-110607200D03*
D15*
X171405900Y-106907200D03*
D14*
X171405900Y-112807200D03*
D16*
X176405900Y-101357200D03*
D17*
X163055900Y-110607200D03*
X174955900Y-112807200D03*
D10*
X324500000Y-101075000D03*
X324500000Y-97525000D03*
D18*
X29307300Y-47153900D03*
X23407300Y-47153900D03*
X23407300Y-48653900D03*
X29307300Y-48653900D03*
D14*
X57614135Y-38384789D03*
D15*
X62973500Y-35227700D03*
D14*
X62356782Y-41095379D03*
D19*
X68526242Y-30230746D03*
D20*
X54282487Y-38034618D03*
X65887335Y-41466455D03*
D21*
X232007744Y-74957550D03*
X226140064Y-75574268D03*
X226296856Y-77066050D03*
X232164536Y-76449332D03*
D10*
X158588000Y-47962400D03*
X158588000Y-51512400D03*
D22*
X62607796Y-98496245D03*
X56722169Y-98907809D03*
X56826804Y-100404155D03*
X62712431Y-99992591D03*
D18*
X174364000Y-43532300D03*
X168464000Y-43532300D03*
X168464000Y-45032300D03*
X174364000Y-45032300D03*
D14*
X107827135Y-84613889D03*
D15*
X113186500Y-81456800D03*
D14*
X112569782Y-87324479D03*
D19*
X118739242Y-76459846D03*
D20*
X104495487Y-84263718D03*
X116100335Y-87695555D03*
D23*
X294385096Y-76223467D03*
X294199304Y-72678333D03*
D18*
X149413200Y-64080400D03*
X155313200Y-64080400D03*
X155313200Y-62580400D03*
X149413200Y-62580400D03*
D21*
X243639344Y-33825350D03*
X237771664Y-34442068D03*
X237928456Y-35933850D03*
X243796136Y-35317132D03*
D14*
X290008495Y-57844509D03*
D15*
X294808000Y-53887900D03*
D14*
X295116782Y-59779814D03*
D24*
X299510683Y-48083826D03*
D25*
X286663086Y-58019835D03*
X298661917Y-59594022D03*
D26*
X236059338Y-82489576D03*
X235688262Y-78959024D03*
D27*
X80173793Y-32647685D03*
X86001155Y-33570648D03*
X86235807Y-32089115D03*
X80408445Y-31166152D03*
D28*
X92638053Y-101426081D03*
X92761947Y-104973919D03*
D14*
X18962900Y-36884200D03*
D15*
X23962900Y-33184200D03*
D14*
X23962900Y-39084200D03*
D16*
X28962900Y-27634200D03*
D29*
X15837900Y-36884200D03*
D17*
X27512900Y-39084200D03*
D10*
X196685900Y-89643300D03*
X196685900Y-86093300D03*
D14*
X231998746Y-64723373D03*
D15*
X236584600Y-60521000D03*
D14*
X237201318Y-66388679D03*
D30*
X240977078Y-54478761D03*
D31*
X228667095Y-65073544D03*
X240731871Y-66017603D03*
D14*
X101118835Y-63678089D03*
D15*
X106478200Y-60521000D03*
D14*
X105861482Y-66388679D03*
D19*
X112030942Y-55524046D03*
D20*
X97787187Y-63327918D03*
X109392035Y-66759755D03*
D14*
X277560481Y-108249405D03*
D15*
X282806400Y-104907200D03*
D14*
X282394837Y-110792828D03*
D32*
X288181369Y-99719502D03*
D33*
X274218641Y-108015720D03*
X285936189Y-111040463D03*
D18*
X322061200Y-26955600D03*
X316161200Y-26955600D03*
X316161200Y-28455600D03*
X322061200Y-28455600D03*
D14*
X55363879Y-108946969D03*
D15*
X60093600Y-104907200D03*
D14*
X60505163Y-110792828D03*
D34*
X64694272Y-99021937D03*
D35*
X52022039Y-109180654D03*
X64046516Y-110545192D03*
D21*
X282384044Y-28726350D03*
X276516364Y-29343068D03*
X276673156Y-30834850D03*
X282540836Y-30218132D03*
D14*
X311722000Y-57077000D03*
D15*
X316722000Y-53377000D03*
D14*
X316722000Y-59277000D03*
D16*
X321722000Y-47827000D03*
D17*
X308372000Y-57077000D03*
X320272000Y-59277000D03*
D14*
X166405900Y-53457200D03*
D15*
X171405900Y-49757200D03*
D14*
X171405900Y-55657200D03*
D16*
X176405900Y-44207200D03*
D17*
X163055900Y-53457200D03*
X174955900Y-55657200D03*
D36*
X290564905Y-68452336D03*
X284672991Y-68761119D03*
X284751495Y-70259064D03*
X290643409Y-69950281D03*
D37*
X110781946Y-76374832D03*
X116649626Y-76991550D03*
X116806418Y-75499768D03*
X110938738Y-74883050D03*
D38*
X129241009Y-55997419D03*
X123349095Y-55688636D03*
X123270591Y-57186581D03*
X129162505Y-57495364D03*
D39*
X129970691Y-78124381D03*
X135862605Y-78433164D03*
X135941109Y-76935219D03*
X130049195Y-76626436D03*
D40*
X100325071Y-78265153D03*
X99769729Y-81771447D03*
D41*
X89304757Y-97317233D03*
X83408350Y-97523141D03*
X83460699Y-99022227D03*
X89357106Y-98816319D03*
D42*
X108046638Y-39486024D03*
X107675562Y-43016576D03*
D10*
X177640900Y-108675000D03*
X177640900Y-105125000D03*
D11*
X138983796Y-81728133D03*
X138798004Y-85273267D03*
D37*
X60533264Y-30218632D03*
X66400944Y-30835350D03*
X66557736Y-29343568D03*
X60690056Y-28726850D03*
D18*
X193402790Y-81649528D03*
X187502790Y-81649528D03*
X187502790Y-83149528D03*
X193402790Y-83149528D03*
X174359300Y-81627900D03*
X168459300Y-81627900D03*
X168459300Y-83127900D03*
X174359300Y-83127900D03*
D14*
X49778409Y-78258449D03*
D15*
X54965200Y-74825200D03*
D14*
X54656418Y-80717114D03*
D43*
X60248812Y-69544486D03*
D44*
X46433000Y-78083124D03*
X58201553Y-80902907D03*
D14*
X43068009Y-57321149D03*
D15*
X48254800Y-53887900D03*
D14*
X47946018Y-59779814D03*
D43*
X53538412Y-48607186D03*
D44*
X39722600Y-57145824D03*
X51491153Y-59965607D03*
D14*
X110490400Y-106754700D03*
D15*
X115490400Y-103054700D03*
D14*
X115490400Y-108954700D03*
D16*
X120490400Y-97504700D03*
D17*
X107140400Y-106754700D03*
X119040400Y-108954700D03*
D42*
X80894438Y-75360924D03*
X80523362Y-78891476D03*
D18*
X168461700Y-64089000D03*
X174361700Y-64089000D03*
X174361700Y-62589000D03*
X168461700Y-62589000D03*
D10*
X177659200Y-86106800D03*
X177659200Y-89656800D03*
D23*
X223466796Y-63525767D03*
X223281004Y-59980633D03*
D14*
X76827751Y-40649675D03*
D15*
X82345000Y-37777400D03*
D14*
X81422037Y-43604761D03*
D45*
X88151653Y-33077902D03*
D46*
X73518995Y-40125619D03*
X84928330Y-44160104D03*
D39*
X40801591Y-28826481D03*
X46693505Y-29135264D03*
X46772009Y-27637319D03*
X40880095Y-27328536D03*
D14*
X217068195Y-45816809D03*
D15*
X221867700Y-41860200D03*
D14*
X222176482Y-47752114D03*
D24*
X226570383Y-36056126D03*
D25*
X213722786Y-45992135D03*
X225721617Y-47566322D03*
D14*
X120769909Y-65487349D03*
D15*
X125956700Y-62054100D03*
D14*
X125647918Y-67946014D03*
D43*
X131240312Y-56773386D03*
D44*
X117424500Y-65312024D03*
X129193053Y-68131807D03*
D23*
X228115796Y-43148267D03*
X227930004Y-39603133D03*
D37*
X72019664Y-71351932D03*
X77887344Y-71968650D03*
X78044136Y-70476868D03*
X72176456Y-69860150D03*
D14*
X166405900Y-91557200D03*
D15*
X171405900Y-87857200D03*
D14*
X171405900Y-93757200D03*
D16*
X176405900Y-82307200D03*
D17*
X163055900Y-91557200D03*
X174955900Y-93757200D03*
D42*
X73956938Y-54319424D03*
X73585862Y-57849976D03*
D11*
X61357996Y-73614333D03*
X61172204Y-77159467D03*
D14*
X225127646Y-85659173D03*
D15*
X229713500Y-81456800D03*
D14*
X230330218Y-87324479D03*
D30*
X234105978Y-75414561D03*
D31*
X221795995Y-86009344D03*
X233860771Y-86953403D03*
D47*
X255488071Y-79777347D03*
X254932729Y-76271053D03*
D48*
X280198869Y-99992791D03*
X286084497Y-100404355D03*
X286189131Y-98908009D03*
X280303503Y-98496445D03*
D18*
X118458100Y-96831100D03*
X112558100Y-96831100D03*
X112558100Y-98331100D03*
X118458100Y-98331100D03*
D14*
X205434595Y-86945609D03*
D15*
X210234100Y-82989000D03*
D14*
X210542882Y-88880914D03*
D24*
X214936783Y-77184926D03*
D25*
X202089186Y-87120935D03*
X214088017Y-88695122D03*
D14*
X127479109Y-86422249D03*
D15*
X132665900Y-82989000D03*
D14*
X132357118Y-88880914D03*
D43*
X137949512Y-77708286D03*
D44*
X124133700Y-86246924D03*
X135902253Y-89066707D03*
D10*
X196684500Y-51546200D03*
X196684500Y-47996200D03*
D14*
X185455900Y-53457200D03*
D15*
X190455900Y-49757200D03*
D14*
X190455900Y-55657200D03*
D16*
X195455900Y-44207200D03*
D17*
X182105900Y-53457200D03*
X194005900Y-55657200D03*
D42*
X69375638Y-34153224D03*
X69004562Y-37683776D03*
D14*
X251597066Y-62407619D03*
D15*
X255956700Y-57971000D03*
D14*
X256879663Y-63798361D03*
D49*
X260026930Y-51707157D03*
D50*
X248288310Y-62931675D03*
X260385957Y-63243019D03*
D14*
X270743146Y-59623773D03*
D15*
X275329000Y-55421400D03*
D14*
X275945718Y-61289079D03*
D30*
X279721478Y-49379161D03*
D31*
X267411495Y-59973944D03*
X279476271Y-60918003D03*
D14*
X147355900Y-53457200D03*
D15*
X152355900Y-49757200D03*
D14*
X152355900Y-55657200D03*
D16*
X157355900Y-44207200D03*
D17*
X144005900Y-53457200D03*
X155905900Y-55657200D03*
D14*
X283135295Y-78781809D03*
D15*
X287934800Y-74825200D03*
D14*
X288243582Y-80717114D03*
D24*
X292637483Y-69021126D03*
D25*
X279789886Y-78957135D03*
X291788717Y-80531322D03*
D18*
X224475800Y-98327500D03*
X230375800Y-98327500D03*
X230375800Y-96827500D03*
X224475800Y-96827500D03*
D11*
X54592896Y-52627433D03*
X54407104Y-56172567D03*
D51*
X262277782Y-105889376D03*
X262525418Y-102348024D03*
D14*
X69084335Y-79514489D03*
D15*
X74443700Y-76357400D03*
D14*
X73826982Y-82225079D03*
D19*
X79996442Y-71360446D03*
D20*
X65752687Y-79164318D03*
X77357535Y-82596155D03*
D14*
X185455900Y-72507200D03*
D15*
X190455900Y-68807200D03*
D14*
X190455900Y-74707200D03*
D16*
X195455900Y-63257200D03*
D17*
X182105900Y-72507200D03*
X194005900Y-74707200D03*
D14*
X256358166Y-42214019D03*
D15*
X260717800Y-37777400D03*
D14*
X261640763Y-43604761D03*
D49*
X264788030Y-31513557D03*
D50*
X253049410Y-42738075D03*
X265147057Y-43049419D03*
D14*
X309611200Y-78014800D03*
D15*
X314611200Y-74314800D03*
D14*
X314611200Y-80214800D03*
D16*
X319611200Y-68764800D03*
D17*
X306261200Y-78014800D03*
X318161200Y-80214800D03*
D18*
X313782200Y-48654900D03*
X319682200Y-48654900D03*
X319682200Y-47154900D03*
X313782200Y-47154900D03*
D10*
X177646000Y-47981300D03*
X177646000Y-51531300D03*
D14*
X116008209Y-45293449D03*
D15*
X121195000Y-41860200D03*
D14*
X120886218Y-47752114D03*
D43*
X126478612Y-36579486D03*
D44*
X112662800Y-45118124D03*
X124431353Y-47937907D03*
D52*
X251036055Y-72297352D03*
X245208693Y-73220315D03*
X245443345Y-74701848D03*
X251270707Y-73778885D03*
D10*
X325371200Y-34965700D03*
X325371200Y-31415700D03*
X322943200Y-55153900D03*
X322943200Y-51603900D03*
X32596700Y-51625000D03*
X32596700Y-55175000D03*
D14*
X21340800Y-57077000D03*
D15*
X26340800Y-53377000D03*
D14*
X26340800Y-59277000D03*
D16*
X31340800Y-47827000D03*
D17*
X17990800Y-57077000D03*
X29890800Y-59277000D03*
D10*
X182800000Y-26325000D03*
X182800000Y-29875000D03*
D18*
X187512500Y-64079400D03*
X193412500Y-64079400D03*
X193412500Y-62579400D03*
X187512500Y-62579400D03*
D14*
X81725774Y-107515244D03*
D15*
X86593600Y-103643000D03*
D14*
X86799507Y-109539406D03*
D53*
X91396862Y-97921883D03*
D54*
X78377815Y-107632157D03*
X90347344Y-109415513D03*
D55*
X233128955Y-56107082D03*
X238996635Y-55490364D03*
X238839843Y-53998582D03*
X232972163Y-54615300D03*
D26*
X242942738Y-61558676D03*
X242571662Y-58028124D03*
D14*
X62211635Y-58578489D03*
D15*
X67571000Y-55421400D03*
D14*
X66954282Y-61289079D03*
D19*
X73123742Y-50424446D03*
D20*
X58879987Y-58228318D03*
X70484835Y-61660155D03*
D14*
X81588851Y-60843275D03*
D15*
X87106100Y-57971000D03*
D14*
X86183137Y-63798361D03*
D45*
X92912753Y-53271502D03*
D46*
X78280095Y-60319219D03*
X89689430Y-64353704D03*
D14*
X88297951Y-81779475D03*
D15*
X93815200Y-78907200D03*
D14*
X92892237Y-84734561D03*
D45*
X99621853Y-74207702D03*
D46*
X84989195Y-81255419D03*
X96398530Y-85289904D03*
D56*
X252312245Y-53763748D03*
X258139607Y-52840785D03*
X257904955Y-51359252D03*
X252077593Y-52282215D03*
D14*
X236760546Y-44530173D03*
D15*
X241346400Y-40327800D03*
D14*
X241963118Y-46195479D03*
D30*
X245738878Y-34285561D03*
D31*
X233428895Y-44880344D03*
X245493671Y-45824403D03*
D23*
X216519496Y-84338667D03*
X216333704Y-80793533D03*
D52*
X262660955Y-31173552D03*
X256833593Y-32096515D03*
X257068245Y-33578048D03*
X262895607Y-32655085D03*
D10*
X41900000Y-97525000D03*
X41900000Y-101075000D03*
D14*
X185455900Y-91557200D03*
D15*
X190455900Y-87857200D03*
D14*
X190455900Y-93757200D03*
D16*
X195455900Y-82307200D03*
D17*
X182105900Y-91557200D03*
X194005900Y-93757200D03*
D10*
X158567900Y-67058100D03*
X158567900Y-70608100D03*
D18*
X21024500Y-28462000D03*
X26924500Y-28462000D03*
X26924500Y-26962000D03*
X21024500Y-26962000D03*
D26*
X286480238Y-36328676D03*
X286109162Y-32798124D03*
D36*
X212868605Y-76617436D03*
X206976691Y-76926219D03*
X207055195Y-78424164D03*
X212947109Y-78115381D03*
D14*
X23288800Y-78014800D03*
D15*
X28288800Y-74314800D03*
D14*
X28288800Y-80214800D03*
D16*
X33288800Y-68764800D03*
D17*
X19938800Y-78014800D03*
X31838800Y-80214800D03*
D14*
X251180318Y-107166249D03*
D15*
X256306400Y-103643000D03*
D14*
X256100493Y-109539406D03*
D57*
X261497046Y-98270878D03*
D58*
X247832358Y-107049335D03*
X259648330Y-109663299D03*
D36*
X302177494Y-27329276D03*
X296285580Y-27638059D03*
X296364084Y-29136004D03*
X302255998Y-28827221D03*
D39*
X52276391Y-69956281D03*
X58168305Y-70265064D03*
X58246809Y-68767119D03*
X52354895Y-68458336D03*
D42*
X112890938Y-59362924D03*
X112519862Y-62893476D03*
D36*
X224493805Y-35488836D03*
X218601891Y-35797619D03*
X218680395Y-37295564D03*
X224572309Y-36986781D03*
D14*
X244725166Y-83343819D03*
D15*
X249084800Y-78907200D03*
D14*
X250007763Y-84734561D03*
D49*
X253155030Y-72643357D03*
D50*
X241416410Y-83867875D03*
X253514057Y-84179219D03*
D11*
X127584596Y-40506933D03*
X127398804Y-44052067D03*
D10*
X320903300Y-76094700D03*
X320903300Y-72544700D03*
D18*
X25354100Y-69589100D03*
X31254100Y-69589100D03*
X31254100Y-68089100D03*
X25354100Y-68089100D03*
D40*
X88883571Y-36982053D03*
X88328229Y-40488347D03*
D14*
X294768395Y-37651609D03*
D15*
X299567900Y-33695000D03*
D14*
X299876682Y-39586914D03*
D24*
X304270583Y-27890926D03*
D25*
X291422986Y-37826935D03*
X303421817Y-39401122D03*
D59*
X91007907Y-52289015D03*
X85180545Y-51366052D03*
X84945893Y-52847585D03*
X90773255Y-53770548D03*
D21*
X270744444Y-69859150D03*
X264876764Y-70475868D03*
X265033556Y-71967650D03*
X270901236Y-71350932D03*
D14*
X212306595Y-66010709D03*
D15*
X217106100Y-62054100D03*
D14*
X217414882Y-67946014D03*
D24*
X221808783Y-56250026D03*
D25*
X208961186Y-66186035D03*
X220960017Y-67760222D03*
D10*
X158577900Y-86082200D03*
X158577900Y-89632200D03*
D47*
X262334571Y-58665847D03*
X261779229Y-55159553D03*
D14*
X275503446Y-39430073D03*
D15*
X280089300Y-35227700D03*
D14*
X280706018Y-41095379D03*
D30*
X284481778Y-29185461D03*
D31*
X272171795Y-39780244D03*
X284236571Y-40724303D03*
D18*
X149424300Y-102182500D03*
X155324300Y-102182500D03*
X155324300Y-100682500D03*
X149424300Y-100682500D03*
X193410600Y-43536300D03*
X187510600Y-43536300D03*
X187510600Y-45036300D03*
X193410600Y-45036300D03*
X317576500Y-68084800D03*
X311676500Y-68084800D03*
X311676500Y-69584800D03*
X317576500Y-69584800D03*
D60*
X213905070Y-57491729D03*
X219796984Y-57182946D03*
X219718480Y-55685001D03*
X213826566Y-55993784D03*
D14*
X222409600Y-106754700D03*
D15*
X227409600Y-103054700D03*
D14*
X227409600Y-108954700D03*
D16*
X232409600Y-97504700D03*
D17*
X219059600Y-106754700D03*
X230959600Y-108954700D03*
D27*
X91647893Y-73779785D03*
X97475255Y-74702748D03*
X97709907Y-73221215D03*
X91882545Y-72298252D03*
D61*
X71181736Y-49523368D03*
X65314056Y-48906650D03*
X65157264Y-50398432D03*
X71024944Y-51015150D03*
D10*
X30200000Y-31425000D03*
X30200000Y-34975000D03*
D14*
X263870446Y-80559773D03*
D15*
X268456300Y-76357400D03*
D14*
X269073018Y-82225079D03*
D30*
X272848778Y-70315161D03*
D31*
X260538795Y-80909944D03*
X272603571Y-81854003D03*
D14*
X147355900Y-91557200D03*
D15*
X152355900Y-87857200D03*
D14*
X152355900Y-93757200D03*
D16*
X157355900Y-82307200D03*
D17*
X144005900Y-91557200D03*
X155905900Y-93757200D03*
D10*
X158594400Y-105132200D03*
X158594400Y-108682200D03*
D18*
X155318200Y-81633600D03*
X149418200Y-81633600D03*
X149418200Y-83133600D03*
X155318200Y-83133600D03*
D26*
X281701938Y-56421676D03*
X281330862Y-52891124D03*
D14*
X166405900Y-72507200D03*
D15*
X171405900Y-68807200D03*
D14*
X171405900Y-74707200D03*
D16*
X176405900Y-63257200D03*
D17*
X163055900Y-72507200D03*
X174955900Y-74707200D03*
D10*
X196700000Y-108677700D03*
X196700000Y-105127700D03*
D40*
X93577671Y-57346853D03*
X93022329Y-60853147D03*
D62*
X66200583Y-102541925D03*
X66448217Y-106083275D03*
D39*
X118500691Y-36984381D03*
X124392605Y-37293164D03*
X124471109Y-35795219D03*
X118579195Y-35486436D03*
D37*
X99276864Y-35328032D03*
X105144544Y-35944750D03*
X105301336Y-34452968D03*
X99433656Y-33836250D03*
D47*
X267137671Y-38583147D03*
X266582329Y-35076853D03*
D10*
X177652000Y-67025000D03*
X177652000Y-70575000D03*
D14*
X96357035Y-43484889D03*
D15*
X101716400Y-40327800D03*
D14*
X101099682Y-46195479D03*
D19*
X107269142Y-35330846D03*
D20*
X93025387Y-43134718D03*
X104630235Y-46566555D03*
D14*
X147355900Y-72507200D03*
D15*
X152355900Y-68807200D03*
D14*
X152355900Y-74707200D03*
D16*
X157355900Y-63257200D03*
D17*
X144005900Y-72507200D03*
X155905900Y-74707200D03*
D63*
X108375000Y-18900000D03*
X111925000Y-18900000D03*
D23*
X301214796Y-55285067D03*
X301029004Y-51739933D03*
D10*
X121668400Y-101279700D03*
X121668400Y-104829700D03*
D64*
X253542822Y-98814389D03*
X259439229Y-99020297D03*
X259491578Y-97521211D03*
X253595171Y-97315303D03*
D12*
X305093600Y-96800000D03*
X305093600Y-101800000D03*
X305093600Y-99300000D03*
D13*
X312593600Y-93700000D03*
X312593600Y-104900000D03*
D12*
X319593600Y-101800000D03*
X319593600Y-96800000D03*
X163905900Y-25600000D03*
X163905900Y-30600000D03*
X163905900Y-28100000D03*
D13*
X171405900Y-22500000D03*
X171405900Y-33700000D03*
D12*
X178405900Y-30600000D03*
X178405900Y-25600000D03*
D38*
X51531909Y-47831719D03*
X45639995Y-47522936D03*
X45561491Y-49020881D03*
X51453405Y-49329664D03*
D10*
X196723000Y-70575000D03*
X196723000Y-67025000D03*
D11*
X49892896Y-32327433D03*
X49707104Y-35872567D03*
D18*
X187512900Y-102190400D03*
X193412900Y-102190400D03*
X193412900Y-100690400D03*
X187512900Y-100690400D03*
D42*
X119610038Y-80397624D03*
X119238962Y-83928176D03*
D61*
X110079436Y-54635168D03*
X104211756Y-54018450D03*
X104054964Y-55510232D03*
X109922644Y-56126950D03*
D51*
X288920583Y-107097777D03*
X289168217Y-103556423D03*
D14*
X314099900Y-36884200D03*
D15*
X319099900Y-33184200D03*
D14*
X319099900Y-39084200D03*
D16*
X324099900Y-27634200D03*
D17*
X310749900Y-36884200D03*
X322649900Y-39084200D03*
D18*
X168457200Y-102185400D03*
X174357200Y-102185400D03*
X174357200Y-100685400D03*
X168457200Y-100685400D03*
D14*
X38308109Y-37128249D03*
D15*
X43494900Y-33695000D03*
D14*
X43186118Y-39586914D03*
D43*
X48778512Y-28414286D03*
D44*
X34962700Y-36952924D03*
X46731253Y-39772707D03*
D60*
X291620095Y-49320764D03*
X297512009Y-49011981D03*
X297433505Y-47514036D03*
X291541591Y-47822819D03*
D55*
X271902656Y-51027850D03*
X277770336Y-50411132D03*
X277613544Y-48919350D03*
X271745864Y-49536068D03*
D14*
X147355900Y-110607200D03*
D15*
X152355900Y-106907200D03*
D14*
X152355900Y-112807200D03*
D16*
X157355900Y-101357200D03*
D17*
X144005900Y-110607200D03*
X155905900Y-112807200D03*
D14*
X185455900Y-110607200D03*
D15*
X190455900Y-106907200D03*
D14*
X190455900Y-112807200D03*
D16*
X195455900Y-101357200D03*
D17*
X182105900Y-110607200D03*
X194005900Y-112807200D03*
D18*
X155308892Y-43522265D03*
X149408892Y-43522265D03*
X149408892Y-45022265D03*
X155308892Y-45022265D03*
D10*
X233664000Y-104823400D03*
X233664000Y-101273400D03*
D26*
X247718138Y-41272376D03*
X247347062Y-37741824D03*
D23*
X305950597Y-35083168D03*
X305764803Y-31538032D03*
D26*
X274840238Y-77550276D03*
X274469162Y-74019724D03*
D65*
X132020000Y-35640000D03*
X134560000Y-35640000D03*
X137100000Y-35640000D03*
X139640000Y-35640000D03*
X142180000Y-35640000D03*
X144720000Y-35640000D03*
X147260000Y-35640000D03*
X149800000Y-35640000D03*
X152340000Y-35640000D03*
D66*
X152840000Y-32600000D03*
X152840000Y-30060000D03*
X152840000Y-27520000D03*
X152840000Y-24980000D03*
X152840000Y-22440000D03*
D65*
X152340000Y-19400000D03*
X149800000Y-19400000D03*
X147260000Y-19400000D03*
X144720000Y-19400000D03*
X142180000Y-19400000D03*
X139640000Y-19400000D03*
X137100000Y-19400000D03*
X134560000Y-19400000D03*
X132020000Y-19400000D03*
M02*
