G04 #@! TF.GenerationSoftware,KiCad,Pcbnew,9.0.0*
G04 #@! TF.CreationDate,2025-03-01T00:43:59+09:00*
G04 #@! TF.ProjectId,tijuana_lp,74696a75-616e-4615-9f6c-702e6b696361,rev?*
G04 #@! TF.SameCoordinates,Original*
G04 #@! TF.FileFunction,Copper,L1,Top*
G04 #@! TF.FilePolarity,Positive*
%FSLAX46Y46*%
G04 Gerber Fmt 4.6, Leading zero omitted, Abs format (unit mm)*
G04 Created by KiCad (PCBNEW 9.0.0) date 2025-03-01 00:43:59*
%MOMM*%
%LPD*%
G01*
G04 APERTURE LIST*
G04 #@! TA.AperFunction,ComponentPad*
%ADD10C,2.000000*%
G04 #@! TD*
G04 #@! TA.AperFunction,ComponentPad*
%ADD11R,3.200000X2.500000*%
G04 #@! TD*
G04 #@! TA.AperFunction,WasherPad*
%ADD12C,3.100000*%
G04 #@! TD*
G04 #@! TA.AperFunction,ComponentPad*
%ADD13O,1.500000X2.500000*%
G04 #@! TD*
G04 #@! TA.AperFunction,ComponentPad*
%ADD14O,2.500000X1.500000*%
G04 #@! TD*
G04 #@! TA.AperFunction,ViaPad*
%ADD15C,0.800000*%
G04 #@! TD*
G04 #@! TA.AperFunction,Conductor*
%ADD16C,0.400000*%
G04 #@! TD*
G04 #@! TA.AperFunction,Conductor*
%ADD17C,0.200000*%
G04 #@! TD*
G04 APERTURE END LIST*
D10*
X23093600Y-96800000D03*
X23093600Y-101800000D03*
X23093600Y-99300000D03*
D11*
X30593600Y-93700000D03*
X30593600Y-104900000D03*
D10*
X37593600Y-101800000D03*
X37593600Y-96800000D03*
D12*
X166405900Y-110607200D03*
X171405900Y-112807200D03*
X57614135Y-38384789D03*
X62356782Y-41095379D03*
X107827135Y-84613889D03*
X112569782Y-87324479D03*
X290008495Y-57844509D03*
X295116782Y-59779814D03*
X18962900Y-36884200D03*
X23962900Y-39084200D03*
X231998746Y-64723373D03*
X237201318Y-66388679D03*
X101118835Y-63678089D03*
X105861482Y-66388679D03*
X277560481Y-108249405D03*
X282394837Y-110792828D03*
X55363879Y-108946969D03*
X60505163Y-110792828D03*
X311722000Y-57077000D03*
X316722000Y-59277000D03*
X166405900Y-53457200D03*
X171405900Y-55657200D03*
X49778409Y-78258449D03*
X54656418Y-80717114D03*
X43068009Y-57321149D03*
X47946018Y-59779814D03*
X110490400Y-106754700D03*
X115490400Y-108954700D03*
X76827751Y-40649675D03*
X81422037Y-43604761D03*
X217068195Y-45816809D03*
X222176482Y-47752114D03*
X120769909Y-65487349D03*
X125647918Y-67946014D03*
X166405900Y-91557200D03*
X171405900Y-93757200D03*
X225127646Y-85659173D03*
X230330218Y-87324479D03*
X205434595Y-86945609D03*
X210542882Y-88880914D03*
X127479109Y-86422249D03*
X132357118Y-88880914D03*
X185455900Y-53457200D03*
X190455900Y-55657200D03*
X251597066Y-62407619D03*
X256879663Y-63798361D03*
X270743146Y-59623773D03*
X275945718Y-61289079D03*
X147355900Y-53457200D03*
X152355900Y-55657200D03*
X283135295Y-78781809D03*
X288243582Y-80717114D03*
X69084335Y-79514489D03*
X73826982Y-82225079D03*
X185455900Y-72507200D03*
X190455900Y-74707200D03*
X256358166Y-42214019D03*
X261640763Y-43604761D03*
X309611200Y-78014800D03*
X314611200Y-80214800D03*
X116008209Y-45293449D03*
X120886218Y-47752114D03*
X21340800Y-57077000D03*
X26340800Y-59277000D03*
X81725774Y-107515244D03*
X86799507Y-109539406D03*
X62211635Y-58578489D03*
X66954282Y-61289079D03*
X81588851Y-60843275D03*
X86183137Y-63798361D03*
X88297951Y-81779475D03*
X92892237Y-84734561D03*
X236760546Y-44530173D03*
X241963118Y-46195479D03*
X185455900Y-91557200D03*
X190455900Y-93757200D03*
X23288800Y-78014800D03*
X28288800Y-80214800D03*
X251180318Y-107166249D03*
X256100493Y-109539406D03*
X244725166Y-83343819D03*
X250007763Y-84734561D03*
X294768395Y-37651609D03*
X299876682Y-39586914D03*
X212306595Y-66010709D03*
X217414882Y-67946014D03*
X275503446Y-39430073D03*
X280706018Y-41095379D03*
X222409600Y-106754700D03*
X227409600Y-108954700D03*
X263870446Y-80559773D03*
X269073018Y-82225079D03*
X147355900Y-91557200D03*
X152355900Y-93757200D03*
X166405900Y-72507200D03*
X171405900Y-74707200D03*
X96357035Y-43484889D03*
X101099682Y-46195479D03*
X147355900Y-72507200D03*
X152355900Y-74707200D03*
D10*
X305093600Y-96800000D03*
X305093600Y-101800000D03*
X305093600Y-99300000D03*
D11*
X312593600Y-93700000D03*
X312593600Y-104900000D03*
D10*
X319593600Y-101800000D03*
X319593600Y-96800000D03*
X163905900Y-25600000D03*
X163905900Y-30600000D03*
X163905900Y-28100000D03*
D11*
X171405900Y-22500000D03*
X171405900Y-33700000D03*
D10*
X178405900Y-30600000D03*
X178405900Y-25600000D03*
D12*
X314099900Y-36884200D03*
X319099900Y-39084200D03*
X38308109Y-37128249D03*
X43186118Y-39586914D03*
X147355900Y-110607200D03*
X152355900Y-112807200D03*
X185455900Y-110607200D03*
X190455900Y-112807200D03*
D13*
X132020000Y-35640000D03*
X134560000Y-35640000D03*
X137100000Y-35640000D03*
X139640000Y-35640000D03*
X142180000Y-35640000D03*
X144720000Y-35640000D03*
X147260000Y-35640000D03*
X149800000Y-35640000D03*
X152340000Y-35640000D03*
D14*
X152840000Y-32600000D03*
X152840000Y-30060000D03*
X152840000Y-27520000D03*
X152840000Y-24980000D03*
X152840000Y-22440000D03*
D13*
X152340000Y-19400000D03*
X149800000Y-19400000D03*
X147260000Y-19400000D03*
X144720000Y-19400000D03*
X142180000Y-19400000D03*
X139640000Y-19400000D03*
X137100000Y-19400000D03*
X134560000Y-19400000D03*
X132020000Y-19400000D03*
D15*
X275782300Y-72159166D03*
X253957057Y-90590912D03*
X72484273Y-67730369D03*
X236100000Y-76488627D03*
X168800000Y-60100000D03*
X67100000Y-100000000D03*
X63607371Y-71127992D03*
X252423300Y-50267600D03*
X118134450Y-99814758D03*
X213500000Y-82150000D03*
X187940500Y-98033900D03*
X297800000Y-70971588D03*
X180094000Y-60099620D03*
X306450000Y-71050000D03*
X147562000Y-98033900D03*
X136079716Y-60091739D03*
X97138503Y-100464462D03*
X149760594Y-60091739D03*
X235489600Y-50267600D03*
X196684500Y-39697400D03*
X48756400Y-30223000D03*
X268700000Y-33518791D03*
X174389995Y-30931860D03*
X174383800Y-39697400D03*
X244250000Y-37271800D03*
X308050000Y-33500000D03*
X129350000Y-32505000D03*
X108046600Y-37281900D03*
X31197200Y-30182300D03*
X229981700Y-38786600D03*
X303450000Y-33500000D03*
X66800000Y-33300000D03*
X284259269Y-32147640D03*
X283440145Y-63989984D03*
X92597493Y-54966372D03*
X161000000Y-65539000D03*
X131306200Y-58583100D03*
X194393081Y-68680130D03*
X54647500Y-50355500D03*
X305855600Y-61631500D03*
X259700000Y-58400000D03*
X179000000Y-63379400D03*
X73963163Y-52236957D03*
X244754400Y-60198493D03*
X114528700Y-55724300D03*
X294350000Y-84950000D03*
X83300000Y-75850000D03*
X139955500Y-79819900D03*
X252429215Y-75776185D03*
X116650000Y-79850000D03*
X237330400Y-75655400D03*
X140700400Y-27521600D03*
X58891451Y-73623693D03*
X156429375Y-85338843D03*
X271500000Y-73300000D03*
X193900000Y-84750000D03*
X216346332Y-78276984D03*
X38015409Y-71692143D03*
X143580300Y-24983200D03*
X178545500Y-102633400D03*
X160928674Y-103332486D03*
X125150000Y-102300000D03*
X146947700Y-102244800D03*
X250258800Y-99370000D03*
X168950000Y-79250000D03*
X148651675Y-40722549D03*
X62612660Y-72002875D03*
X82100000Y-73250000D03*
X156043772Y-70411248D03*
X23757300Y-42891600D03*
X238130400Y-99370000D03*
X294887933Y-67240572D03*
X302200400Y-68084800D03*
X38962043Y-99260649D03*
X53118300Y-99260649D03*
X76800000Y-101650000D03*
X82100000Y-86650000D03*
X131630187Y-40722549D03*
X318775100Y-65542800D03*
X45989500Y-45554900D03*
X150745000Y-31010000D03*
X124121600Y-31010000D03*
X31350000Y-26775747D03*
X36075736Y-26775747D03*
X21526500Y-37830311D03*
X19446071Y-31822667D03*
X32094200Y-46203074D03*
X43827600Y-46198500D03*
X90662200Y-50432700D03*
X99829800Y-50870612D03*
X129294800Y-46850000D03*
X149779300Y-46850000D03*
X163650000Y-42350000D03*
X158002100Y-42407000D03*
X194968000Y-37620600D03*
X214800000Y-37618800D03*
X262262836Y-52749400D03*
X268905885Y-52749400D03*
X193055144Y-59962603D03*
X211269200Y-61439700D03*
X135591600Y-62688400D03*
X145250000Y-62650000D03*
X62600000Y-68750000D03*
X68850000Y-68750000D03*
X50550900Y-66174500D03*
X32813800Y-66174500D03*
X39444300Y-84300000D03*
X53820026Y-84313882D03*
X66300000Y-97214660D03*
X79570266Y-99024266D03*
X144705900Y-83100000D03*
X136300000Y-93050000D03*
X185645345Y-78666624D03*
X178574300Y-81635480D03*
X231659700Y-72930500D03*
X242116400Y-74650000D03*
X253507940Y-70991848D03*
X261238800Y-70950000D03*
X303750000Y-69150000D03*
X295743655Y-69151490D03*
X248008483Y-98544752D03*
X235150000Y-96600000D03*
X200055603Y-98342778D03*
X219759600Y-98337536D03*
X177880300Y-98835600D03*
X186112800Y-98835600D03*
X182059804Y-96389298D03*
X137650000Y-95679400D03*
X130589800Y-39793100D03*
X140700000Y-39800000D03*
X182049000Y-102614800D03*
X182125472Y-49069966D03*
X163047481Y-105628913D03*
X20814600Y-31177034D03*
X142192100Y-94300000D03*
X183770576Y-79506099D03*
X134571365Y-49978906D03*
X203305800Y-32195400D03*
X185411000Y-102766000D03*
X183800000Y-106100000D03*
X202089200Y-79507900D03*
X39433800Y-49715100D03*
X205876300Y-75839700D03*
X218919600Y-84300000D03*
X228667100Y-58184400D03*
X57904210Y-46007800D03*
X233428900Y-50810000D03*
X221796000Y-81000000D03*
X228568400Y-70915700D03*
X248288300Y-56449800D03*
X59126300Y-43163700D03*
X251086200Y-35791600D03*
X248288300Y-71185200D03*
X139640000Y-31805000D03*
X71576500Y-30212600D03*
X72305600Y-43163700D03*
X250142900Y-52983300D03*
X240550000Y-73950000D03*
X97787200Y-69118700D03*
X100999500Y-50810000D03*
X105656200Y-70764200D03*
X104495500Y-80046600D03*
X272169040Y-34717749D03*
X271365700Y-48406500D03*
X138588300Y-50810000D03*
X267411500Y-50366100D03*
X107689700Y-76800000D03*
X117424500Y-70483090D03*
X112686610Y-52248335D03*
X279789900Y-97380200D03*
X135611700Y-54160200D03*
X274218600Y-102383500D03*
X286663100Y-52049400D03*
X115700000Y-57350000D03*
X291546575Y-44917012D03*
X124133700Y-78234600D03*
X144000000Y-95650000D03*
X310749900Y-43750000D03*
X308072200Y-48106505D03*
X160481300Y-73842900D03*
X163055900Y-84102200D03*
X159838400Y-24547500D03*
X142450053Y-97123966D03*
X327438605Y-25250062D03*
D16*
X236100000Y-76488627D02*
X233197632Y-76488627D01*
X236100000Y-76488627D02*
X236100043Y-76488584D01*
X306450000Y-71050000D02*
X297878412Y-71050000D01*
X147562000Y-98033900D02*
X187940500Y-98033900D01*
X232632465Y-77053794D02*
X232632465Y-77737449D01*
X180093620Y-60100000D02*
X168800000Y-60100000D01*
X97131948Y-100457907D02*
X97138503Y-100464462D01*
X147562000Y-98033900D02*
X147562000Y-99251789D01*
X149768855Y-60100000D02*
X149760594Y-60091739D01*
X149760594Y-60091739D02*
X136079716Y-60091739D01*
X222969020Y-78864356D02*
X222969020Y-84534735D01*
X213500000Y-84537052D02*
X213500000Y-82150000D01*
X235489600Y-50267600D02*
X252423300Y-50267600D01*
X297235943Y-71750550D02*
X276190943Y-71750550D01*
X232069914Y-78300000D02*
X223533376Y-78300000D01*
X239167118Y-90590912D02*
X253957057Y-90590912D01*
X118134450Y-99814758D02*
X146999031Y-99814758D01*
X297800000Y-70971588D02*
X297800003Y-71186482D01*
X67557907Y-100457907D02*
X97131948Y-100457907D01*
X236100043Y-76488584D02*
X238041522Y-76488584D01*
X222403755Y-85100000D02*
X214062948Y-85100000D01*
X71963650Y-71127992D02*
X63607371Y-71127992D01*
X72524500Y-67770596D02*
X72524500Y-70567142D01*
X72484273Y-67730369D02*
X72524500Y-67770596D01*
X168800000Y-60100000D02*
X149768855Y-60100000D01*
X238602864Y-77049919D02*
X238602864Y-90026658D01*
X180094000Y-60099620D02*
X180093620Y-60100000D01*
X118134450Y-99814758D02*
X97788207Y-99814758D01*
X214062948Y-85100000D02*
G75*
G02*
X213500000Y-84537052I-48J562900D01*
G01*
X72524500Y-70567142D02*
G75*
G02*
X71963650Y-71127900I-560800J42D01*
G01*
X233197632Y-76488627D02*
G75*
G03*
X232632427Y-77053794I-32J-565173D01*
G01*
X232632465Y-77737449D02*
G75*
G02*
X232069914Y-78300065I-562565J-51D01*
G01*
X297878412Y-71050000D02*
G75*
G02*
X297800000Y-70971588I-12J78400D01*
G01*
X97788207Y-99814758D02*
G75*
G03*
X97138458Y-100464462I-7J-649742D01*
G01*
X238041522Y-76488584D02*
G75*
G02*
X238602816Y-77049919I-22J-561316D01*
G01*
X222969020Y-84534735D02*
G75*
G02*
X222403755Y-85099920I-565220J35D01*
G01*
X67100000Y-100000000D02*
G75*
G03*
X67557907Y-100457900I457900J0D01*
G01*
X276190943Y-71750550D02*
G75*
G03*
X275782250Y-72159166I-43J-408650D01*
G01*
X238602864Y-90026658D02*
G75*
G03*
X239167118Y-90590936I564236J-42D01*
G01*
X297800003Y-71186482D02*
G75*
G02*
X297235943Y-71750603I-564103J-18D01*
G01*
X223533376Y-78300000D02*
G75*
G03*
X222969000Y-78864356I24J-564400D01*
G01*
X146999031Y-99814758D02*
G75*
G03*
X147561958Y-99251789I-31J562958D01*
G01*
D17*
X129445000Y-32600000D02*
X129350000Y-32505000D01*
X66800000Y-34096271D02*
X66800000Y-33300000D01*
X284259269Y-32147640D02*
X294919718Y-32147640D01*
X229981700Y-37696664D02*
X229981700Y-38786600D01*
X66376809Y-31856900D02*
X49178129Y-31856900D01*
X303450000Y-30897192D02*
X303450000Y-33500000D01*
X196684500Y-39697400D02*
X196684500Y-39211301D01*
X31197200Y-30223000D02*
X31197200Y-30182300D01*
X295767880Y-30474067D02*
X303026875Y-30474067D01*
X244250000Y-37271800D02*
X230406564Y-37271800D01*
X48756400Y-30223000D02*
X31197200Y-30223000D01*
X116456700Y-33023564D02*
X116456700Y-36857738D01*
X268700005Y-32571452D02*
X268700000Y-33518791D01*
X116032538Y-37281900D02*
X108046600Y-37281900D01*
X284259269Y-32147640D02*
X269123819Y-32147640D01*
X295343020Y-31724356D02*
X295343055Y-30898874D01*
X152340000Y-32600000D02*
X129445000Y-32600000D01*
X174383800Y-39697400D02*
X196684500Y-39697400D01*
X197109201Y-38786600D02*
X229981700Y-38786600D01*
X165425234Y-32600000D02*
X152340000Y-32600000D01*
X108046600Y-37281900D02*
X108046600Y-37221534D01*
X97126535Y-34524100D02*
X67227829Y-34524100D01*
X66800000Y-33300000D02*
X66800000Y-32280091D01*
X129350000Y-32505000D02*
X129255000Y-32600000D01*
X308050000Y-33500000D02*
X303450000Y-33500000D01*
X165850000Y-31356623D02*
X165850000Y-32175234D01*
X97550000Y-36797828D02*
X97550000Y-34947565D01*
X48756400Y-31435171D02*
X48756400Y-30223000D01*
X174389995Y-30931860D02*
X166274763Y-30931860D01*
X108046600Y-37221534D02*
X97973706Y-37221534D01*
X129255000Y-32600000D02*
X116880264Y-32600000D01*
X269123819Y-32147640D02*
G75*
G03*
X268699940Y-32571452I-19J-423860D01*
G01*
X67227829Y-34524100D02*
G75*
G02*
X66800000Y-34096271I-29J427800D01*
G01*
X295343055Y-30898874D02*
G75*
G02*
X295767880Y-30474055I424845J-26D01*
G01*
X66800000Y-32280091D02*
G75*
G03*
X66376809Y-31856900I-423200J-9D01*
G01*
X116456700Y-36857738D02*
G75*
G02*
X116032538Y-37281900I-424200J38D01*
G01*
X97973706Y-37221534D02*
G75*
G02*
X97549966Y-36797828I-6J423734D01*
G01*
X196684500Y-39211301D02*
G75*
G02*
X197109201Y-38786600I424700J1D01*
G01*
X294919718Y-32147640D02*
G75*
G03*
X295343040Y-31724356I-18J423340D01*
G01*
X116880264Y-32600000D02*
G75*
G03*
X116456700Y-33023564I36J-423600D01*
G01*
X230406564Y-37271800D02*
G75*
G03*
X229981700Y-37696664I36J-424900D01*
G01*
X166274763Y-30931860D02*
G75*
G03*
X165850060Y-31356623I37J-424740D01*
G01*
X97550000Y-34947565D02*
G75*
G03*
X97126535Y-34524100I-423500J-35D01*
G01*
X165850000Y-32175234D02*
G75*
G02*
X165425234Y-32600000I-424800J34D01*
G01*
X49178129Y-31856900D02*
G75*
G02*
X48756400Y-31435171I-29J421700D01*
G01*
X303026875Y-30474067D02*
G75*
G02*
X303450033Y-30897192I25J-423133D01*
G01*
X73963163Y-52236957D02*
X73963163Y-54541316D01*
X304854363Y-63972436D02*
X305059449Y-63972436D01*
X74388219Y-54966372D02*
X92597493Y-54966372D01*
X267232964Y-58400000D02*
X259700000Y-58400000D01*
X267656876Y-63573700D02*
X267656852Y-58823886D01*
X305855600Y-63176285D02*
X305855600Y-61631500D01*
X92597493Y-54966372D02*
X92597493Y-56892158D01*
X283432057Y-63998072D02*
X268081250Y-63998072D01*
X254050000Y-60750000D02*
X253867262Y-60567262D01*
X54647500Y-51814147D02*
X54647500Y-50355500D01*
X259278235Y-61023900D02*
X254711253Y-61023900D01*
X283440145Y-63989984D02*
X283457693Y-63972436D01*
X244751807Y-69410165D02*
X244751807Y-60201086D01*
X194814798Y-69834000D02*
X244327972Y-69834000D01*
X161000000Y-65539000D02*
X179369521Y-65539000D01*
X253000272Y-60208143D02*
X244764050Y-60208143D01*
X194393081Y-68680130D02*
X194393081Y-65962636D01*
X283457693Y-63972436D02*
X304854363Y-63972436D01*
X194393081Y-68680130D02*
X194393100Y-69412313D01*
X93022406Y-57317071D02*
X114106269Y-57317071D01*
X283440145Y-63989984D02*
X283432057Y-63998072D01*
X244751807Y-60201086D02*
X244754400Y-60198493D01*
X259700000Y-58400000D02*
X259700000Y-60602135D01*
X179000000Y-65152821D02*
X179000000Y-63379400D01*
X114528700Y-56894640D02*
X114528700Y-55724300D01*
X193969445Y-65539000D02*
X179369521Y-65539000D01*
X161000000Y-65539000D02*
X131730636Y-65539000D01*
X73963163Y-52236957D02*
X55070310Y-52236957D01*
X131306200Y-65114564D02*
X131306200Y-58583100D01*
X305059449Y-63972436D02*
G75*
G03*
X305855536Y-63176285I-49J796136D01*
G01*
X73963163Y-54541316D02*
G75*
G03*
X74388219Y-54966337I425037J16D01*
G01*
X131730636Y-65539000D02*
G75*
G02*
X131306200Y-65114564I-36J424400D01*
G01*
X267656852Y-58823886D02*
G75*
G03*
X267232964Y-58400048I-423852J-14D01*
G01*
X268081250Y-63998072D02*
G75*
G02*
X267656928Y-63573700I50J424372D01*
G01*
X244764050Y-60208143D02*
G75*
G02*
X244754357Y-60198493I-50J9643D01*
G01*
X194393081Y-65962636D02*
G75*
G03*
X193969445Y-65538919I-423681J36D01*
G01*
X259700000Y-60602135D02*
G75*
G02*
X259278235Y-61023900I-421800J35D01*
G01*
X244327972Y-69834000D02*
G75*
G03*
X244751800Y-69410165I28J423800D01*
G01*
X114106269Y-57317071D02*
G75*
G03*
X114528771Y-56894640I31J422471D01*
G01*
X194393100Y-69412313D02*
G75*
G03*
X194814798Y-69834000I421700J13D01*
G01*
X92597493Y-56892158D02*
G75*
G03*
X93022406Y-57317107I424907J-42D01*
G01*
X179000000Y-65169479D02*
G75*
G03*
X179369521Y-65539000I369500J-21D01*
G01*
X55070310Y-52236957D02*
G75*
G02*
X54647443Y-51814147I-10J422857D01*
G01*
X253867262Y-60567262D02*
G75*
G03*
X253000272Y-60208177I-866962J-867038D01*
G01*
X178613783Y-65539003D02*
G75*
G03*
X179000003Y-65152821I17J386203D01*
G01*
X254711253Y-61023900D02*
G75*
G02*
X254050034Y-60749966I47J935100D01*
G01*
X276046782Y-84582988D02*
X276046782Y-73725286D01*
X294293857Y-85006143D02*
X276469937Y-85006143D01*
X116650000Y-79850000D02*
X116680100Y-79819900D01*
X83301926Y-92500000D02*
X83300000Y-92498074D01*
X58870657Y-73644487D02*
X58870657Y-92676514D01*
X152340000Y-27521600D02*
X140700400Y-27521600D01*
X83300000Y-75850000D02*
X83093700Y-75850000D01*
X216346344Y-79672631D02*
X216346332Y-78276984D01*
X152340000Y-27520000D02*
X152340000Y-27521600D01*
X156429375Y-85338843D02*
X168728816Y-85338843D01*
X252429215Y-75776185D02*
X237451185Y-75776185D01*
X139955500Y-79819900D02*
X145834134Y-79819900D01*
X271450000Y-73250000D02*
X263759710Y-73250000D01*
X275621496Y-73300000D02*
X271500000Y-73300000D01*
X83300000Y-75850000D02*
X83300000Y-92498074D01*
X237451185Y-75776185D02*
X237330400Y-75655400D01*
X116680100Y-79819900D02*
X139955500Y-79819900D01*
X38015409Y-71692143D02*
X58468158Y-71692143D01*
X193900000Y-84804000D02*
X193900000Y-84750000D01*
X169278148Y-85111301D02*
X169358936Y-85030512D01*
X116225245Y-93100000D02*
X83696326Y-93100000D01*
X83301926Y-92705129D02*
X83301926Y-92500000D01*
X206650000Y-84325224D02*
X206650000Y-80525484D01*
X169905782Y-84804000D02*
X193900000Y-84804000D01*
X146258254Y-80244020D02*
X146258254Y-84221749D01*
X262912126Y-75776185D02*
X252429215Y-75776185D01*
X58891451Y-72115436D02*
X58891451Y-73623693D01*
X193900000Y-84750000D02*
X206225224Y-84750000D01*
X146683069Y-84646564D02*
X156007400Y-84646564D01*
X263336696Y-73673010D02*
X263336682Y-75351633D01*
X82907055Y-93100000D02*
X83696326Y-93100000D01*
X156429375Y-85338843D02*
X156429392Y-85068582D01*
X116650000Y-79850000D02*
X116630500Y-79830500D01*
X116650000Y-79850000D02*
X116650000Y-92675245D01*
X59294143Y-93100000D02*
X82907055Y-93100000D01*
X207075484Y-80100000D02*
X215918979Y-80100000D01*
X58870657Y-92676514D02*
G75*
G03*
X59294143Y-93099943I423443J14D01*
G01*
X58468158Y-71692143D02*
G75*
G02*
X58891457Y-72115436I42J-423257D01*
G01*
X263759710Y-73250000D02*
G75*
G03*
X263336700Y-73673010I-10J-423000D01*
G01*
X263336682Y-75351633D02*
G75*
G02*
X262912126Y-75776182I-424582J33D01*
G01*
X156007400Y-84646564D02*
G75*
G02*
X156429436Y-85068582I0J-422036D01*
G01*
X294350000Y-84950000D02*
G75*
G02*
X294293857Y-85006100I-56100J0D01*
G01*
X82907055Y-93100000D02*
G75*
G03*
X83302000Y-92705129I45J394900D01*
G01*
X145834134Y-79819900D02*
G75*
G02*
X146258200Y-80244020I-34J-424100D01*
G01*
X215918979Y-80100000D02*
G75*
G03*
X216346400Y-79672631I21J427400D01*
G01*
X206225224Y-84750000D02*
G75*
G03*
X206650000Y-84325224I-24J424800D01*
G01*
X116650000Y-92675245D02*
G75*
G02*
X116225245Y-93100000I-424800J45D01*
G01*
X168728816Y-85338843D02*
G75*
G03*
X169278134Y-85111287I-16J776843D01*
G01*
X271500000Y-73300000D02*
G75*
G03*
X271450000Y-73250000I-50000J0D01*
G01*
X58891451Y-73623693D02*
G75*
G03*
X58870593Y-73644487I-51J-20807D01*
G01*
X276046782Y-73725286D02*
G75*
G03*
X275621496Y-73300018I-425282J-14D01*
G01*
X276469937Y-85006143D02*
G75*
G02*
X276046757Y-84582988I-37J423143D01*
G01*
X169358936Y-85030512D02*
G75*
G02*
X169905782Y-84803971I546864J-546788D01*
G01*
X83301926Y-92705600D02*
G75*
G03*
X83696326Y-93099974I394374J0D01*
G01*
X146258254Y-84221749D02*
G75*
G03*
X146683069Y-84646646I424846J-51D01*
G01*
X206650000Y-80525484D02*
G75*
G02*
X207075484Y-80100000I425500J-16D01*
G01*
X152340000Y-24980000D02*
X152340000Y-24983200D01*
X152340000Y-24983200D02*
X143580300Y-24983200D01*
X146947700Y-102244800D02*
X125205200Y-102244800D01*
X178545500Y-102912338D02*
X178545500Y-102633400D01*
X160932888Y-103336700D02*
X178121138Y-103336700D01*
X125205200Y-102244800D02*
X125150000Y-102300000D01*
X160928674Y-103332486D02*
X160932888Y-103336700D01*
X178121138Y-103336700D02*
G75*
G03*
X178545500Y-102912338I-38J424400D01*
G01*
D16*
X302200400Y-68084800D02*
X302200400Y-66106762D01*
X82100000Y-73250000D02*
X82100000Y-73597697D01*
X168955365Y-70974933D02*
X168955365Y-79244635D01*
X53118300Y-101078468D02*
X53118300Y-99260649D01*
X76800000Y-101650000D02*
X76791500Y-101641500D01*
X294887933Y-67240572D02*
X294887923Y-67522776D01*
X302764362Y-65542800D02*
X318775100Y-65542800D01*
X82100000Y-73250000D02*
X70715968Y-73250000D01*
X70005866Y-72955866D02*
X69350000Y-72300000D01*
X294887933Y-67240572D02*
X295003861Y-67356500D01*
X168955365Y-79244635D02*
X168950000Y-79250000D01*
X45989500Y-43456110D02*
X45989500Y-45554900D01*
X23093600Y-99400000D02*
X23093600Y-99300000D01*
X76791500Y-101641500D02*
X53681332Y-101641500D01*
X68632677Y-72002875D02*
X62612660Y-72002875D01*
X156043772Y-70411248D02*
X168391680Y-70411248D01*
X38962043Y-99260649D02*
X39108867Y-99113825D01*
X23757300Y-42891600D02*
X45424990Y-42891600D01*
X302200400Y-68084800D02*
X295449929Y-68084800D01*
X38962043Y-99260649D02*
X53118300Y-99260649D01*
X148651675Y-40722549D02*
X131630187Y-40722549D01*
X250258800Y-99370000D02*
X238130400Y-99370000D01*
X82100000Y-73814040D02*
X82100000Y-86650000D01*
X38962043Y-99260649D02*
X23132951Y-99260649D01*
X82100000Y-73597697D02*
X82070812Y-73626885D01*
X82070812Y-73626885D02*
G75*
G02*
X82099989Y-73814040I-644412J-196315D01*
G01*
X168391680Y-70411248D02*
G75*
G02*
X168955352Y-70974933I20J-563652D01*
G01*
X69350000Y-72300000D02*
G75*
G03*
X68632677Y-72002885I-717300J-717300D01*
G01*
X302200400Y-66106762D02*
G75*
G02*
X302764362Y-65542800I564000J-38D01*
G01*
X70715968Y-73250000D02*
G75*
G02*
X70005889Y-72955843I32J1004200D01*
G01*
X23132951Y-99260649D02*
G75*
G03*
X23093649Y-99300000I49J-39351D01*
G01*
X295449929Y-68084800D02*
G75*
G02*
X294887900Y-67522776I-29J562000D01*
G01*
X53681332Y-101641500D02*
G75*
G02*
X53118300Y-101078468I-32J563000D01*
G01*
X45424990Y-42891600D02*
G75*
G02*
X45989500Y-43456110I10J-564500D01*
G01*
D17*
X124121600Y-31010000D02*
X150745000Y-31010000D01*
X36007755Y-26752241D02*
X36031261Y-26775747D01*
X36031261Y-26775747D02*
X36075736Y-26775747D01*
X31350000Y-26775747D02*
X35920853Y-26775747D01*
X35920853Y-26775747D02*
G75*
G03*
X36007759Y-26752249I-6053J194847D01*
G01*
X21526500Y-37830311D02*
X21526500Y-36202839D01*
X19446071Y-31822667D02*
X19505027Y-31881622D01*
X19505027Y-31881622D02*
X19505029Y-33538806D01*
X21299567Y-35654974D02*
X19732455Y-34087862D01*
X19732455Y-34087862D02*
G75*
G02*
X19505021Y-33538806I549045J549062D01*
G01*
X21526500Y-36202839D02*
G75*
G03*
X21299587Y-35654954I-774800J39D01*
G01*
X43827600Y-46198500D02*
X32098774Y-46198500D01*
X32098774Y-46198500D02*
X32094200Y-46203074D01*
X90662200Y-50432700D02*
X94583972Y-50432700D01*
X95641094Y-50870612D02*
X99829800Y-50870612D01*
X95121425Y-50655318D02*
G75*
G03*
X95641094Y-50870620I519675J519518D01*
G01*
X94583972Y-50432700D02*
G75*
G02*
X95121443Y-50655300I28J-760100D01*
G01*
X129294800Y-46850000D02*
X149779300Y-46850000D01*
X163591400Y-42408600D02*
X158002100Y-42408600D01*
X158002100Y-42408600D02*
X158002100Y-42407000D01*
X163650000Y-42350000D02*
X163591400Y-42408600D01*
X214798200Y-37620600D02*
X214800000Y-37618800D01*
X194968000Y-37620600D02*
X214798200Y-37620600D01*
X262262836Y-52749400D02*
X268905885Y-52749400D01*
X211269200Y-61439700D02*
X193478840Y-61439700D01*
X193055144Y-59962603D02*
X193055146Y-61016007D01*
X193478840Y-61439700D02*
G75*
G02*
X193055100Y-61016007I-40J423700D01*
G01*
X135591600Y-62688400D02*
X145211600Y-62688400D01*
X145211600Y-62688400D02*
X145250000Y-62650000D01*
X68850000Y-68750000D02*
X68707852Y-68750000D01*
X68671804Y-68750000D02*
X62600000Y-68750000D01*
X68707852Y-68750000D02*
X68707100Y-68750752D01*
X68707100Y-68750752D02*
G75*
G02*
X68671804Y-68749998I-10800J320752D01*
G01*
X32813800Y-66174500D02*
X50550900Y-66174500D01*
X39444300Y-84300000D02*
X53806144Y-84300000D01*
X53806144Y-84300000D02*
G75*
G02*
X53820000Y-84313882I-44J-13900D01*
G01*
X79570266Y-99024266D02*
X79570240Y-97637019D01*
X66300000Y-97214660D02*
X79147873Y-97214660D01*
X79147873Y-97214660D02*
G75*
G02*
X79570240Y-97637019I27J-422340D01*
G01*
X136722258Y-83100000D02*
X144705900Y-83100000D01*
X136300000Y-93050000D02*
X136300000Y-83522258D01*
X136300000Y-83522258D02*
G75*
G02*
X136722258Y-83100000I422300J-42D01*
G01*
X178574300Y-81635480D02*
X178574300Y-79091234D01*
X185644469Y-78667500D02*
X185645345Y-78666624D01*
X178998034Y-78667500D02*
X185644469Y-78667500D01*
X178574300Y-79091234D02*
G75*
G02*
X178998034Y-78667500I423700J34D01*
G01*
X234153519Y-72930500D02*
X231659700Y-72930500D01*
X242116400Y-74650000D02*
X235001473Y-74650000D01*
X234577578Y-74226102D02*
X234577583Y-73354567D01*
X235001473Y-74650000D02*
G75*
G02*
X234577600Y-74226102I27J423900D01*
G01*
X234577583Y-73354567D02*
G75*
G03*
X234153519Y-72930517I-424083J-33D01*
G01*
X253507940Y-70991848D02*
X253510888Y-70988900D01*
X253510888Y-70988900D02*
X261199900Y-70988900D01*
X261199900Y-70988900D02*
X261238800Y-70950000D01*
X295743655Y-69151490D02*
X303748510Y-69151490D01*
X303748510Y-69151490D02*
X303750000Y-69150000D01*
X248008483Y-98544752D02*
X248008445Y-97023701D01*
X235150000Y-96600000D02*
X247584734Y-96600000D01*
X247584734Y-96600000D02*
G75*
G02*
X248008400Y-97023701I-34J-423700D01*
G01*
X219759600Y-98337536D02*
X200060845Y-98337536D01*
X200060845Y-98337536D02*
X200055603Y-98342778D01*
X186112800Y-98835600D02*
X177880300Y-98835600D01*
X37593600Y-96800000D02*
X37593600Y-96128395D01*
X137650000Y-95679400D02*
X38042595Y-95679400D01*
X130589800Y-39793100D02*
X140693100Y-39793100D01*
X182059804Y-96389298D02*
X181670998Y-96389298D01*
X163047481Y-105628913D02*
X163047471Y-104209454D01*
X156706100Y-42684099D02*
X156706100Y-40223744D01*
X140693100Y-39793100D02*
X140700000Y-39800000D01*
X162058700Y-46057110D02*
X162058700Y-43532017D01*
X137650000Y-95679400D02*
X137650000Y-95960568D01*
X182049000Y-103361163D02*
X182049000Y-102614800D01*
X161635483Y-43108800D02*
X157130801Y-43108800D01*
X182105900Y-49050394D02*
X182105900Y-46903113D01*
X156282356Y-39800000D02*
X140700000Y-39800000D01*
X137652609Y-95682009D02*
X137650000Y-95679400D01*
X182125472Y-49069966D02*
X182105900Y-49050394D01*
X181684065Y-46481278D02*
X162482868Y-46481278D01*
X181670998Y-96389298D02*
X181667793Y-96386093D01*
X163472922Y-103784000D02*
X181626163Y-103784000D01*
X181667793Y-96386093D02*
X138075525Y-96386093D01*
X157130801Y-43108800D02*
G75*
G02*
X156706100Y-42684099I-1J424700D01*
G01*
X162058700Y-43532017D02*
G75*
G03*
X161635483Y-43108800I-423200J17D01*
G01*
X163047471Y-104209454D02*
G75*
G02*
X163472922Y-103784071I425429J-46D01*
G01*
X156706100Y-40223744D02*
G75*
G03*
X156282356Y-39800000I-423700J44D01*
G01*
X182105900Y-46903113D02*
G75*
G03*
X181684065Y-46481300I-421800J13D01*
G01*
X162482868Y-46481278D02*
G75*
G02*
X162058722Y-46057110I32J424178D01*
G01*
X138075525Y-96386093D02*
G75*
G02*
X137650007Y-95960568I-25J425493D01*
G01*
X181626163Y-103784000D02*
G75*
G03*
X182049000Y-103361163I37J422800D01*
G01*
X38042595Y-95679400D02*
G75*
G03*
X37593600Y-96128395I5J-449000D01*
G01*
X38401500Y-28473124D02*
X38401500Y-18272104D01*
X20814600Y-31177034D02*
X20814600Y-30054694D01*
X38825304Y-17848300D02*
X149376014Y-17848300D01*
X30929099Y-28869800D02*
X38004824Y-28869800D01*
X21255594Y-29613700D02*
X30185199Y-29613700D01*
X149800000Y-18272286D02*
X149800000Y-19900000D01*
X149376014Y-17848300D02*
G75*
G02*
X149800000Y-18272286I-14J-424000D01*
G01*
X20814600Y-30054694D02*
G75*
G02*
X21255594Y-29613700I441000J-6D01*
G01*
X30185199Y-29613700D02*
G75*
G03*
X30495500Y-29303399I1J310300D01*
G01*
X30495500Y-29303399D02*
G75*
G02*
X30929099Y-28869800I433600J-1D01*
G01*
X38004824Y-28869800D02*
G75*
G03*
X38401500Y-28473124I-24J396700D01*
G01*
X38401500Y-18272104D02*
G75*
G02*
X38825304Y-17848300I423800J4D01*
G01*
X142192100Y-94300000D02*
X131803553Y-94300000D01*
X130120383Y-95251700D02*
X23518195Y-95251700D01*
X23093600Y-95676295D02*
X23093600Y-96800000D01*
X131200000Y-94550000D02*
X130765527Y-94984473D01*
X131803553Y-94300000D02*
G75*
G03*
X131200014Y-94550014I47J-853600D01*
G01*
X23518195Y-95251700D02*
G75*
G03*
X23093600Y-95676295I5J-424600D01*
G01*
X130765527Y-94984473D02*
G75*
G02*
X130120383Y-95251680I-645127J645173D01*
G01*
X44780121Y-49715100D02*
X39433800Y-49715100D01*
X202089200Y-79507900D02*
X183772377Y-79507900D01*
X166877109Y-33651700D02*
X134981494Y-33651700D01*
X134571365Y-49978906D02*
X98354404Y-49978906D01*
X203306701Y-32194499D02*
X203306701Y-32182538D01*
X202089200Y-79507900D02*
X205452415Y-79507900D01*
X183772377Y-79507900D02*
X183770576Y-79506099D01*
X45204600Y-46838543D02*
X45204600Y-49290621D01*
X97805513Y-49751546D02*
X96166548Y-48112556D01*
X203305800Y-32195400D02*
X203306701Y-32194499D01*
X205876300Y-79084015D02*
X205876300Y-75839700D01*
X184193034Y-102766000D02*
X185411000Y-102766000D01*
X183800000Y-106100000D02*
X183768600Y-106068600D01*
X203258700Y-32148300D02*
X167723594Y-32148300D01*
X183768600Y-106068600D02*
X183768600Y-103190434D01*
X167300000Y-32571894D02*
X167300000Y-33228809D01*
X55763900Y-47461889D02*
X55763900Y-46833731D01*
X95617427Y-47885100D02*
X56187111Y-47885100D01*
X134560000Y-34073194D02*
X134560000Y-35140000D01*
X55345169Y-46415000D02*
X45628143Y-46415000D01*
X167300000Y-33228809D02*
G75*
G02*
X166877109Y-33651700I-422900J9D01*
G01*
X55763900Y-46833731D02*
G75*
G03*
X55345169Y-46415000I-418700J31D01*
G01*
X183768600Y-103190434D02*
G75*
G02*
X184193034Y-102766000I424400J34D01*
G01*
X96166548Y-48112556D02*
G75*
G03*
X95617427Y-47885090I-549148J-549144D01*
G01*
X45204600Y-49290621D02*
G75*
G02*
X44780121Y-49715100I-424500J21D01*
G01*
X98354404Y-49978906D02*
G75*
G02*
X97805519Y-49751540I-4J776206D01*
G01*
X205452415Y-79507900D02*
G75*
G03*
X205876300Y-79084015I-15J423900D01*
G01*
X134981494Y-33651700D02*
G75*
G03*
X134560000Y-34073194I6J-421500D01*
G01*
X167723594Y-32148300D02*
G75*
G03*
X167300000Y-32571894I6J-423600D01*
G01*
X56187111Y-47885100D02*
G75*
G02*
X55763900Y-47461889I-11J423200D01*
G01*
X203306701Y-32182538D02*
G75*
G03*
X203258701Y-32148280I-50401J-19862D01*
G01*
X45628143Y-46415000D02*
G75*
G03*
X45204600Y-46838543I-43J-423500D01*
G01*
X218919600Y-84300000D02*
X221368920Y-84300000D01*
X206916200Y-41006786D02*
X206916200Y-50385707D01*
X98426093Y-46007800D02*
X57904210Y-46007800D01*
X222218881Y-70915700D02*
X228568400Y-70915700D01*
X159125893Y-40583600D02*
X206493014Y-40583600D01*
X137492191Y-38632869D02*
X158277950Y-38632869D01*
X136706749Y-38632869D02*
X136706751Y-38632867D01*
X158702300Y-39057219D02*
X158702300Y-40160007D01*
X136706749Y-38632869D02*
X137492191Y-38632869D01*
X137100000Y-38239616D02*
X137100000Y-38240678D01*
X233428900Y-50810000D02*
X233428900Y-55429151D01*
X228667100Y-56276189D02*
X228667100Y-58184400D01*
X233428900Y-50810000D02*
X207340493Y-50810000D01*
X111230820Y-43441700D02*
X99274434Y-43441700D01*
X221796000Y-81000000D02*
X221796000Y-71338581D01*
X233005670Y-55852373D02*
X231950000Y-55852352D01*
X137100000Y-35140000D02*
X137100000Y-38239616D01*
X136706749Y-38632869D02*
X112077234Y-38632869D01*
X221796000Y-83872920D02*
X221796000Y-81000000D01*
X231950000Y-55852352D02*
X229090937Y-55852352D01*
X98850000Y-43866134D02*
X98850000Y-45583893D01*
X111653509Y-39056594D02*
X111653509Y-43019011D01*
X112077234Y-38632869D02*
G75*
G03*
X111653469Y-39056594I-34J-423731D01*
G01*
X99274434Y-43441700D02*
G75*
G03*
X98850000Y-43866134I-34J-424400D01*
G01*
X233428900Y-55429151D02*
G75*
G02*
X233005670Y-55852400I-423200J-49D01*
G01*
X111653509Y-43019011D02*
G75*
G02*
X111230820Y-43441709I-422709J11D01*
G01*
X158277950Y-38632869D02*
G75*
G02*
X158702331Y-39057219I50J-424331D01*
G01*
X221368920Y-84300000D02*
G75*
G03*
X221796000Y-83872920I-20J427100D01*
G01*
X221796000Y-71338581D02*
G75*
G02*
X222218881Y-70915700I422900J-19D01*
G01*
X98850000Y-45583893D02*
G75*
G02*
X98426093Y-46007800I-423900J-7D01*
G01*
X207340493Y-50810000D02*
G75*
G02*
X206916200Y-50385707I7J424300D01*
G01*
X136706751Y-38632867D02*
G75*
G03*
X137099967Y-38239616I-51J393267D01*
G01*
X206493014Y-40583600D02*
G75*
G02*
X206916200Y-41006786I-14J-423200D01*
G01*
X229090937Y-55852352D02*
G75*
G03*
X228667052Y-56276189I-37J-423848D01*
G01*
X158702300Y-40160007D02*
G75*
G03*
X159125893Y-40583600I423600J7D01*
G01*
X137100000Y-38240678D02*
G75*
G03*
X137492191Y-38632900I392200J-22D01*
G01*
X248288300Y-53407075D02*
X248288300Y-56449800D01*
X175023069Y-36000000D02*
X210075639Y-36000000D01*
X87823789Y-31805000D02*
X139640000Y-31805000D01*
X140064017Y-37700000D02*
X174173100Y-37700000D01*
X71576500Y-30212600D02*
X86975831Y-30212600D01*
X250142900Y-52983300D02*
X248712075Y-52983300D01*
X251100000Y-33229834D02*
X251100000Y-35777800D01*
X240550000Y-73950000D02*
X240550000Y-71609735D01*
X139640000Y-35140000D02*
X139640000Y-37275983D01*
X210500000Y-35575639D02*
X210500000Y-33227628D01*
X72305600Y-43163700D02*
X59126300Y-43163700D01*
X174597610Y-37275490D02*
X174597610Y-36425459D01*
X240974535Y-71185200D02*
X248288300Y-71185200D01*
X87400000Y-30636769D02*
X87400000Y-31381211D01*
X210923828Y-32803800D02*
X250673966Y-32803800D01*
X250673966Y-32803800D02*
G75*
G02*
X251100000Y-33229834I34J-426000D01*
G01*
X139640000Y-37275983D02*
G75*
G03*
X140064017Y-37700000I424000J-17D01*
G01*
X174597610Y-36425459D02*
G75*
G02*
X175023069Y-36000010I425490J-41D01*
G01*
X87400000Y-31381211D02*
G75*
G03*
X87823789Y-31805000I423800J11D01*
G01*
X86975831Y-30212600D02*
G75*
G02*
X87400000Y-30636769I-31J-424200D01*
G01*
X174173100Y-37700000D02*
G75*
G03*
X174597600Y-37275490I0J424500D01*
G01*
X251100000Y-35777800D02*
G75*
G02*
X251086200Y-35791600I-13800J0D01*
G01*
X248712075Y-52983300D02*
G75*
G03*
X248288300Y-53407075I25J-423800D01*
G01*
X210075639Y-36000000D02*
G75*
G03*
X210500000Y-35575639I-39J424400D01*
G01*
X240550000Y-71609735D02*
G75*
G02*
X240974535Y-71185200I424500J35D01*
G01*
X210500000Y-33227628D02*
G75*
G02*
X210923828Y-32803800I423800J28D01*
G01*
X272167118Y-34719671D02*
X253324543Y-34719671D01*
X142180000Y-34510916D02*
X142180000Y-35140000D01*
X97787200Y-69118700D02*
X97787200Y-70339533D01*
X107689700Y-79622692D02*
X107689700Y-76800000D01*
X252475531Y-32402100D02*
X205674068Y-32402100D01*
X104495500Y-80046600D02*
X107265792Y-80046600D01*
X205250000Y-32826168D02*
X205250000Y-34825925D01*
X204824225Y-35251700D02*
X154972890Y-35251700D01*
X98211867Y-70764200D02*
X105656200Y-70764200D01*
X138588300Y-50810000D02*
X100999500Y-50810000D01*
X272169040Y-34717749D02*
X272167118Y-34719671D01*
X267411500Y-50366100D02*
X270941930Y-50366100D01*
X154126673Y-34088300D02*
X142602616Y-34088300D01*
X154550000Y-34828810D02*
X154550000Y-34511627D01*
X271365700Y-49942330D02*
X271365700Y-48406500D01*
X252900000Y-34295128D02*
X252900000Y-32826569D01*
X205674068Y-32402100D02*
G75*
G03*
X205250000Y-32826168I32J-424100D01*
G01*
X142602616Y-34088300D02*
G75*
G03*
X142180000Y-34510916I-16J-422600D01*
G01*
X107265792Y-80046600D02*
G75*
G03*
X107689700Y-79622692I8J423900D01*
G01*
X97787200Y-70339533D02*
G75*
G03*
X98211867Y-70764200I424700J33D01*
G01*
X253324543Y-34719671D02*
G75*
G02*
X252899929Y-34295128I-43J424571D01*
G01*
X154972890Y-35251700D02*
G75*
G02*
X154550000Y-34828810I10J422900D01*
G01*
X205250000Y-34825925D02*
G75*
G02*
X204824225Y-35251700I-425800J25D01*
G01*
X252900000Y-32826569D02*
G75*
G03*
X252475531Y-32402100I-424500J-31D01*
G01*
X270941930Y-50366100D02*
G75*
G03*
X271365700Y-49942330I-30J423800D01*
G01*
X154550000Y-34511627D02*
G75*
G03*
X154126673Y-34088300I-423300J27D01*
G01*
X261722550Y-52049400D02*
X286663100Y-52049400D01*
X135611700Y-54160200D02*
X135611700Y-58463723D01*
X118652611Y-54160200D02*
X135611700Y-54160200D01*
X117424500Y-70483090D02*
X117424500Y-77811834D01*
X230756300Y-58461334D02*
X230756300Y-57734624D01*
X118227482Y-56917182D02*
X118227482Y-54585329D01*
X279789900Y-101959525D02*
X279789900Y-97380200D01*
X115708400Y-57341600D02*
X115708400Y-52670535D01*
X115708400Y-57341600D02*
X117803064Y-57341600D01*
X252024332Y-54717200D02*
X260876743Y-54717200D01*
X231180480Y-57310444D02*
X251176146Y-57310444D01*
X117847266Y-78234600D02*
X124133700Y-78234600D01*
X291126335Y-52049400D02*
X286663100Y-52049400D01*
X274218600Y-102383500D02*
X279365925Y-102383500D01*
X291549300Y-44919737D02*
X291549300Y-51626435D01*
X115286200Y-52248335D02*
X112686610Y-52248335D01*
X291546575Y-44917012D02*
X291549300Y-44919737D01*
X251600500Y-56886090D02*
X251600500Y-55141032D01*
X136034177Y-58886200D02*
X230331434Y-58886200D01*
X115700000Y-57350000D02*
X115708400Y-57341600D01*
X261300000Y-54293943D02*
X261300000Y-52471950D01*
X117803064Y-57341600D02*
G75*
G03*
X118227500Y-56917182I36J424400D01*
G01*
X118227482Y-54585329D02*
G75*
G02*
X118652611Y-54160182I425118J29D01*
G01*
X230756300Y-57734624D02*
G75*
G02*
X231180480Y-57310400I424200J24D01*
G01*
X260876743Y-54717200D02*
G75*
G03*
X261300000Y-54293943I-43J423300D01*
G01*
X135611700Y-58463723D02*
G75*
G03*
X136034177Y-58886200I422500J23D01*
G01*
X115708400Y-52670535D02*
G75*
G03*
X115286200Y-52248300I-422200J35D01*
G01*
X230331434Y-58886200D02*
G75*
G03*
X230756300Y-58461334I-34J424900D01*
G01*
X261300000Y-52471950D02*
G75*
G02*
X261722550Y-52049400I422500J50D01*
G01*
X251176146Y-57310444D02*
G75*
G03*
X251600444Y-56886090I-46J424344D01*
G01*
X291549300Y-51626435D02*
G75*
G02*
X291126335Y-52049400I-423000J35D01*
G01*
X251600500Y-55141032D02*
G75*
G02*
X252024332Y-54717200I423800J32D01*
G01*
X279365925Y-102383500D02*
G75*
G03*
X279789900Y-101959525I-25J424000D01*
G01*
X117424500Y-77811834D02*
G75*
G03*
X117847266Y-78234600I422800J34D01*
G01*
X308494324Y-43750000D02*
X310749900Y-43750000D01*
X308495681Y-50350000D02*
X321883342Y-50350000D01*
X207581856Y-95663533D02*
X144013533Y-95663533D01*
X308072200Y-48106505D02*
X308072200Y-44172124D01*
X321968755Y-96800000D02*
X319593600Y-96800000D01*
X309586415Y-95048582D02*
X209066479Y-95048582D01*
X322400000Y-50866658D02*
X322400000Y-96368755D01*
X319593600Y-96800000D02*
X310432383Y-96800000D01*
X308072200Y-48106505D02*
X308072200Y-49926519D01*
X310008788Y-96376405D02*
X310008788Y-95470955D01*
X208390096Y-95328749D02*
G75*
G02*
X207581856Y-95663499I-808196J808249D01*
G01*
X310432383Y-96800000D02*
G75*
G02*
X310008800Y-96376405I17J423600D01*
G01*
X308072200Y-49926519D02*
G75*
G03*
X308495681Y-50350000I423500J19D01*
G01*
X144013533Y-95663533D02*
G75*
G02*
X143999967Y-95650000I-33J13533D01*
G01*
X209066479Y-95048582D02*
G75*
G03*
X208390113Y-95328766I21J-956518D01*
G01*
X322400000Y-96368755D02*
G75*
G02*
X321968755Y-96800000I-431200J-45D01*
G01*
X310008788Y-95470955D02*
G75*
G03*
X309586415Y-95048612I-422388J-45D01*
G01*
X321883342Y-50350000D02*
G75*
G02*
X322400000Y-50866658I-42J-516700D01*
G01*
X308072200Y-44172124D02*
G75*
G02*
X308494324Y-43750000I422100J24D01*
G01*
X154807181Y-23700000D02*
X142602693Y-23700000D01*
X155231500Y-25175780D02*
X155231500Y-24124319D01*
X142180000Y-23277307D02*
X142180000Y-19900000D01*
X163905900Y-25600000D02*
X155655720Y-25600000D01*
X155231500Y-24124319D02*
G75*
G03*
X154807181Y-23700000I-424300J19D01*
G01*
X142602693Y-23700000D02*
G75*
G02*
X142180000Y-23277307I7J422700D01*
G01*
X155655720Y-25600000D02*
G75*
G02*
X155231500Y-25175780I-20J424200D01*
G01*
X166620883Y-25174696D02*
X166620883Y-23485067D01*
X159838400Y-23519586D02*
X159838400Y-24547500D01*
X178405900Y-25600000D02*
X167046187Y-25600000D01*
X162632994Y-73842900D02*
X160481300Y-73842900D01*
X166196493Y-23060677D02*
X160297309Y-23060677D01*
X163055900Y-84102200D02*
X163055900Y-74265806D01*
X167046187Y-25600000D02*
G75*
G02*
X166620900Y-25174696I13J425300D01*
G01*
X160297309Y-23060677D02*
G75*
G03*
X159838377Y-23519586I-9J-458923D01*
G01*
X163055900Y-74265806D02*
G75*
G03*
X162632994Y-73842900I-422900J6D01*
G01*
X166620883Y-23485067D02*
G75*
G03*
X166196493Y-23060717I-424383J-33D01*
G01*
X139640000Y-26044299D02*
X139640000Y-19900000D01*
X154825526Y-26468300D02*
X140064001Y-26468300D01*
X163905900Y-30600000D02*
X155674119Y-30600000D01*
X155250000Y-30175881D02*
X155250000Y-26892774D01*
X155674119Y-30600000D02*
G75*
G02*
X155250000Y-30175881I-19J424100D01*
G01*
X140064001Y-26468300D02*
G75*
G02*
X139640000Y-26044299I-1J424000D01*
G01*
X155250000Y-26892774D02*
G75*
G03*
X154825526Y-26468300I-424500J-26D01*
G01*
X298973149Y-96800000D02*
X305093600Y-96800000D01*
X215429654Y-95780589D02*
X297308048Y-95780589D01*
X142450053Y-97123966D02*
X214584986Y-97123966D01*
X297858659Y-96008659D02*
X298421507Y-96571507D01*
X215008600Y-96700352D02*
X215008600Y-96201643D01*
X298421507Y-96571507D02*
X298424919Y-96572920D01*
X298424919Y-96572920D02*
G75*
G03*
X298973149Y-96799973I548181J548220D01*
G01*
X214584986Y-97123966D02*
G75*
G03*
X215008566Y-96700352I14J423566D01*
G01*
X297308048Y-95780589D02*
G75*
G02*
X297858641Y-96008677I-48J-778711D01*
G01*
X215008600Y-96201643D02*
G75*
G02*
X215429654Y-95780500I421100J43D01*
G01*
X181083682Y-24825418D02*
X181083682Y-20990719D01*
X180236979Y-20144016D02*
X158326958Y-20144016D01*
X156729151Y-21100000D02*
X145145393Y-21100000D01*
X327437487Y-25248944D02*
X181507208Y-25248944D01*
X144720000Y-20674607D02*
X144720000Y-19900000D01*
X157779021Y-20370979D02*
X157276874Y-20873126D01*
X327438605Y-25250062D02*
X327437487Y-25248944D01*
X181083682Y-20990719D02*
G75*
G03*
X180236979Y-20144018I-846682J19D01*
G01*
X157276874Y-20873126D02*
G75*
G02*
X156729151Y-21099965I-547674J547726D01*
G01*
X181507208Y-25248944D02*
G75*
G02*
X181083656Y-24825418I-8J423544D01*
G01*
X158326958Y-20144016D02*
G75*
G03*
X157779045Y-20371003I42J-774884D01*
G01*
X145145393Y-21100000D02*
G75*
G02*
X144720000Y-20674607I7J425400D01*
G01*
M02*
