M48
; DRILL file {KiCad 9.0.0} date 2025-03-01T00:44:01+0900
; FORMAT={-:-/ absolute / metric / decimal}
; #@! TF.CreationDate,2025-03-01T00:44:01+09:00
; #@! TF.GenerationSoftware,Kicad,Pcbnew,9.0.0
; #@! TF.FileFunction,NonPlated,1,2,NPTH
FMAT,2
METRIC
; #@! TA.AperFunction,NonPlated,NPTH,ComponentDrill
T1C0.600
; #@! TA.AperFunction,NonPlated,NPTH,ComponentDrill
T2C3.000
; #@! TA.AperFunction,NonPlated,NPTH,ComponentDrill
T3C5.000
%
G90
G05
T2
X18.963Y-36.884
X21.341Y-57.077
X23.289Y-78.015
X23.963Y-39.084
X26.341Y-59.277
X28.289Y-80.215
X38.308Y-37.128
X43.068Y-57.321
X43.186Y-39.587
X47.946Y-59.78
X49.778Y-78.258
X54.656Y-80.717
X55.364Y-108.947
X57.614Y-38.385
X60.505Y-110.793
X62.212Y-58.578
X62.357Y-41.095
X66.954Y-61.289
X69.084Y-79.514
X73.827Y-82.225
X76.828Y-40.65
X81.422Y-43.605
X81.589Y-60.843
X81.726Y-107.515
X86.183Y-63.798
X86.8Y-109.539
X88.298Y-81.779
X92.892Y-84.735
X96.357Y-43.485
X101.1Y-46.195
X101.119Y-63.678
X105.861Y-66.389
X107.827Y-84.614
X110.49Y-106.755
X112.57Y-87.324
X115.49Y-108.955
X116.008Y-45.293
X120.77Y-65.487
X120.886Y-47.752
X125.648Y-67.946
X127.479Y-86.422
X132.357Y-88.881
X147.356Y-53.457
X147.356Y-72.507
X147.356Y-91.557
X147.356Y-110.607
X152.356Y-55.657
X152.356Y-74.707
X152.356Y-93.757
X152.356Y-112.807
X166.406Y-53.457
X166.406Y-72.507
X166.406Y-91.557
X166.406Y-110.607
X171.406Y-55.657
X171.406Y-74.707
X171.406Y-93.757
X171.406Y-112.807
X185.456Y-53.457
X185.456Y-72.507
X185.456Y-91.557
X185.456Y-110.607
X190.456Y-55.657
X190.456Y-74.707
X190.456Y-93.757
X190.456Y-112.807
X205.435Y-86.946
X210.543Y-88.881
X212.307Y-66.011
X217.068Y-45.817
X217.415Y-67.946
X222.176Y-47.752
X222.41Y-106.755
X225.128Y-85.659
X227.41Y-108.955
X230.33Y-87.324
X231.999Y-64.723
X236.761Y-44.53
X237.201Y-66.389
X241.963Y-46.195
X244.725Y-83.344
X250.008Y-84.735
X251.18Y-107.166
X251.597Y-62.408
X256.1Y-109.539
X256.358Y-42.214
X256.88Y-63.798
X261.641Y-43.605
X263.87Y-80.56
X269.073Y-82.225
X270.743Y-59.624
X275.503Y-39.43
X275.946Y-61.289
X277.56Y-108.249
X280.706Y-41.095
X282.395Y-110.793
X283.135Y-78.782
X288.244Y-80.717
X290.008Y-57.845
X294.768Y-37.652
X295.117Y-59.78
X299.877Y-39.587
X309.611Y-78.015
X311.722Y-57.077
X314.1Y-36.884
X314.611Y-80.215
X316.722Y-59.277
X319.1Y-39.084
T3
X23.963Y-33.184
X26.341Y-53.377
X28.289Y-74.315
X43.495Y-33.695
X48.255Y-53.888
X54.965Y-74.825
X60.094Y-104.907
X62.973Y-35.228
X67.571Y-55.421
X74.444Y-76.357
X82.345Y-37.777
X86.594Y-103.643
X87.106Y-57.971
X93.815Y-78.907
X101.716Y-40.328
X106.478Y-60.521
X113.186Y-81.457
X115.49Y-103.055
X121.195Y-41.86
X125.957Y-62.054
X132.666Y-82.989
X152.356Y-49.757
X152.356Y-68.807
X152.356Y-87.857
X152.356Y-106.907
X171.406Y-49.757
X171.406Y-68.807
X171.406Y-87.857
X171.406Y-106.907
X190.456Y-49.757
X190.456Y-68.807
X190.456Y-87.857
X190.456Y-106.907
X210.234Y-82.989
X217.106Y-62.054
X221.868Y-41.86
X227.41Y-103.055
X229.713Y-81.457
X236.585Y-60.521
X241.346Y-40.328
X249.085Y-78.907
X255.957Y-57.971
X256.306Y-103.643
X260.718Y-37.777
X268.456Y-76.357
X275.329Y-55.421
X280.089Y-35.228
X282.806Y-104.907
X287.935Y-74.825
X294.808Y-53.888
X299.568Y-33.695
X314.611Y-74.315
X316.722Y-53.377
X319.1Y-33.184
T1
G00X28.513Y-27.634
M15
G01X29.413Y-27.634
M16
G05
G00X30.891Y-47.827
M15
G01X31.791Y-47.827
M16
G05
G00X32.839Y-68.765
M15
G01X33.739Y-68.765
M16
G05
G00X48.329Y-28.391
M15
G01X49.228Y-28.438
M16
G05
G00X53.089Y-48.584
M15
G01X53.988Y-48.631
M16
G05
G00X59.799Y-69.521
M15
G01X60.698Y-69.568
M16
G05
G00X64.245Y-99.053
M15
G01X65.143Y-98.991
M16
G05
G00X68.079Y-30.184
M15
G01X68.974Y-30.278
M16
G05
G00X72.676Y-50.377
M15
G01X73.571Y-50.471
M16
G05
G00X79.549Y-71.313
M15
G01X80.444Y-71.407
M16
G05
G00X87.707Y-33.008
M15
G01X88.596Y-33.148
M16
G05
G00X90.947Y-97.938
M15
G01X91.847Y-97.906
M16
G05
G00X92.468Y-53.201
M15
G01X93.357Y-53.342
M16
G05
G00X99.177Y-74.137
M15
G01X100.066Y-74.278
M16
G05
G00X106.822Y-35.284
M15
G01X107.717Y-35.378
M16
G05
G00X111.583Y-55.477
M15
G01X112.478Y-55.571
M16
G05
G00X118.292Y-76.413
M15
G01X119.187Y-76.507
M16
G05
G00X120.04Y-97.505
M15
G01X120.94Y-97.505
M16
G05
G00X126.029Y-36.556
M15
G01X126.928Y-36.603
M16
G05
G00X130.791Y-56.75
M15
G01X131.69Y-56.797
M16
G05
G00X137.5Y-77.685
M15
G01X138.399Y-77.732
M16
G05
G00X156.906Y-44.207
M15
G01X157.806Y-44.207
M16
G05
G00X156.906Y-63.257
M15
G01X157.806Y-63.257
M16
G05
G00X156.906Y-82.307
M15
G01X157.806Y-82.307
M16
G05
G00X156.906Y-101.357
M15
G01X157.806Y-101.357
M16
G05
G00X175.956Y-44.207
M15
G01X176.856Y-44.207
M16
G05
G00X175.956Y-63.257
M15
G01X176.856Y-63.257
M16
G05
G00X175.956Y-82.307
M15
G01X176.856Y-82.307
M16
G05
G00X175.956Y-101.357
M15
G01X176.856Y-101.357
M16
G05
G00X195.006Y-44.207
M15
G01X195.906Y-44.207
M16
G05
G00X195.006Y-63.257
M15
G01X195.906Y-63.257
M16
G05
G00X195.006Y-82.307
M15
G01X195.906Y-82.307
M16
G05
G00X195.006Y-101.357
M15
G01X195.906Y-101.357
M16
G05
G00X214.487Y-77.208
M15
G01X215.386Y-77.161
M16
G05
G00X221.359Y-56.274
M15
G01X222.258Y-56.226
M16
G05
G00X226.121Y-36.08
M15
G01X227.02Y-36.033
M16
G05
G00X231.96Y-97.505
M15
G01X232.86Y-97.505
M16
G05
G00X233.658Y-75.462
M15
G01X234.554Y-75.368
M16
G05
G00X240.53Y-54.526
M15
G01X241.425Y-54.432
M16
G05
G00X245.291Y-34.333
M15
G01X246.186Y-34.239
M16
G05
G00X252.711Y-72.714
M15
G01X253.599Y-72.573
M16
G05
G00X259.582Y-51.778
M15
G01X260.471Y-51.637
M16
G05
G00X261.047Y-98.255
M15
G01X261.947Y-98.287
M16
G05
G00X264.344Y-31.584
M15
G01X265.232Y-31.443
M16
G05
G00X272.401Y-70.362
M15
G01X273.296Y-70.268
M16
G05
G00X279.274Y-49.426
M15
G01X280.169Y-49.332
M16
G05
G00X284.034Y-29.232
M15
G01X284.929Y-29.138
M16
G05
G00X287.732Y-99.688
M15
G01X288.63Y-99.751
M16
G05
G00X292.188Y-69.045
M15
G01X293.087Y-68.998
M16
G05
G00X299.061Y-48.107
M15
G01X299.96Y-48.06
M16
G05
G00X303.821Y-27.914
M15
G01X304.72Y-27.867
M16
G05
G00X319.161Y-68.765
M15
G01X320.061Y-68.765
M16
G05
G00X321.272Y-47.827
M15
G01X322.172Y-47.827
M16
G05
G00X323.65Y-27.634
M15
G01X324.55Y-27.634
M16
G05
M30
