G04 #@! TF.GenerationSoftware,KiCad,Pcbnew,9.0.0*
G04 #@! TF.CreationDate,2025-03-01T00:43:59+09:00*
G04 #@! TF.ProjectId,tijuana_lp,74696a75-616e-4615-9f6c-702e6b696361,rev?*
G04 #@! TF.SameCoordinates,Original*
G04 #@! TF.FileFunction,Copper,L2,Bot*
G04 #@! TF.FilePolarity,Positive*
%FSLAX46Y46*%
G04 Gerber Fmt 4.6, Leading zero omitted, Abs format (unit mm)*
G04 Created by KiCad (PCBNEW 9.0.0) date 2025-03-01 00:43:59*
%MOMM*%
%LPD*%
G01*
G04 APERTURE LIST*
G04 Aperture macros list*
%AMRotRect*
0 Rectangle, with rotation*
0 The origin of the aperture is its center*
0 $1 length*
0 $2 width*
0 $3 Rotation angle, in degrees counterclockwise*
0 Add horizontal line*
21,1,$1,$2,0,0,$3*%
G04 Aperture macros list end*
G04 #@! TA.AperFunction,SMDPad,CuDef*
%ADD10R,0.950000X1.300000*%
G04 #@! TD*
G04 #@! TA.AperFunction,SMDPad,CuDef*
%ADD11RotRect,1.300000X0.950000X267.000000*%
G04 #@! TD*
G04 #@! TA.AperFunction,ComponentPad*
%ADD12C,2.000000*%
G04 #@! TD*
G04 #@! TA.AperFunction,ComponentPad*
%ADD13R,3.200000X2.500000*%
G04 #@! TD*
G04 #@! TA.AperFunction,WasherPad*
%ADD14C,3.100000*%
G04 #@! TD*
G04 #@! TA.AperFunction,SMDPad,CuDef*
%ADD15R,3.000000X3.500000*%
G04 #@! TD*
G04 #@! TA.AperFunction,SMDPad,CuDef*
%ADD16R,2.200000X0.820000*%
G04 #@! TD*
G04 #@! TA.AperFunction,SMDPad,CuDef*
%ADD17RotRect,3.000000X3.500000X174.000000*%
G04 #@! TD*
G04 #@! TA.AperFunction,SMDPad,CuDef*
%ADD18RotRect,2.200000X0.820000X6.000000*%
G04 #@! TD*
G04 #@! TA.AperFunction,SMDPad,CuDef*
%ADD19RotRect,2.200000X0.820000X4.000000*%
G04 #@! TD*
G04 #@! TA.AperFunction,SMDPad,CuDef*
%ADD20RotRect,1.300000X0.950000X93.000000*%
G04 #@! TD*
G04 #@! TA.AperFunction,SMDPad,CuDef*
%ADD21RotRect,3.000000X3.500000X183.000000*%
G04 #@! TD*
G04 #@! TA.AperFunction,SMDPad,CuDef*
%ADD22RotRect,1.300000X0.950000X96.000000*%
G04 #@! TD*
G04 #@! TA.AperFunction,SMDPad,CuDef*
%ADD23RotRect,2.200000X0.820000X171.000000*%
G04 #@! TD*
G04 #@! TA.AperFunction,SMDPad,CuDef*
%ADD24RotRect,1.300000X0.950000X272.000000*%
G04 #@! TD*
G04 #@! TA.AperFunction,SMDPad,CuDef*
%ADD25R,2.550000X3.500000*%
G04 #@! TD*
G04 #@! TA.AperFunction,SMDPad,CuDef*
%ADD26RotRect,3.000000X3.500000X186.000000*%
G04 #@! TD*
G04 #@! TA.AperFunction,SMDPad,CuDef*
%ADD27RotRect,3.000000X3.500000X176.000000*%
G04 #@! TD*
G04 #@! TA.AperFunction,SMDPad,CuDef*
%ADD28RotRect,3.000000X3.500000X184.000000*%
G04 #@! TD*
G04 #@! TA.AperFunction,SMDPad,CuDef*
%ADD29RotRect,2.200000X0.820000X3.000000*%
G04 #@! TD*
G04 #@! TA.AperFunction,SMDPad,CuDef*
%ADD30RotRect,2.200000X0.820000X174.000000*%
G04 #@! TD*
G04 #@! TA.AperFunction,SMDPad,CuDef*
%ADD31RotRect,2.200000X0.820000X357.000000*%
G04 #@! TD*
G04 #@! TA.AperFunction,SMDPad,CuDef*
%ADD32RotRect,2.200000X0.820000X177.000000*%
G04 #@! TD*
G04 #@! TA.AperFunction,SMDPad,CuDef*
%ADD33RotRect,1.300000X0.950000X261.000000*%
G04 #@! TD*
G04 #@! TA.AperFunction,SMDPad,CuDef*
%ADD34RotRect,2.200000X0.820000X2.000000*%
G04 #@! TD*
G04 #@! TA.AperFunction,SMDPad,CuDef*
%ADD35RotRect,1.300000X0.950000X264.000000*%
G04 #@! TD*
G04 #@! TA.AperFunction,SMDPad,CuDef*
%ADD36RotRect,3.000000X3.500000X177.000000*%
G04 #@! TD*
G04 #@! TA.AperFunction,SMDPad,CuDef*
%ADD37RotRect,3.000000X3.500000X171.000000*%
G04 #@! TD*
G04 #@! TA.AperFunction,SMDPad,CuDef*
%ADD38RotRect,1.300000X0.950000X99.000000*%
G04 #@! TD*
G04 #@! TA.AperFunction,SMDPad,CuDef*
%ADD39RotRect,2.200000X0.820000X176.000000*%
G04 #@! TD*
G04 #@! TA.AperFunction,SMDPad,CuDef*
%ADD40RotRect,3.000000X3.500000X189.000000*%
G04 #@! TD*
G04 #@! TA.AperFunction,SMDPad,CuDef*
%ADD41RotRect,1.300000X0.950000X86.000000*%
G04 #@! TD*
G04 #@! TA.AperFunction,SMDPad,CuDef*
%ADD42RotRect,2.200000X0.820000X9.000000*%
G04 #@! TD*
G04 #@! TA.AperFunction,SMDPad,CuDef*
%ADD43RotRect,3.000000X3.500000X182.000000*%
G04 #@! TD*
G04 #@! TA.AperFunction,SMDPad,CuDef*
%ADD44RotRect,2.200000X0.820000X186.000000*%
G04 #@! TD*
G04 #@! TA.AperFunction,SMDPad,CuDef*
%ADD45RotRect,2.200000X0.820000X189.000000*%
G04 #@! TD*
G04 #@! TA.AperFunction,SMDPad,CuDef*
%ADD46RotRect,3.000000X3.500000X178.000000*%
G04 #@! TD*
G04 #@! TA.AperFunction,SMDPad,CuDef*
%ADD47RotRect,2.200000X0.820000X351.000000*%
G04 #@! TD*
G04 #@! TA.AperFunction,SMDPad,CuDef*
%ADD48RotRect,2.200000X0.820000X183.000000*%
G04 #@! TD*
G04 #@! TA.AperFunction,SMDPad,CuDef*
%ADD49RotRect,2.200000X0.820000X354.000000*%
G04 #@! TD*
G04 #@! TA.AperFunction,SMDPad,CuDef*
%ADD50RotRect,1.300000X0.950000X274.000000*%
G04 #@! TD*
G04 #@! TA.AperFunction,SMDPad,CuDef*
%ADD51R,1.300000X0.950000*%
G04 #@! TD*
G04 #@! TA.AperFunction,SMDPad,CuDef*
%ADD52RotRect,2.200000X0.820000X178.000000*%
G04 #@! TD*
G04 #@! TA.AperFunction,ComponentPad*
%ADD53O,1.500000X2.500000*%
G04 #@! TD*
G04 #@! TA.AperFunction,ComponentPad*
%ADD54O,2.500000X1.500000*%
G04 #@! TD*
G04 #@! TA.AperFunction,ViaPad*
%ADD55C,0.800000*%
G04 #@! TD*
G04 #@! TA.AperFunction,Conductor*
%ADD56C,0.400000*%
G04 #@! TD*
G04 #@! TA.AperFunction,Conductor*
%ADD57C,0.200000*%
G04 #@! TD*
G04 APERTURE END LIST*
D10*
X34500000Y-72525000D03*
X34500000Y-76075000D03*
D11*
X132244596Y-60934433D03*
X132058804Y-64479567D03*
D12*
X23093600Y-96800000D03*
X23093600Y-101800000D03*
X23093600Y-99300000D03*
D13*
X30593600Y-93700000D03*
X30593600Y-104900000D03*
D12*
X37593600Y-101800000D03*
X37593600Y-96800000D03*
D14*
X166405900Y-110607200D03*
X171405900Y-112807200D03*
D15*
X163055900Y-110607200D03*
X174955900Y-112807200D03*
D10*
X324500000Y-101075000D03*
X324500000Y-97525000D03*
D16*
X29307300Y-47153900D03*
X23407300Y-47153900D03*
X23407300Y-48653900D03*
X29307300Y-48653900D03*
D14*
X57614135Y-38384789D03*
X62356782Y-41095379D03*
D17*
X54282487Y-38034618D03*
X65887335Y-41466455D03*
D18*
X232007744Y-74957550D03*
X226140064Y-75574268D03*
X226296856Y-77066050D03*
X232164536Y-76449332D03*
D10*
X158588000Y-47962400D03*
X158588000Y-51512400D03*
D19*
X62607796Y-98496245D03*
X56722169Y-98907809D03*
X56826804Y-100404155D03*
X62712431Y-99992591D03*
D16*
X174364000Y-43532300D03*
X168464000Y-43532300D03*
X168464000Y-45032300D03*
X174364000Y-45032300D03*
D14*
X107827135Y-84613889D03*
X112569782Y-87324479D03*
D17*
X104495487Y-84263718D03*
X116100335Y-87695555D03*
D20*
X294385096Y-76223467D03*
X294199304Y-72678333D03*
D16*
X149413200Y-64080400D03*
X155313200Y-64080400D03*
X155313200Y-62580400D03*
X149413200Y-62580400D03*
D18*
X243639344Y-33825350D03*
X237771664Y-34442068D03*
X237928456Y-35933850D03*
X243796136Y-35317132D03*
D14*
X290008495Y-57844509D03*
X295116782Y-59779814D03*
D21*
X286663086Y-58019835D03*
X298661917Y-59594022D03*
D22*
X236059338Y-82489576D03*
X235688262Y-78959024D03*
D23*
X80173793Y-32647685D03*
X86001155Y-33570648D03*
X86235807Y-32089115D03*
X80408445Y-31166152D03*
D24*
X92638053Y-101426081D03*
X92761947Y-104973919D03*
D14*
X18962900Y-36884200D03*
X23962900Y-39084200D03*
D25*
X15837900Y-36884200D03*
D15*
X27512900Y-39084200D03*
D10*
X196685900Y-89643300D03*
X196685900Y-86093300D03*
D14*
X231998746Y-64723373D03*
X237201318Y-66388679D03*
D26*
X228667095Y-65073544D03*
X240731871Y-66017603D03*
D14*
X101118835Y-63678089D03*
X105861482Y-66388679D03*
D17*
X97787187Y-63327918D03*
X109392035Y-66759755D03*
D14*
X277560481Y-108249405D03*
X282394837Y-110792828D03*
D27*
X274218641Y-108015720D03*
X285936189Y-111040463D03*
D16*
X322061200Y-26955600D03*
X316161200Y-26955600D03*
X316161200Y-28455600D03*
X322061200Y-28455600D03*
D14*
X55363879Y-108946969D03*
X60505163Y-110792828D03*
D28*
X52022039Y-109180654D03*
X64046516Y-110545192D03*
D18*
X282384044Y-28726350D03*
X276516364Y-29343068D03*
X276673156Y-30834850D03*
X282540836Y-30218132D03*
D14*
X311722000Y-57077000D03*
X316722000Y-59277000D03*
D15*
X308372000Y-57077000D03*
X320272000Y-59277000D03*
D14*
X166405900Y-53457200D03*
X171405900Y-55657200D03*
D15*
X163055900Y-53457200D03*
X174955900Y-55657200D03*
D29*
X290564905Y-68452336D03*
X284672991Y-68761119D03*
X284751495Y-70259064D03*
X290643409Y-69950281D03*
D30*
X110781946Y-76374832D03*
X116649626Y-76991550D03*
X116806418Y-75499768D03*
X110938738Y-74883050D03*
D31*
X129241009Y-55997419D03*
X123349095Y-55688636D03*
X123270591Y-57186581D03*
X129162505Y-57495364D03*
D32*
X129970691Y-78124381D03*
X135862605Y-78433164D03*
X135941109Y-76935219D03*
X130049195Y-76626436D03*
D33*
X100325071Y-78265153D03*
X99769729Y-81771447D03*
D34*
X89304757Y-97317233D03*
X83408350Y-97523141D03*
X83460699Y-99022227D03*
X89357106Y-98816319D03*
D35*
X108046638Y-39486024D03*
X107675562Y-43016576D03*
D10*
X177640900Y-108675000D03*
X177640900Y-105125000D03*
D11*
X138983796Y-81728133D03*
X138798004Y-85273267D03*
D30*
X60533264Y-30218632D03*
X66400944Y-30835350D03*
X66557736Y-29343568D03*
X60690056Y-28726850D03*
D16*
X193402790Y-81649528D03*
X187502790Y-81649528D03*
X187502790Y-83149528D03*
X193402790Y-83149528D03*
X174359300Y-81627900D03*
X168459300Y-81627900D03*
X168459300Y-83127900D03*
X174359300Y-83127900D03*
D14*
X49778409Y-78258449D03*
X54656418Y-80717114D03*
D36*
X46433000Y-78083124D03*
X58201553Y-80902907D03*
D14*
X43068009Y-57321149D03*
X47946018Y-59779814D03*
D36*
X39722600Y-57145824D03*
X51491153Y-59965607D03*
D14*
X110490400Y-106754700D03*
X115490400Y-108954700D03*
D15*
X107140400Y-106754700D03*
X119040400Y-108954700D03*
D35*
X80894438Y-75360924D03*
X80523362Y-78891476D03*
D16*
X168461700Y-64089000D03*
X174361700Y-64089000D03*
X174361700Y-62589000D03*
X168461700Y-62589000D03*
D10*
X177659200Y-86106800D03*
X177659200Y-89656800D03*
D20*
X223466796Y-63525767D03*
X223281004Y-59980633D03*
D14*
X76827751Y-40649675D03*
X81422037Y-43604761D03*
D37*
X73518995Y-40125619D03*
X84928330Y-44160104D03*
D32*
X40801591Y-28826481D03*
X46693505Y-29135264D03*
X46772009Y-27637319D03*
X40880095Y-27328536D03*
D14*
X217068195Y-45816809D03*
X222176482Y-47752114D03*
D21*
X213722786Y-45992135D03*
X225721617Y-47566322D03*
D14*
X120769909Y-65487349D03*
X125647918Y-67946014D03*
D36*
X117424500Y-65312024D03*
X129193053Y-68131807D03*
D20*
X228115796Y-43148267D03*
X227930004Y-39603133D03*
D30*
X72019664Y-71351932D03*
X77887344Y-71968650D03*
X78044136Y-70476868D03*
X72176456Y-69860150D03*
D14*
X166405900Y-91557200D03*
X171405900Y-93757200D03*
D15*
X163055900Y-91557200D03*
X174955900Y-93757200D03*
D35*
X73956938Y-54319424D03*
X73585862Y-57849976D03*
D11*
X61357996Y-73614333D03*
X61172204Y-77159467D03*
D14*
X225127646Y-85659173D03*
X230330218Y-87324479D03*
D26*
X221795995Y-86009344D03*
X233860771Y-86953403D03*
D38*
X255488071Y-79777347D03*
X254932729Y-76271053D03*
D39*
X280198869Y-99992791D03*
X286084497Y-100404355D03*
X286189131Y-98908009D03*
X280303503Y-98496445D03*
D16*
X118458100Y-96831100D03*
X112558100Y-96831100D03*
X112558100Y-98331100D03*
X118458100Y-98331100D03*
D14*
X205434595Y-86945609D03*
X210542882Y-88880914D03*
D21*
X202089186Y-87120935D03*
X214088017Y-88695122D03*
D14*
X127479109Y-86422249D03*
X132357118Y-88880914D03*
D36*
X124133700Y-86246924D03*
X135902253Y-89066707D03*
D10*
X196684500Y-51546200D03*
X196684500Y-47996200D03*
D14*
X185455900Y-53457200D03*
X190455900Y-55657200D03*
D15*
X182105900Y-53457200D03*
X194005900Y-55657200D03*
D35*
X69375638Y-34153224D03*
X69004562Y-37683776D03*
D14*
X251597066Y-62407619D03*
X256879663Y-63798361D03*
D40*
X248288310Y-62931675D03*
X260385957Y-63243019D03*
D14*
X270743146Y-59623773D03*
X275945718Y-61289079D03*
D26*
X267411495Y-59973944D03*
X279476271Y-60918003D03*
D14*
X147355900Y-53457200D03*
X152355900Y-55657200D03*
D15*
X144005900Y-53457200D03*
X155905900Y-55657200D03*
D14*
X283135295Y-78781809D03*
X288243582Y-80717114D03*
D21*
X279789886Y-78957135D03*
X291788717Y-80531322D03*
D16*
X224475800Y-98327500D03*
X230375800Y-98327500D03*
X230375800Y-96827500D03*
X224475800Y-96827500D03*
D11*
X54592896Y-52627433D03*
X54407104Y-56172567D03*
D41*
X262277782Y-105889376D03*
X262525418Y-102348024D03*
D14*
X69084335Y-79514489D03*
X73826982Y-82225079D03*
D17*
X65752687Y-79164318D03*
X77357535Y-82596155D03*
D14*
X185455900Y-72507200D03*
X190455900Y-74707200D03*
D15*
X182105900Y-72507200D03*
X194005900Y-74707200D03*
D14*
X256358166Y-42214019D03*
X261640763Y-43604761D03*
D40*
X253049410Y-42738075D03*
X265147057Y-43049419D03*
D14*
X309611200Y-78014800D03*
X314611200Y-80214800D03*
D15*
X306261200Y-78014800D03*
X318161200Y-80214800D03*
D16*
X313782200Y-48654900D03*
X319682200Y-48654900D03*
X319682200Y-47154900D03*
X313782200Y-47154900D03*
D10*
X177646000Y-47981300D03*
X177646000Y-51531300D03*
D14*
X116008209Y-45293449D03*
X120886218Y-47752114D03*
D36*
X112662800Y-45118124D03*
X124431353Y-47937907D03*
D42*
X251036055Y-72297352D03*
X245208693Y-73220315D03*
X245443345Y-74701848D03*
X251270707Y-73778885D03*
D10*
X325371200Y-34965700D03*
X325371200Y-31415700D03*
X322943200Y-55153900D03*
X322943200Y-51603900D03*
X32596700Y-51625000D03*
X32596700Y-55175000D03*
D14*
X21340800Y-57077000D03*
X26340800Y-59277000D03*
D15*
X17990800Y-57077000D03*
X29890800Y-59277000D03*
D10*
X182800000Y-26325000D03*
X182800000Y-29875000D03*
D16*
X187512500Y-64079400D03*
X193412500Y-64079400D03*
X193412500Y-62579400D03*
X187512500Y-62579400D03*
D14*
X81725774Y-107515244D03*
X86799507Y-109539406D03*
D43*
X78377815Y-107632157D03*
X90347344Y-109415513D03*
D44*
X233128955Y-56107082D03*
X238996635Y-55490364D03*
X238839843Y-53998582D03*
X232972163Y-54615300D03*
D22*
X242942738Y-61558676D03*
X242571662Y-58028124D03*
D14*
X62211635Y-58578489D03*
X66954282Y-61289079D03*
D17*
X58879987Y-58228318D03*
X70484835Y-61660155D03*
D14*
X81588851Y-60843275D03*
X86183137Y-63798361D03*
D37*
X78280095Y-60319219D03*
X89689430Y-64353704D03*
D14*
X88297951Y-81779475D03*
X92892237Y-84734561D03*
D37*
X84989195Y-81255419D03*
X96398530Y-85289904D03*
D45*
X252312245Y-53763748D03*
X258139607Y-52840785D03*
X257904955Y-51359252D03*
X252077593Y-52282215D03*
D14*
X236760546Y-44530173D03*
X241963118Y-46195479D03*
D26*
X233428895Y-44880344D03*
X245493671Y-45824403D03*
D20*
X216519496Y-84338667D03*
X216333704Y-80793533D03*
D42*
X262660955Y-31173552D03*
X256833593Y-32096515D03*
X257068245Y-33578048D03*
X262895607Y-32655085D03*
D10*
X41900000Y-97525000D03*
X41900000Y-101075000D03*
D14*
X185455900Y-91557200D03*
X190455900Y-93757200D03*
D15*
X182105900Y-91557200D03*
X194005900Y-93757200D03*
D10*
X158567900Y-67058100D03*
X158567900Y-70608100D03*
D16*
X21024500Y-28462000D03*
X26924500Y-28462000D03*
X26924500Y-26962000D03*
X21024500Y-26962000D03*
D22*
X286480238Y-36328676D03*
X286109162Y-32798124D03*
D29*
X212868605Y-76617436D03*
X206976691Y-76926219D03*
X207055195Y-78424164D03*
X212947109Y-78115381D03*
D14*
X23288800Y-78014800D03*
X28288800Y-80214800D03*
D15*
X19938800Y-78014800D03*
X31838800Y-80214800D03*
D14*
X251180318Y-107166249D03*
X256100493Y-109539406D03*
D46*
X247832358Y-107049335D03*
X259648330Y-109663299D03*
D29*
X302177494Y-27329276D03*
X296285580Y-27638059D03*
X296364084Y-29136004D03*
X302255998Y-28827221D03*
D32*
X52276391Y-69956281D03*
X58168305Y-70265064D03*
X58246809Y-68767119D03*
X52354895Y-68458336D03*
D35*
X112890938Y-59362924D03*
X112519862Y-62893476D03*
D29*
X224493805Y-35488836D03*
X218601891Y-35797619D03*
X218680395Y-37295564D03*
X224572309Y-36986781D03*
D14*
X244725166Y-83343819D03*
X250007763Y-84734561D03*
D40*
X241416410Y-83867875D03*
X253514057Y-84179219D03*
D11*
X127584596Y-40506933D03*
X127398804Y-44052067D03*
D10*
X320903300Y-76094700D03*
X320903300Y-72544700D03*
D16*
X25354100Y-69589100D03*
X31254100Y-69589100D03*
X31254100Y-68089100D03*
X25354100Y-68089100D03*
D33*
X88883571Y-36982053D03*
X88328229Y-40488347D03*
D14*
X294768395Y-37651609D03*
X299876682Y-39586914D03*
D21*
X291422986Y-37826935D03*
X303421817Y-39401122D03*
D47*
X91007907Y-52289015D03*
X85180545Y-51366052D03*
X84945893Y-52847585D03*
X90773255Y-53770548D03*
D18*
X270744444Y-69859150D03*
X264876764Y-70475868D03*
X265033556Y-71967650D03*
X270901236Y-71350932D03*
D14*
X212306595Y-66010709D03*
X217414882Y-67946014D03*
D21*
X208961186Y-66186035D03*
X220960017Y-67760222D03*
D10*
X158577900Y-86082200D03*
X158577900Y-89632200D03*
D38*
X262334571Y-58665847D03*
X261779229Y-55159553D03*
D14*
X275503446Y-39430073D03*
X280706018Y-41095379D03*
D26*
X272171795Y-39780244D03*
X284236571Y-40724303D03*
D16*
X149424300Y-102182500D03*
X155324300Y-102182500D03*
X155324300Y-100682500D03*
X149424300Y-100682500D03*
X193410600Y-43536300D03*
X187510600Y-43536300D03*
X187510600Y-45036300D03*
X193410600Y-45036300D03*
X317576500Y-68084800D03*
X311676500Y-68084800D03*
X311676500Y-69584800D03*
X317576500Y-69584800D03*
D48*
X213905070Y-57491729D03*
X219796984Y-57182946D03*
X219718480Y-55685001D03*
X213826566Y-55993784D03*
D14*
X222409600Y-106754700D03*
X227409600Y-108954700D03*
D15*
X219059600Y-106754700D03*
X230959600Y-108954700D03*
D23*
X91647893Y-73779785D03*
X97475255Y-74702748D03*
X97709907Y-73221215D03*
X91882545Y-72298252D03*
D49*
X71181736Y-49523368D03*
X65314056Y-48906650D03*
X65157264Y-50398432D03*
X71024944Y-51015150D03*
D10*
X30200000Y-31425000D03*
X30200000Y-34975000D03*
D14*
X263870446Y-80559773D03*
X269073018Y-82225079D03*
D26*
X260538795Y-80909944D03*
X272603571Y-81854003D03*
D14*
X147355900Y-91557200D03*
X152355900Y-93757200D03*
D15*
X144005900Y-91557200D03*
X155905900Y-93757200D03*
D10*
X158594400Y-105132200D03*
X158594400Y-108682200D03*
D16*
X155318200Y-81633600D03*
X149418200Y-81633600D03*
X149418200Y-83133600D03*
X155318200Y-83133600D03*
D22*
X281701938Y-56421676D03*
X281330862Y-52891124D03*
D14*
X166405900Y-72507200D03*
X171405900Y-74707200D03*
D15*
X163055900Y-72507200D03*
X174955900Y-74707200D03*
D10*
X196700000Y-108677700D03*
X196700000Y-105127700D03*
D33*
X93577671Y-57346853D03*
X93022329Y-60853147D03*
D50*
X66200583Y-102541925D03*
X66448217Y-106083275D03*
D32*
X118500691Y-36984381D03*
X124392605Y-37293164D03*
X124471109Y-35795219D03*
X118579195Y-35486436D03*
D30*
X99276864Y-35328032D03*
X105144544Y-35944750D03*
X105301336Y-34452968D03*
X99433656Y-33836250D03*
D38*
X267137671Y-38583147D03*
X266582329Y-35076853D03*
D10*
X177652000Y-67025000D03*
X177652000Y-70575000D03*
D14*
X96357035Y-43484889D03*
X101099682Y-46195479D03*
D17*
X93025387Y-43134718D03*
X104630235Y-46566555D03*
D14*
X147355900Y-72507200D03*
X152355900Y-74707200D03*
D15*
X144005900Y-72507200D03*
X155905900Y-74707200D03*
D51*
X108375000Y-18900000D03*
X111925000Y-18900000D03*
D20*
X301214796Y-55285067D03*
X301029004Y-51739933D03*
D10*
X121668400Y-101279700D03*
X121668400Y-104829700D03*
D52*
X253542822Y-98814389D03*
X259439229Y-99020297D03*
X259491578Y-97521211D03*
X253595171Y-97315303D03*
D12*
X305093600Y-96800000D03*
X305093600Y-101800000D03*
X305093600Y-99300000D03*
D13*
X312593600Y-93700000D03*
X312593600Y-104900000D03*
D12*
X319593600Y-101800000D03*
X319593600Y-96800000D03*
X163905900Y-25600000D03*
X163905900Y-30600000D03*
X163905900Y-28100000D03*
D13*
X171405900Y-22500000D03*
X171405900Y-33700000D03*
D12*
X178405900Y-30600000D03*
X178405900Y-25600000D03*
D31*
X51531909Y-47831719D03*
X45639995Y-47522936D03*
X45561491Y-49020881D03*
X51453405Y-49329664D03*
D10*
X196723000Y-70575000D03*
X196723000Y-67025000D03*
D11*
X49892896Y-32327433D03*
X49707104Y-35872567D03*
D16*
X187512900Y-102190400D03*
X193412900Y-102190400D03*
X193412900Y-100690400D03*
X187512900Y-100690400D03*
D35*
X119610038Y-80397624D03*
X119238962Y-83928176D03*
D49*
X110079436Y-54635168D03*
X104211756Y-54018450D03*
X104054964Y-55510232D03*
X109922644Y-56126950D03*
D41*
X288920583Y-107097777D03*
X289168217Y-103556423D03*
D14*
X314099900Y-36884200D03*
X319099900Y-39084200D03*
D15*
X310749900Y-36884200D03*
X322649900Y-39084200D03*
D16*
X168457200Y-102185400D03*
X174357200Y-102185400D03*
X174357200Y-100685400D03*
X168457200Y-100685400D03*
D14*
X38308109Y-37128249D03*
X43186118Y-39586914D03*
D36*
X34962700Y-36952924D03*
X46731253Y-39772707D03*
D48*
X291620095Y-49320764D03*
X297512009Y-49011981D03*
X297433505Y-47514036D03*
X291541591Y-47822819D03*
D44*
X271902656Y-51027850D03*
X277770336Y-50411132D03*
X277613544Y-48919350D03*
X271745864Y-49536068D03*
D14*
X147355900Y-110607200D03*
X152355900Y-112807200D03*
D15*
X144005900Y-110607200D03*
X155905900Y-112807200D03*
D14*
X185455900Y-110607200D03*
X190455900Y-112807200D03*
D15*
X182105900Y-110607200D03*
X194005900Y-112807200D03*
D16*
X155308892Y-43522265D03*
X149408892Y-43522265D03*
X149408892Y-45022265D03*
X155308892Y-45022265D03*
D10*
X233664000Y-104823400D03*
X233664000Y-101273400D03*
D22*
X247718138Y-41272376D03*
X247347062Y-37741824D03*
D20*
X305950597Y-35083168D03*
X305764803Y-31538032D03*
D22*
X274840238Y-77550276D03*
X274469162Y-74019724D03*
D53*
X132020000Y-35640000D03*
X134560000Y-35640000D03*
X137100000Y-35640000D03*
X139640000Y-35640000D03*
X142180000Y-35640000D03*
X144720000Y-35640000D03*
X147260000Y-35640000D03*
X149800000Y-35640000D03*
X152340000Y-35640000D03*
D54*
X152840000Y-32600000D03*
X152840000Y-30060000D03*
X152840000Y-27520000D03*
X152840000Y-24980000D03*
X152840000Y-22440000D03*
D53*
X152340000Y-19400000D03*
X149800000Y-19400000D03*
X147260000Y-19400000D03*
X144720000Y-19400000D03*
X142180000Y-19400000D03*
X139640000Y-19400000D03*
X137100000Y-19400000D03*
X134560000Y-19400000D03*
X132020000Y-19400000D03*
D55*
X275782300Y-72159166D03*
X253957057Y-90590912D03*
X72484273Y-67730369D03*
X236100000Y-76488627D03*
X168800000Y-60100000D03*
X67100000Y-100000000D03*
X63607371Y-71127992D03*
X252423300Y-50267600D03*
X118134450Y-99814758D03*
X213500000Y-82150000D03*
X187940500Y-98033900D03*
X297800000Y-70971588D03*
X180094000Y-60099620D03*
X306450000Y-71050000D03*
X147562000Y-98033900D03*
X136079716Y-60091739D03*
X97138503Y-100464462D03*
X149760594Y-60091739D03*
X235489600Y-50267600D03*
X196684500Y-39697400D03*
X48756400Y-30223000D03*
X268700000Y-33518791D03*
X174389995Y-30931860D03*
X174383800Y-39697400D03*
X244250000Y-37271800D03*
X308050000Y-33500000D03*
X129350000Y-32505000D03*
X108046600Y-37281900D03*
X31197200Y-30182300D03*
X229981700Y-38786600D03*
X303450000Y-33500000D03*
X66800000Y-33300000D03*
X284259269Y-32147640D03*
X283440145Y-63989984D03*
X92597493Y-54966372D03*
X161000000Y-65539000D03*
X131306200Y-58583100D03*
X194393081Y-68680130D03*
X54647500Y-50355500D03*
X305855600Y-61631500D03*
X259700000Y-58400000D03*
X179000000Y-63379400D03*
X73963163Y-52236957D03*
X244754400Y-60198493D03*
X114528700Y-55724300D03*
X294350000Y-84950000D03*
X83300000Y-75850000D03*
X139955500Y-79819900D03*
X252429215Y-75776185D03*
X116650000Y-79850000D03*
X237330400Y-75655400D03*
X140700400Y-27521600D03*
X58891451Y-73623693D03*
X156429375Y-85338843D03*
X271500000Y-73300000D03*
X193900000Y-84750000D03*
X216346332Y-78276984D03*
X38015409Y-71692143D03*
X143580300Y-24983200D03*
X178545500Y-102633400D03*
X160928674Y-103332486D03*
X125150000Y-102300000D03*
X146947700Y-102244800D03*
X250258800Y-99370000D03*
X168950000Y-79250000D03*
X148651675Y-40722549D03*
X62612660Y-72002875D03*
X82100000Y-73250000D03*
X156043772Y-70411248D03*
X23757300Y-42891600D03*
X238130400Y-99370000D03*
X294887933Y-67240572D03*
X302200400Y-68084800D03*
X38962043Y-99260649D03*
X53118300Y-99260649D03*
X76800000Y-101650000D03*
X82100000Y-86650000D03*
X131630187Y-40722549D03*
X318775100Y-65542800D03*
X45989500Y-45554900D03*
X150745000Y-31010000D03*
X124121600Y-31010000D03*
X31350000Y-26775747D03*
X36075736Y-26775747D03*
X21526500Y-37830311D03*
X19446071Y-31822667D03*
X32094200Y-46203074D03*
X43827600Y-46198500D03*
X90662200Y-50432700D03*
X99829800Y-50870612D03*
X129294800Y-46850000D03*
X149779300Y-46850000D03*
X163650000Y-42350000D03*
X158002100Y-42407000D03*
X194968000Y-37620600D03*
X214800000Y-37618800D03*
X262262836Y-52749400D03*
X268905885Y-52749400D03*
X193055144Y-59962603D03*
X211269200Y-61439700D03*
X135591600Y-62688400D03*
X145250000Y-62650000D03*
X62600000Y-68750000D03*
X68850000Y-68750000D03*
X50550900Y-66174500D03*
X32813800Y-66174500D03*
X39444300Y-84300000D03*
X53820026Y-84313882D03*
X66300000Y-97214660D03*
X79570266Y-99024266D03*
X144705900Y-83100000D03*
X136300000Y-93050000D03*
X185645345Y-78666624D03*
X178574300Y-81635480D03*
X231659700Y-72930500D03*
X242116400Y-74650000D03*
X253507940Y-70991848D03*
X261238800Y-70950000D03*
X303750000Y-69150000D03*
X295743655Y-69151490D03*
X248008483Y-98544752D03*
X235150000Y-96600000D03*
X200055603Y-98342778D03*
X219759600Y-98337536D03*
X177880300Y-98835600D03*
X186112800Y-98835600D03*
X182059804Y-96389298D03*
X137650000Y-95679400D03*
X130589800Y-39793100D03*
X140700000Y-39800000D03*
X182049000Y-102614800D03*
X182125472Y-49069966D03*
X163047481Y-105628913D03*
X20814600Y-31177034D03*
X142192100Y-94300000D03*
X183770576Y-79506099D03*
X134571365Y-49978906D03*
X203305800Y-32195400D03*
X185411000Y-102766000D03*
X183800000Y-106100000D03*
X202089200Y-79507900D03*
X39433800Y-49715100D03*
X205876300Y-75839700D03*
X218919600Y-84300000D03*
X228667100Y-58184400D03*
X57904210Y-46007800D03*
X233428900Y-50810000D03*
X221796000Y-81000000D03*
X228568400Y-70915700D03*
X248288300Y-56449800D03*
X59126300Y-43163700D03*
X251086200Y-35791600D03*
X248288300Y-71185200D03*
X139640000Y-31805000D03*
X71576500Y-30212600D03*
X72305600Y-43163700D03*
X250142900Y-52983300D03*
X240550000Y-73950000D03*
X97787200Y-69118700D03*
X100999500Y-50810000D03*
X105656200Y-70764200D03*
X104495500Y-80046600D03*
X272169040Y-34717749D03*
X271365700Y-48406500D03*
X138588300Y-50810000D03*
X267411500Y-50366100D03*
X107689700Y-76800000D03*
X117424500Y-70483090D03*
X112686610Y-52248335D03*
X279789900Y-97380200D03*
X135611700Y-54160200D03*
X274218600Y-102383500D03*
X286663100Y-52049400D03*
X115700000Y-57350000D03*
X291546575Y-44917012D03*
X124133700Y-78234600D03*
X144000000Y-95650000D03*
X310749900Y-43750000D03*
X308072200Y-48106505D03*
X160481300Y-73842900D03*
X163055900Y-84102200D03*
X159838400Y-24547500D03*
X142450053Y-97123966D03*
X327438605Y-25250062D03*
D56*
X132020000Y-19900000D02*
X132020000Y-18900000D01*
X132020000Y-18900000D02*
X111925000Y-18900000D01*
X236097290Y-76485917D02*
X236100000Y-76488627D01*
X154972127Y-45035500D02*
X154958892Y-45022265D01*
X224222790Y-37005100D02*
X224222789Y-37005099D01*
X114000000Y-72135375D02*
X114000000Y-72154845D01*
X108375000Y-18900000D02*
X101450000Y-18900000D01*
X161095227Y-83300495D02*
X159516605Y-83300495D01*
X89645632Y-72353034D02*
X92228236Y-72353004D01*
X62363300Y-100017000D02*
X67083000Y-100017000D01*
X264345374Y-65819506D02*
X264345374Y-50293644D01*
X29842789Y-56800000D02*
X24563571Y-56800000D01*
X219600000Y-45738639D02*
X219600000Y-51842668D01*
X149763200Y-62580400D02*
X149763200Y-60094345D01*
X61038100Y-28165603D02*
X61038100Y-28763400D01*
X92228200Y-70523795D02*
X92228200Y-72353000D01*
X67100000Y-82933562D02*
X67100000Y-100000000D01*
X32122206Y-25710301D02*
X32122205Y-25710300D01*
X80754100Y-31220900D02*
X80754100Y-28415292D01*
X242885039Y-37005100D02*
X231765600Y-37005100D01*
X180878190Y-46288006D02*
X180878196Y-46288000D01*
X99781700Y-33872800D02*
X99781700Y-28389377D01*
X258242054Y-90592000D02*
X274995562Y-90592000D01*
X270275617Y-49499503D02*
X270468913Y-49499503D01*
X264345374Y-50293644D02*
X264345374Y-50292157D01*
X193060600Y-45723656D02*
X193060600Y-45036300D01*
X114763764Y-72899120D02*
X114763784Y-72899100D01*
X97138503Y-100464462D02*
X97138478Y-99397263D01*
X289431800Y-31117733D02*
X289431800Y-47242006D01*
X180094000Y-62014742D02*
X180094000Y-47074555D01*
X263551259Y-49499500D02*
X263551275Y-49499516D01*
X40438584Y-25710300D02*
X40438589Y-25710295D01*
X129604061Y-72899094D02*
X131181508Y-72899094D01*
X306860700Y-29396044D02*
X306860700Y-29525910D01*
X315324658Y-30323900D02*
X307658728Y-30323900D01*
X161095227Y-83300495D02*
X161095232Y-83300500D01*
X108939509Y-20500200D02*
X118363862Y-20500200D01*
X197568300Y-97474499D02*
X197568300Y-91702910D01*
X29107326Y-48803926D02*
X32334794Y-48803926D01*
X179307476Y-46288000D02*
X179307482Y-46288006D01*
X214201300Y-52969351D02*
X214201300Y-55976800D01*
X114763784Y-72899100D02*
X129604055Y-72899100D01*
X28957300Y-48653900D02*
X29107326Y-48803926D01*
X265138031Y-49499500D02*
X268735395Y-49499500D01*
X64171433Y-82370300D02*
X66536738Y-82370300D01*
X83850000Y-60764054D02*
X83850015Y-60764069D01*
X42016220Y-25710295D02*
X42016225Y-25710300D01*
X149763200Y-60089133D02*
X149763200Y-53767332D01*
X306860700Y-29525910D02*
X306860706Y-29525916D01*
X155741787Y-52641652D02*
X155741787Y-45035500D01*
X51103885Y-49311346D02*
X51103885Y-49386587D01*
X83058504Y-67730369D02*
X72484273Y-67730369D01*
X198359782Y-90921400D02*
X198349810Y-90921400D01*
X314132200Y-45533735D02*
X314132200Y-47154900D01*
X52704400Y-68476700D02*
X52704400Y-64958948D01*
X252423300Y-50267600D02*
X252423300Y-52227500D01*
X197568300Y-83696273D02*
X197568300Y-90129850D01*
X56850759Y-64395500D02*
X55289500Y-64395500D01*
X89044500Y-98833800D02*
X96575002Y-98833800D01*
X56065850Y-49949538D02*
X56065850Y-63610565D01*
X187940500Y-98033900D02*
X187940500Y-100612800D01*
X56065850Y-63610565D02*
X56065850Y-63619150D01*
X301938900Y-29760662D02*
X301938900Y-28845700D01*
X269500000Y-48723898D02*
X269500000Y-48734895D01*
X135517354Y-57681778D02*
X129017717Y-57681778D01*
X161086195Y-98033900D02*
X168246470Y-98033900D01*
X168800000Y-60100000D02*
X168800000Y-62577300D01*
X63607371Y-71127992D02*
X63607371Y-81806238D01*
X118108100Y-98331100D02*
X118108100Y-99788408D01*
X114763764Y-72899120D02*
X113255765Y-72899120D01*
X219036468Y-52406200D02*
X214764451Y-52406200D01*
X150325565Y-53204967D02*
X155178472Y-53204967D01*
X118928700Y-21065038D02*
X118928700Y-35504800D01*
X72484273Y-67730369D02*
X72524500Y-67770596D01*
X159516600Y-83300500D02*
X155135100Y-83300500D01*
X253945000Y-97327500D02*
X253945000Y-90592000D01*
X136079716Y-60091739D02*
X134513727Y-60091739D01*
X306450000Y-71050000D02*
X316669248Y-71050000D01*
X40438589Y-25710295D02*
X42016220Y-25710295D01*
X79944008Y-27605200D02*
X61598503Y-27605200D01*
X32122205Y-25710300D02*
X21934751Y-25710300D01*
X62869800Y-64395500D02*
X56850759Y-64395500D01*
X67083000Y-100017000D02*
X67100000Y-100000000D01*
X98997511Y-27605200D02*
X98998226Y-27605200D01*
X130398715Y-76644754D02*
X130398715Y-73693707D01*
X57963928Y-28763435D02*
X61038139Y-28763435D01*
X174576180Y-46288000D02*
X179307476Y-46288000D01*
X84641775Y-61555800D02*
X89864063Y-61555800D01*
X90427600Y-60992263D02*
X90427600Y-53715800D01*
X253957057Y-90590912D02*
X253958145Y-90592000D01*
X290293889Y-69968599D02*
X290293889Y-70408784D01*
X41229615Y-26501285D02*
X41229615Y-26496910D01*
X160304400Y-97244104D02*
X160304400Y-84091292D01*
X28957300Y-48653900D02*
X28957300Y-49687250D01*
X270275617Y-49499503D02*
X268735398Y-49499503D01*
X256679861Y-90591997D02*
X258242051Y-90591997D01*
X110135393Y-61100000D02*
X113435693Y-61100000D01*
X306860706Y-29525916D02*
X306860706Y-31118754D01*
X147562000Y-98033900D02*
X159514580Y-98033900D01*
X83850015Y-60764069D02*
X83850015Y-62330700D01*
X63607371Y-71127992D02*
X63607371Y-65133071D01*
X282261936Y-30323900D02*
X288637933Y-30323900D01*
X306310195Y-28845539D02*
X301906478Y-28845539D01*
X32894200Y-26487939D02*
X32894200Y-26482295D01*
X233320246Y-54578715D02*
X233320246Y-53464004D01*
X193052790Y-83149528D02*
X193068218Y-83134100D01*
X265138015Y-49499516D02*
X265138031Y-49499500D01*
X81541705Y-27605200D02*
X98997511Y-27605200D01*
X130398715Y-73693707D02*
X130398715Y-73681899D01*
X263551275Y-49499516D02*
X265138015Y-49499516D01*
X111286821Y-74919635D02*
X109337267Y-74919635D01*
X160304400Y-84091292D02*
X160304400Y-84088300D01*
X101439266Y-18900000D02*
X100343618Y-18900022D01*
X84633491Y-67730369D02*
X88518374Y-67730369D01*
X33671836Y-25710301D02*
X33671837Y-25710300D01*
X180878196Y-46288000D02*
X192496256Y-46288000D01*
X113255765Y-72899120D02*
X113255745Y-72899100D01*
X256675621Y-73833600D02*
X256682183Y-73833600D01*
X101450000Y-18900000D02*
X101439266Y-18900000D01*
X41229615Y-27346854D02*
X41229615Y-26501285D01*
X99781700Y-28389377D02*
X99781700Y-26821726D01*
X33686683Y-33381200D02*
X33683104Y-33381200D01*
X131181508Y-72899094D02*
X131181514Y-72899100D01*
X306860700Y-31118760D02*
X306860700Y-44408271D01*
X257461498Y-74612915D02*
X257461500Y-74612917D01*
X83058504Y-67730369D02*
X84633491Y-67730369D01*
X81541705Y-27605200D02*
X81541698Y-27605193D01*
X257461498Y-73047730D02*
X257461500Y-73047728D01*
X219719600Y-96263537D02*
X219719600Y-82712729D01*
X257461500Y-74612917D02*
X257461500Y-89810340D01*
X321150975Y-29745331D02*
X316721424Y-29745331D01*
X256679858Y-90592000D02*
X256679861Y-90591997D01*
X275782307Y-89805238D02*
X275782307Y-91372092D01*
X159516605Y-83300495D02*
X159516600Y-83300500D01*
X99781700Y-19461952D02*
X99781700Y-26821726D01*
X30405400Y-50814248D02*
X30405400Y-56237389D01*
X213500000Y-82150000D02*
X213500000Y-78133699D01*
X197568278Y-90129872D02*
X197568278Y-91702888D01*
X187862500Y-62579400D02*
X180658658Y-62579400D01*
X161095232Y-83300500D02*
X164240992Y-83300500D01*
X180094000Y-47074555D02*
X180094000Y-47072196D01*
X149763200Y-60094345D02*
X149760594Y-60091739D01*
X193068218Y-83134100D02*
X197006127Y-83134100D01*
X113255745Y-72899100D02*
X111827185Y-72899100D01*
X307658728Y-30323900D02*
X307655560Y-30323900D01*
X111267000Y-73459285D02*
X111267000Y-75001600D01*
X165320092Y-84379600D02*
X173447850Y-84379600D01*
X281627250Y-31884494D02*
X278109431Y-31884494D01*
X57400000Y-26271484D02*
X57400000Y-28199507D01*
X231765587Y-37005087D02*
X230193677Y-37005087D01*
X89081349Y-68293344D02*
X89081349Y-71788757D01*
X275782300Y-72159166D02*
X275782300Y-89805231D01*
X289431800Y-31117733D02*
X289431800Y-31117700D01*
X219156871Y-82150000D02*
X213500000Y-82150000D01*
X40430638Y-49953745D02*
X40430638Y-33944226D01*
X317226500Y-69584800D02*
X317226500Y-70492748D01*
X290225595Y-30323895D02*
X290225600Y-30323900D01*
X174014000Y-45032300D02*
X174014000Y-45725820D01*
X270468913Y-49499503D02*
X270468916Y-49499500D01*
X21374500Y-26270551D02*
X21374500Y-26962000D01*
X187940500Y-98033900D02*
X197008899Y-98033900D01*
X268735398Y-49499503D02*
X268735395Y-49499500D01*
X136079716Y-60091739D02*
X136079716Y-58244140D01*
X81541705Y-27605200D02*
X79944008Y-27605200D01*
X257461498Y-73047730D02*
X257461498Y-74612915D01*
X83850000Y-62330715D02*
X83850000Y-66938885D01*
X51103900Y-49338500D02*
X51103900Y-49311300D01*
X225250000Y-37005099D02*
X225250000Y-44613150D01*
X243448100Y-35353700D02*
X243448100Y-36442039D01*
X269500000Y-33482574D02*
X269500000Y-48723898D01*
X288637933Y-30323900D02*
X288637938Y-30323895D01*
X208462253Y-86304000D02*
X212952373Y-86304000D01*
X275782300Y-97957375D02*
X275782300Y-91372099D01*
X29520050Y-50250000D02*
X29841152Y-50250000D01*
X83850000Y-56922659D02*
X83850000Y-60764054D01*
X257461500Y-89810340D02*
X257461500Y-89811446D01*
X306860706Y-31118754D02*
X306860700Y-31118760D01*
X231816453Y-76485917D02*
X236097290Y-76485917D01*
X224687950Y-45175200D02*
X220163439Y-45175200D01*
X252423300Y-50267600D02*
X252423300Y-50060500D01*
X39867612Y-33381200D02*
X33686683Y-33381200D01*
X159514580Y-98033900D02*
X161086195Y-98033900D01*
X276458845Y-32709800D02*
X270280179Y-32709800D01*
X108778131Y-74360499D02*
X108778131Y-70525170D01*
X51103885Y-49386587D02*
X55502899Y-49386587D01*
X275782300Y-89805231D02*
X275782307Y-89805238D01*
X290225600Y-30323900D02*
X301375662Y-30323900D01*
X277401033Y-32177912D02*
X277159235Y-32419699D01*
X168807200Y-100685400D02*
X168807200Y-98594630D01*
X99781700Y-28389377D02*
X99781697Y-28389374D01*
X83850000Y-66938885D02*
X83850000Y-66946878D01*
X50543872Y-50517400D02*
X40994293Y-50517400D01*
X149760594Y-60091739D02*
X149763200Y-60089133D01*
X79343074Y-56358900D02*
X83286241Y-56358900D01*
X72524500Y-69896641D02*
X72524539Y-69896735D01*
X198359782Y-90921400D02*
X207338271Y-90921400D01*
X71783517Y-51436957D02*
X78217779Y-51436957D01*
X108215461Y-69962500D02*
X92789495Y-69962500D01*
X33671837Y-25710300D02*
X40438584Y-25710300D01*
X213500000Y-85756373D02*
X213500000Y-82150000D01*
X253958145Y-90592000D02*
X256679858Y-90592000D01*
X128813000Y-57477000D02*
X128813000Y-57681778D01*
X230976600Y-37794052D02*
X230976600Y-54036252D01*
X252984300Y-49499500D02*
X263551259Y-49499500D01*
X174009300Y-83818150D02*
X174009300Y-83127900D01*
X160304400Y-97244104D02*
X160304400Y-97252105D01*
X32894200Y-34170104D02*
X32894200Y-26487939D01*
X159514580Y-98033900D02*
X159514585Y-98033905D01*
X24000000Y-57363571D02*
X24000000Y-67483131D01*
X224222790Y-37005100D02*
X230193664Y-37005100D01*
X288637938Y-30323895D02*
X290225595Y-30323895D01*
X133950000Y-60655466D02*
X133950000Y-72337485D01*
X272093900Y-49499500D02*
X270468916Y-49499500D01*
X108375000Y-18900000D02*
X108375000Y-19935691D01*
X231765600Y-37005100D02*
X231765587Y-37005087D01*
X114000000Y-61664307D02*
X114000000Y-72135375D01*
X231540248Y-54599900D02*
X233368900Y-54599900D01*
X307423084Y-44970655D02*
X313569120Y-44970655D01*
X25704100Y-68089100D02*
X24605969Y-68089100D01*
X213500000Y-78133699D02*
X212597589Y-78133699D01*
X207900000Y-90359671D02*
X207900000Y-86866253D01*
X270280179Y-32709800D02*
X268727226Y-32709800D01*
X109574561Y-56090365D02*
X109574561Y-60539168D01*
X72484273Y-67730369D02*
X72484273Y-69799524D01*
X179307482Y-46288006D02*
X180878190Y-46288006D01*
X56850759Y-64395500D02*
X56850743Y-64395484D01*
X53267848Y-64395500D02*
X55289500Y-64395500D01*
X282192753Y-30254717D02*
X282192742Y-31319008D01*
X42016225Y-25710300D02*
X56838816Y-25710300D01*
X250925000Y-73833600D02*
X256675621Y-73833600D01*
X271315636Y-72150000D02*
X275773134Y-72150000D01*
X269500000Y-33489979D02*
X269500000Y-33482574D01*
X51103885Y-49311346D02*
X51103860Y-49957433D01*
X32894200Y-48244520D02*
X32894200Y-34170104D01*
X230976600Y-37794052D02*
X230976600Y-37788036D01*
X147562000Y-98033900D02*
X147562000Y-100120069D01*
X197568300Y-90129850D02*
X197568278Y-90129872D01*
X129604055Y-72899100D02*
X129604061Y-72899094D01*
X289994294Y-47804500D02*
X291891100Y-47804500D01*
X258023258Y-66382551D02*
X263782329Y-66382551D01*
X78780300Y-51999478D02*
X78780300Y-55796126D01*
X155741787Y-45035500D02*
X154972127Y-45035500D01*
X149774300Y-100682500D02*
X148124431Y-100682500D01*
X235489600Y-52337422D02*
X235489600Y-50267600D01*
X83850015Y-62330700D02*
X83850000Y-62330715D01*
X297800000Y-70971588D02*
X290856692Y-70971588D01*
X275782307Y-91372092D02*
X275782300Y-91372099D01*
X133388385Y-72899100D02*
X131181514Y-72899100D01*
X257461500Y-73047728D02*
X257461500Y-66944309D01*
X224222789Y-37005099D02*
X225250000Y-37005099D01*
X233884650Y-52899600D02*
X234927422Y-52899600D01*
X224825800Y-96827500D02*
X220283563Y-96827500D01*
X274995562Y-90592000D02*
X275002201Y-90592000D01*
X321711200Y-28455600D02*
X321711200Y-29185106D01*
X83058504Y-67730369D02*
X83058506Y-67730371D01*
X262549900Y-32709800D02*
X268727226Y-32709800D01*
X280652700Y-98520900D02*
X276345825Y-98520900D01*
X258242051Y-90591997D02*
X258242054Y-90592000D01*
X230193677Y-37005087D02*
X230193664Y-37005100D01*
X33671836Y-25710301D02*
X32122206Y-25710301D01*
X197568278Y-91702888D02*
X197568300Y-91702910D01*
X88518374Y-67730369D02*
G75*
G02*
X89081331Y-68293344I26J-562931D01*
G01*
X83850015Y-60764069D02*
G75*
G03*
X84641775Y-61555785I791785J69D01*
G01*
X307655560Y-30323900D02*
G75*
G03*
X306860700Y-31118760I40J-794900D01*
G01*
X24000000Y-67483131D02*
G75*
G03*
X24605969Y-68089100I606000J31D01*
G01*
X40438589Y-25710295D02*
G75*
G02*
X41229605Y-26501285I11J-791005D01*
G01*
X83850000Y-66946878D02*
G75*
G03*
X84633491Y-67730400I783500J-22D01*
G01*
X41229615Y-26496910D02*
G75*
G02*
X42016225Y-25710315I786585J10D01*
G01*
X278109431Y-31884494D02*
G75*
G03*
X277401027Y-32177906I-31J-1001806D01*
G01*
X108375000Y-19935691D02*
G75*
G03*
X108939509Y-20500200I564500J-9D01*
G01*
X277159235Y-32419699D02*
G75*
G02*
X276458845Y-32709839I-700435J700399D01*
G01*
X269500000Y-33482574D02*
G75*
G03*
X268727226Y-32709800I-772800J-26D01*
G01*
X289431800Y-31117700D02*
G75*
G02*
X290225600Y-30323900I793800J0D01*
G01*
X56850743Y-64395484D02*
G75*
G02*
X56065916Y-63610565I57J784884D01*
G01*
X192496256Y-46288000D02*
G75*
G03*
X193060600Y-45723656I44J564300D01*
G01*
X70676861Y-50978565D02*
G75*
G03*
X71783517Y-51436942I1106639J1106665D01*
G01*
X164240992Y-83300500D02*
G75*
G02*
X164798800Y-83858303I8J-557800D01*
G01*
X187940500Y-100612800D02*
G75*
G02*
X187862900Y-100690400I-77600J0D01*
G01*
X198349810Y-90921400D02*
G75*
G03*
X197568300Y-91702910I-10J-781500D01*
G01*
X72521229Y-67819589D02*
G75*
G03*
X72484258Y-67730384I-126129J-11D01*
G01*
X33683104Y-33381200D02*
G75*
G03*
X32894200Y-34170104I-4J-788900D01*
G01*
X32334794Y-48803926D02*
G75*
G03*
X32894226Y-48244520I6J559426D01*
G01*
X316669248Y-71050000D02*
G75*
G03*
X317226500Y-70492748I-48J557300D01*
G01*
X219719600Y-82712729D02*
G75*
G03*
X219156871Y-82150000I-562700J29D01*
G01*
X160304400Y-84088300D02*
G75*
G03*
X159516600Y-83300500I-787800J0D01*
G01*
X81541698Y-27605193D02*
G75*
G03*
X80754093Y-28392782I2J-787607D01*
G01*
X114000000Y-72154845D02*
G75*
G02*
X113255745Y-72899100I-744300J45D01*
G01*
X148124431Y-100682500D02*
G75*
G02*
X147562000Y-100120069I-31J562400D01*
G01*
X179307482Y-46288006D02*
G75*
G02*
X180094094Y-47074555I18J-786594D01*
G01*
X40430638Y-33944226D02*
G75*
G03*
X39867612Y-33381162I-563038J26D01*
G01*
X220163439Y-45175200D02*
G75*
G03*
X219600000Y-45738639I-39J-563400D01*
G01*
X118108100Y-99788408D02*
G75*
G03*
X118134450Y-99814800I26400J8D01*
G01*
X269500000Y-48734895D02*
G75*
G02*
X268735395Y-49499500I-764600J-5D01*
G01*
X306860700Y-29396044D02*
G75*
G03*
X306310195Y-28845500I-550500J44D01*
G01*
X316721424Y-29745331D02*
G75*
G03*
X316022142Y-30034987I-24J-988869D01*
G01*
X212952373Y-86304000D02*
G75*
G03*
X213500000Y-85756373I27J547600D01*
G01*
X207338271Y-90921400D02*
G75*
G03*
X207900000Y-90359671I29J561700D01*
G01*
X276345825Y-98520900D02*
G75*
G02*
X275782300Y-97957375I-25J563500D01*
G01*
X263782329Y-66382551D02*
G75*
G03*
X264345351Y-65819506I-29J563051D01*
G01*
X78217779Y-51436957D02*
G75*
G02*
X78780343Y-51999478I21J-562543D01*
G01*
X29841152Y-50250000D02*
G75*
G02*
X30405400Y-50814248I48J-564200D01*
G01*
X161095227Y-83300495D02*
G75*
G03*
X160304395Y-84091292I-27J-790805D01*
G01*
X275782307Y-89805238D02*
G75*
G02*
X274995562Y-90592007I-786707J-62D01*
G01*
X155178472Y-53204967D02*
G75*
G03*
X155741767Y-52641652I28J563267D01*
G01*
X114763764Y-72899120D02*
G75*
G02*
X113999980Y-72135375I-64J763720D01*
G01*
X313569120Y-44970655D02*
G75*
G02*
X314132145Y-45533735I-20J-563045D01*
G01*
X108778131Y-70525170D02*
G75*
G03*
X108215461Y-69962569I-562631J-30D01*
G01*
X111827185Y-72899100D02*
G75*
G03*
X111267000Y-73459285I15J-560200D01*
G01*
X55502899Y-49386587D02*
G75*
G02*
X56065813Y-49949538I1J-562913D01*
G01*
X168800000Y-62577300D02*
G75*
G03*
X168811700Y-62589000I11700J0D01*
G01*
X234927422Y-52899600D02*
G75*
G03*
X235489600Y-52337422I-22J562200D01*
G01*
X256682183Y-73833600D02*
G75*
G02*
X257461500Y-74612917I17J-779300D01*
G01*
X243448100Y-36442039D02*
G75*
G02*
X242885039Y-37005100I-563100J39D01*
G01*
X180658658Y-62579400D02*
G75*
G02*
X180094000Y-62014742I42J564700D01*
G01*
X100343618Y-18900022D02*
G75*
G03*
X99781622Y-19461952I-18J-561978D01*
G01*
X207900000Y-86866253D02*
G75*
G02*
X208462253Y-86304000I562300J-47D01*
G01*
X180094000Y-47072196D02*
G75*
G02*
X180878196Y-46288000I784200J-4D01*
G01*
X21934751Y-25710300D02*
G75*
G03*
X21374500Y-26270551I49J-560300D01*
G01*
X264345374Y-50292157D02*
G75*
G02*
X265138031Y-49499574I792626J-43D01*
G01*
X168246470Y-98033900D02*
G75*
G02*
X168807200Y-98594630I30J-560700D01*
G01*
X288637938Y-30323895D02*
G75*
G02*
X289431805Y-31117733I62J-793805D01*
G01*
X32894200Y-26482295D02*
G75*
G03*
X32122205Y-25710300I-772000J-5D01*
G01*
X33686683Y-33381200D02*
G75*
G02*
X32894200Y-32588677I17J792500D01*
G01*
X316022146Y-30034991D02*
G75*
G02*
X315324658Y-30323869I-697446J697491D01*
G01*
X134513727Y-60091739D02*
G75*
G03*
X133949939Y-60655466I-27J-563761D01*
G01*
X301375662Y-30323900D02*
G75*
G03*
X301938900Y-29760662I38J563200D01*
G01*
X33671836Y-25710301D02*
G75*
G03*
X32894201Y-26487939I-36J-777599D01*
G01*
X197568278Y-90129872D02*
G75*
G03*
X198359782Y-90921422I791522J-28D01*
G01*
X230976600Y-54036252D02*
G75*
G03*
X231540248Y-54599900I563600J-48D01*
G01*
X109337267Y-74919635D02*
G75*
G02*
X108778165Y-74360499I33J559135D01*
G01*
X52704400Y-64958948D02*
G75*
G02*
X53267848Y-64395500I563400J48D01*
G01*
X109574561Y-60539168D02*
G75*
G03*
X110135393Y-61100039I560839J-32D01*
G01*
X63607371Y-81806238D02*
G75*
G03*
X64171433Y-82370229I564029J38D01*
G01*
X149763200Y-53767332D02*
G75*
G02*
X150325565Y-53204900I562400J32D01*
G01*
X133950000Y-72337485D02*
G75*
G02*
X133388385Y-72899100I-561600J-15D01*
G01*
X160304400Y-97252105D02*
G75*
G03*
X161086195Y-98033900I781800J5D01*
G01*
X269500000Y-48723898D02*
G75*
G03*
X270275617Y-49499500I775600J-2D01*
G01*
X230976600Y-37788036D02*
G75*
G03*
X230193664Y-37005100I-782900J36D01*
G01*
X275773134Y-72150000D02*
G75*
G02*
X275782300Y-72159166I-34J-9200D01*
G01*
X61598503Y-27605200D02*
G75*
G03*
X61038100Y-28165603I-3J-560400D01*
G01*
X321711200Y-29185106D02*
G75*
G02*
X321150975Y-29745300I-560200J6D01*
G01*
X118363862Y-20500200D02*
G75*
G02*
X118928700Y-21065038I38J-564800D01*
G01*
X290856692Y-70971588D02*
G75*
G02*
X290293912Y-70408784I8J562788D01*
G01*
X263551275Y-49499516D02*
G75*
G02*
X264345284Y-50293644I-75J-794084D01*
G01*
X83286241Y-56358900D02*
G75*
G02*
X83850000Y-56922659I-41J-563800D01*
G01*
X51103860Y-49957433D02*
G75*
G02*
X50543872Y-50517360I-559960J33D01*
G01*
X84624915Y-61555800D02*
G75*
G03*
X83850000Y-62330715I-15J-774900D01*
G01*
X78780300Y-55796126D02*
G75*
G03*
X79343074Y-56358900I562800J26D01*
G01*
X72484273Y-69799524D02*
G75*
G03*
X72524541Y-69896733I137527J24D01*
G01*
X256679861Y-90591997D02*
G75*
G03*
X257461497Y-89810340I-61J781697D01*
G01*
X129017717Y-57681778D02*
G75*
G02*
X128812922Y-57477046I-17J204778D01*
G01*
X197006127Y-83134100D02*
G75*
G02*
X197568300Y-83696273I-27J-562200D01*
G01*
X80754100Y-28415292D02*
G75*
G03*
X79944008Y-27605200I-810100J-8D01*
G01*
X233320246Y-53464004D02*
G75*
G02*
X233884650Y-52899646I564354J4D01*
G01*
X92789495Y-69962500D02*
G75*
G03*
X92228200Y-70523795I5J-561300D01*
G01*
X214764451Y-52406200D02*
G75*
G03*
X214201300Y-52969351I49J-563200D01*
G01*
X83058506Y-67730371D02*
G75*
G03*
X83849971Y-66938885I-6J791471D01*
G01*
X66536738Y-82370300D02*
G75*
G02*
X67100000Y-82933562I-38J-563300D01*
G01*
X40994293Y-50517400D02*
G75*
G02*
X40430600Y-49953745I7J563700D01*
G01*
X282192742Y-31319008D02*
G75*
G02*
X281627250Y-31884542I-565542J8D01*
G01*
X57400000Y-28199507D02*
G75*
G03*
X57963928Y-28763400I563900J7D01*
G01*
X173447850Y-84379600D02*
G75*
G03*
X174009300Y-83818150I-50J561500D01*
G01*
X136079716Y-58244140D02*
G75*
G03*
X135517354Y-57681784I-562316J40D01*
G01*
X289431800Y-47242006D02*
G75*
G03*
X289994294Y-47804500I562500J6D01*
G01*
X174014000Y-45725820D02*
G75*
G03*
X174576180Y-46288000I562200J20D01*
G01*
X96575002Y-98833800D02*
G75*
G02*
X97138500Y-99397263I-2J-563500D01*
G01*
X98998226Y-27605200D02*
G75*
G03*
X99781700Y-26821726I-26J783500D01*
G01*
X282192753Y-30254717D02*
G75*
G03*
X282261936Y-30323847I69147J17D01*
G01*
X306860700Y-44408271D02*
G75*
G03*
X307423084Y-44970700I562400J-29D01*
G01*
X159514585Y-98033905D02*
G75*
G03*
X160304405Y-97244104I15J789805D01*
G01*
X257461498Y-73047730D02*
G75*
G02*
X256675621Y-73833598I-785898J30D01*
G01*
X129604061Y-72899094D02*
G75*
G02*
X130398706Y-73693707I39J-794606D01*
G01*
X225250000Y-44613150D02*
G75*
G02*
X224687950Y-45175200I-562100J50D01*
G01*
X99781697Y-28389374D02*
G75*
G03*
X98997511Y-27605203I-784197J-26D01*
G01*
X270553153Y-71387517D02*
G75*
G03*
X271315636Y-72149947I762447J17D01*
G01*
X89864063Y-61555800D02*
G75*
G03*
X90427600Y-60992263I37J563500D01*
G01*
X155135100Y-83300500D02*
G75*
G02*
X154968200Y-83133600I0J166900D01*
G01*
X28957300Y-49687250D02*
G75*
G03*
X29520050Y-50250000I562800J50D01*
G01*
X219600000Y-51842668D02*
G75*
G02*
X219036468Y-52406200I-563500J-32D01*
G01*
X197008899Y-98033900D02*
G75*
G03*
X197568300Y-97474499I1J559400D01*
G01*
X130398715Y-73681899D02*
G75*
G02*
X131181514Y-72899115I782785J-1D01*
G01*
X56065850Y-63619150D02*
G75*
G02*
X55289500Y-64395450I-776350J50D01*
G01*
X231765587Y-37005087D02*
G75*
G03*
X230976587Y-37794052I13J-789013D01*
G01*
X257461500Y-66944309D02*
G75*
G02*
X258023258Y-66382500I561800J9D01*
G01*
X89081349Y-71788757D02*
G75*
G03*
X89645632Y-72353051I564251J-43D01*
G01*
X164798795Y-83858303D02*
G75*
G03*
X165320092Y-84379605I521305J3D01*
G01*
X307658728Y-30323900D02*
G75*
G02*
X306860700Y-29525916I-28J798000D01*
G01*
X24563571Y-56800000D02*
G75*
G03*
X24000000Y-57363571I29J-563600D01*
G01*
X30405400Y-56237389D02*
G75*
G02*
X29842789Y-56800000I-562600J-11D01*
G01*
X257461500Y-89811446D02*
G75*
G03*
X258242054Y-90592000I780600J46D01*
G01*
X270280179Y-32709800D02*
G75*
G03*
X269500000Y-33489979I21J-780200D01*
G01*
X275002201Y-90592000D02*
G75*
G02*
X275782300Y-91372099I-1J-780100D01*
G01*
X56838816Y-25710300D02*
G75*
G02*
X57400000Y-26271484I-16J-561200D01*
G01*
X113435693Y-61100000D02*
G75*
G02*
X114000000Y-61664307I7J-564300D01*
G01*
X220283563Y-96827500D02*
G75*
G02*
X219719600Y-96263537I37J564000D01*
G01*
X63607371Y-65133071D02*
G75*
G03*
X62869800Y-64395529I-737571J-29D01*
G01*
X252423300Y-50060500D02*
G75*
G02*
X252984300Y-49499500I561000J0D01*
G01*
D57*
X244250000Y-37271800D02*
X246877038Y-37271800D01*
X247347100Y-37741800D02*
X247347100Y-35132568D01*
X323783089Y-31415700D02*
X325371200Y-31415700D01*
X284259269Y-32147640D02*
X284259283Y-32375398D01*
X174383800Y-39697400D02*
X174383800Y-30938055D01*
X152340000Y-32600000D02*
X158279445Y-32600000D01*
X67225735Y-34153200D02*
X69375600Y-34153200D01*
X174383800Y-30925665D02*
X174383800Y-28816885D01*
X316471538Y-36423111D02*
X322932598Y-36423111D01*
X66800000Y-33300000D02*
X66800000Y-33727465D01*
X48756400Y-30223000D02*
X48756400Y-31904438D01*
X158703800Y-47962400D02*
X158588000Y-47962400D01*
X308138742Y-33411258D02*
X315626176Y-33411258D01*
X196684500Y-47996200D02*
X196684500Y-39697400D01*
X88883600Y-36982100D02*
X88883600Y-36983600D01*
X303874129Y-31538032D02*
X305764803Y-31538032D01*
X88883600Y-36983600D02*
X107748300Y-36983600D01*
X30623697Y-30182300D02*
X31197200Y-30182300D01*
X158703800Y-33024355D02*
X158703800Y-47962400D01*
X229557678Y-39603133D02*
X227930004Y-39603133D01*
X174808985Y-28391700D02*
X182376360Y-28391700D01*
X128926336Y-40506900D02*
X127584600Y-40506900D01*
X286109162Y-32798124D02*
X284682035Y-32798124D01*
X174383800Y-30938055D02*
X174389995Y-30931860D01*
X174389995Y-30931860D02*
X174383800Y-30925665D01*
X323358436Y-35997273D02*
X323358436Y-31840353D01*
X129350000Y-32505000D02*
X129350000Y-40083236D01*
X316049181Y-33834263D02*
X316049181Y-36000754D01*
X229981700Y-38786600D02*
X229981700Y-39179111D01*
X266582329Y-35076853D02*
X268274602Y-35076853D01*
X49179362Y-32327400D02*
X49892900Y-32327400D01*
X182800000Y-27968060D02*
X182800000Y-26325000D01*
X247772168Y-34707500D02*
X266582300Y-34707500D01*
X30200000Y-31425000D02*
X30200000Y-30605997D01*
X108046600Y-39486000D02*
X108046600Y-37281900D01*
X303450000Y-33500000D02*
X303450000Y-31962161D01*
X268700000Y-33518791D02*
X268700007Y-34651446D01*
X266582300Y-34707500D02*
X266582300Y-35076900D01*
X247347100Y-35132568D02*
G75*
G02*
X247772168Y-34707500I425100J-32D01*
G01*
X323358436Y-31840353D02*
G75*
G02*
X323783089Y-31415736I424664J-47D01*
G01*
X315626176Y-33411258D02*
G75*
G02*
X316049242Y-33834263I24J-423042D01*
G01*
X66800000Y-33727465D02*
G75*
G03*
X67225735Y-34153200I425700J-35D01*
G01*
X316049181Y-36000754D02*
G75*
G03*
X316471538Y-36423119I422319J-46D01*
G01*
X174383800Y-28816885D02*
G75*
G02*
X174808985Y-28391700I425200J-15D01*
G01*
X107748300Y-36983600D02*
G75*
G02*
X108046600Y-37281900I0J-298300D01*
G01*
X229981700Y-39179111D02*
G75*
G02*
X229557678Y-39603100I-424000J11D01*
G01*
X158279445Y-32600000D02*
G75*
G02*
X158703800Y-33024355I-45J-424400D01*
G01*
X129350000Y-40083236D02*
G75*
G02*
X128926336Y-40506900I-423700J36D01*
G01*
X268274602Y-35076853D02*
G75*
G03*
X268700053Y-34651446I-2J425453D01*
G01*
X182376360Y-28391700D02*
G75*
G03*
X182800000Y-27968060I40J423600D01*
G01*
X308050000Y-33500000D02*
G75*
G02*
X308138742Y-33411300I88700J0D01*
G01*
X30200000Y-30605997D02*
G75*
G02*
X30623697Y-30182300I423700J-3D01*
G01*
X48756400Y-31904438D02*
G75*
G03*
X49179362Y-32327400I423000J38D01*
G01*
X284682035Y-32798124D02*
G75*
G02*
X284259276Y-32375398I-35J422724D01*
G01*
X322932598Y-36423111D02*
G75*
G03*
X323358411Y-35997273I2J425811D01*
G01*
X303450000Y-31962161D02*
G75*
G02*
X303874129Y-31538100I424100J-39D01*
G01*
X246877038Y-37271800D02*
G75*
G02*
X247347000Y-37741824I-38J-470000D01*
G01*
X27512900Y-39084200D02*
X29776605Y-39084200D01*
X30200000Y-38660805D02*
X30200000Y-34975000D01*
X29776605Y-39084200D02*
G75*
G03*
X30200000Y-38660805I-5J423400D01*
G01*
X261779229Y-55159553D02*
X260113597Y-55159530D01*
X196301788Y-68680130D02*
X194393081Y-68680130D01*
X305855600Y-61631500D02*
X303456267Y-61631500D01*
X314222013Y-61196755D02*
X314222000Y-61196742D01*
X33915137Y-51625000D02*
X32596700Y-51625000D01*
X54647500Y-52627400D02*
X52876167Y-52627400D01*
X34339000Y-59526428D02*
X34339000Y-52048863D01*
X117924885Y-55750000D02*
X114528700Y-55750000D01*
X159786828Y-57200000D02*
X160574719Y-57200000D01*
X261462000Y-55159600D02*
X261779200Y-55159600D01*
X178577172Y-47981300D02*
X177646000Y-47981300D01*
X73963163Y-54313199D02*
X73956938Y-54319424D01*
X45083459Y-59950000D02*
X34762572Y-59950000D01*
X52027912Y-57350000D02*
X45930000Y-57350000D01*
X114528700Y-58939059D02*
X114528700Y-55724300D01*
X283433601Y-63983440D02*
X283440145Y-63989984D01*
X132244600Y-60934400D02*
X132244600Y-59006859D01*
X321394553Y-51603900D02*
X322943200Y-51603900D01*
X73963163Y-52236957D02*
X73963163Y-54313199D01*
X131306200Y-58583100D02*
X131820841Y-58583100D01*
X240548542Y-58028124D02*
X242571662Y-58028124D01*
X161000000Y-57625281D02*
X161000000Y-65539000D01*
X320970100Y-56325432D02*
X320970100Y-52028353D01*
X283433601Y-53406673D02*
X283433601Y-63983440D01*
X160577281Y-67058100D02*
X158567900Y-67058100D01*
X314222000Y-61196742D02*
X314222000Y-57173141D01*
X54647500Y-50355500D02*
X54647500Y-52627400D01*
X45507000Y-57773000D02*
X45507000Y-59526459D01*
X52451800Y-53051767D02*
X52451800Y-56926112D01*
X159364700Y-30483878D02*
X159364700Y-56777872D01*
X303038924Y-52177586D02*
X303038924Y-61214157D01*
X93577671Y-57346853D02*
X93022032Y-57346837D01*
X244754400Y-60198493D02*
X244754400Y-58449443D01*
X152340000Y-30060000D02*
X158940822Y-30060000D01*
X131306200Y-58583100D02*
X118773624Y-58583100D01*
X161000000Y-65539000D02*
X161000000Y-66635381D01*
X114528700Y-55750000D02*
X114528700Y-55724300D01*
X242571700Y-57747500D02*
X242571700Y-58028100D01*
X244333081Y-58028124D02*
X242571662Y-58028124D01*
X118350000Y-58159476D02*
X118350000Y-56175115D01*
X281330862Y-52891124D02*
X282918052Y-52891124D01*
X314645141Y-56750000D02*
X320545532Y-56750000D01*
X92597493Y-54966372D02*
X92597493Y-56922285D01*
X239895672Y-57695672D02*
X239895685Y-57695678D01*
X179000000Y-63379400D02*
X179000000Y-48404128D01*
X223281000Y-59980600D02*
X223281000Y-57890963D01*
X223705063Y-57466900D02*
X239343367Y-57466900D01*
X239895685Y-57695678D02*
X240001597Y-57801589D01*
X305855600Y-61631500D02*
X313787270Y-61631500D01*
X112890900Y-59362900D02*
X114104859Y-59362900D01*
X259700000Y-58400000D02*
X259700000Y-55573121D01*
X196723000Y-67025000D02*
X196723000Y-68258918D01*
X301029004Y-51739933D02*
X302601271Y-51739933D01*
X45507000Y-59526459D02*
G75*
G02*
X45083459Y-59950000I-423500J-41D01*
G01*
X159364700Y-56777872D02*
G75*
G03*
X159786828Y-57200000I422100J-28D01*
G01*
X320970100Y-52028353D02*
G75*
G02*
X321394553Y-51603900I424500J-47D01*
G01*
X52451800Y-56926112D02*
G75*
G02*
X52027912Y-57350000I-423900J12D01*
G01*
X196723000Y-68258918D02*
G75*
G02*
X196301788Y-68680100I-421200J18D01*
G01*
X223281000Y-57890963D02*
G75*
G02*
X223705063Y-57466900I424100J-37D01*
G01*
X118350000Y-56175115D02*
G75*
G03*
X117924885Y-55750000I-425100J15D01*
G01*
X302601271Y-51739933D02*
G75*
G02*
X303038967Y-52177586I29J-437667D01*
G01*
X158940822Y-30060000D02*
G75*
G02*
X159364700Y-30483878I-22J-423900D01*
G01*
X160574719Y-57200000D02*
G75*
G02*
X161000000Y-57625281I-19J-425300D01*
G01*
X118773624Y-58583100D02*
G75*
G02*
X118350000Y-58159476I-24J423600D01*
G01*
X282918052Y-52891124D02*
G75*
G02*
X283433676Y-53406673I48J-515576D01*
G01*
X34339000Y-52048863D02*
G75*
G03*
X33915137Y-51625000I-423900J-37D01*
G01*
X303038924Y-61214157D02*
G75*
G03*
X303456267Y-61631576I417376J-43D01*
G01*
X179000000Y-48404128D02*
G75*
G03*
X178577172Y-47981300I-422800J28D01*
G01*
X34762572Y-59950000D02*
G75*
G02*
X34339000Y-59526428I28J423600D01*
G01*
X314222000Y-57173141D02*
G75*
G02*
X314645141Y-56750000I423100J41D01*
G01*
X239343367Y-57466900D02*
G75*
G02*
X239895693Y-57695651I33J-781100D01*
G01*
X131820841Y-58583100D02*
G75*
G02*
X132244600Y-59006859I-41J-423800D01*
G01*
X161000000Y-66635381D02*
G75*
G02*
X160577281Y-67058100I-422700J-19D01*
G01*
X240001597Y-57801589D02*
G75*
G03*
X240548542Y-58028098I546903J546989D01*
G01*
X52876167Y-52627400D02*
G75*
G03*
X52451800Y-53051767I33J-424400D01*
G01*
X114104859Y-59362900D02*
G75*
G03*
X114528700Y-58939059I41J423800D01*
G01*
X244754400Y-58449443D02*
G75*
G03*
X244333081Y-58028100I-421300J43D01*
G01*
X320545532Y-56750000D02*
G75*
G03*
X320970100Y-56325432I-32J424600D01*
G01*
X45930000Y-57350000D02*
G75*
G03*
X45507000Y-57773000I0J-423000D01*
G01*
X259700000Y-55573121D02*
G75*
G02*
X260113597Y-55159500I413600J21D01*
G01*
X313787270Y-61631500D02*
G75*
G03*
X314222000Y-61196755I30J434700D01*
G01*
X92597493Y-56922285D02*
G75*
G03*
X93022032Y-57346807I424507J-15D01*
G01*
X32596700Y-58852802D02*
X32596700Y-55175000D01*
X29890800Y-59277000D02*
X32172502Y-59277000D01*
X32172502Y-59277000D02*
G75*
G03*
X32596700Y-58852802I-2J424200D01*
G01*
X31838800Y-80214800D02*
X34076900Y-80214800D01*
X34500000Y-79791700D02*
X34500000Y-76075000D01*
X34076900Y-80214800D02*
G75*
G03*
X34500000Y-79791700I0J423100D01*
G01*
X301050000Y-72254395D02*
X301050000Y-66940558D01*
X187500000Y-74475615D02*
X187500000Y-67448523D01*
X187076477Y-67025000D02*
X177652000Y-67025000D01*
X252429215Y-75776185D02*
X252503658Y-75850628D01*
X216271687Y-78351629D02*
X216271687Y-78454279D01*
X252503658Y-75850628D02*
X252550000Y-75850628D01*
X139955500Y-79619300D02*
X140029100Y-79619300D01*
X156429375Y-85338843D02*
X156429393Y-85338861D01*
X216333704Y-80793533D02*
X216333677Y-78702627D01*
X58891451Y-73623693D02*
X58900844Y-73614300D01*
X294199300Y-72678300D02*
X300626095Y-72678300D01*
X83309170Y-75859170D02*
X99902187Y-75859170D01*
X233879643Y-78959024D02*
X235688262Y-78959024D01*
X83300000Y-75850000D02*
X81383514Y-75850000D01*
X140700400Y-27521600D02*
X140700400Y-37328179D01*
X294199304Y-72678333D02*
X294199304Y-74028343D01*
X294622516Y-74451555D02*
X295811047Y-74451555D01*
X320903300Y-66939432D02*
X320903300Y-72544700D01*
X156429393Y-85338861D02*
X156429393Y-85657682D01*
X196643837Y-85867991D02*
X196641030Y-85781994D01*
X301474858Y-66515700D02*
X320479568Y-66515700D01*
X235688262Y-78959024D02*
X236907699Y-78959052D01*
X216346332Y-78276984D02*
X216271687Y-78351629D01*
X58900844Y-73614300D02*
X61358000Y-73614300D01*
X294350000Y-84950000D02*
X295863219Y-84950000D01*
X233332312Y-78732312D02*
X233105521Y-78505521D01*
X196685900Y-86093300D02*
X196683618Y-86016451D01*
X216333704Y-78516296D02*
X216333704Y-80793533D01*
X140181991Y-38168009D02*
X140473121Y-37876879D01*
X296234800Y-84578419D02*
X296234800Y-74875308D01*
X184700000Y-84327427D02*
X184700000Y-75322797D01*
X196596514Y-85615862D02*
X196596495Y-85174389D01*
X237330400Y-78536361D02*
X237330400Y-75655400D01*
X38015409Y-71692143D02*
X35332857Y-71692143D01*
X139955500Y-79819900D02*
X139955500Y-81303508D01*
X252429215Y-75776185D02*
X254437861Y-75776185D01*
X139955500Y-79619300D02*
X139955500Y-79819900D01*
X139955500Y-38714806D02*
X139955500Y-79619300D01*
X138983796Y-81728133D02*
X139530871Y-81728135D01*
X196641030Y-85781994D02*
X196596514Y-85615862D01*
X185122797Y-74900000D02*
X187075615Y-74900000D01*
X196683618Y-86016451D02*
X196643837Y-85867991D01*
X156853936Y-86082200D02*
X158577900Y-86082200D01*
X83300000Y-75850000D02*
X83309170Y-75859170D01*
X116650000Y-79850000D02*
X119062414Y-79850000D01*
X216346332Y-78276984D02*
X232553784Y-78276984D01*
X216271687Y-78454279D02*
X216333704Y-78516296D01*
X196172087Y-84750000D02*
X185122573Y-84750000D01*
X100325100Y-76282083D02*
X100325100Y-78265200D01*
X271500000Y-73300000D02*
X273749438Y-73300000D01*
X295811047Y-74451555D02*
G75*
G02*
X296234745Y-74875308I-47J-423745D01*
G01*
X140181991Y-38168009D02*
G75*
G03*
X139955508Y-38714806I546809J-546791D01*
G01*
X233332312Y-78732312D02*
G75*
G03*
X233879643Y-78958999I547288J547312D01*
G01*
X119062414Y-79850000D02*
G75*
G02*
X119610000Y-80397624I-14J-547600D01*
G01*
X196596495Y-85174389D02*
G75*
G03*
X196172087Y-84750005I-424395J-11D01*
G01*
X81383514Y-75850000D02*
G75*
G02*
X80894400Y-75360924I-14J489100D01*
G01*
X273749438Y-73300000D02*
G75*
G02*
X274469100Y-74019724I-38J-719700D01*
G01*
X187500000Y-67448523D02*
G75*
G03*
X187076477Y-67025000I-423500J23D01*
G01*
X232553784Y-78276984D02*
G75*
G02*
X233105538Y-78505504I16J-780316D01*
G01*
X140700400Y-37328179D02*
G75*
G02*
X140473136Y-37876894I-776000J-21D01*
G01*
X301050000Y-66940558D02*
G75*
G02*
X301474858Y-66515700I424900J-42D01*
G01*
X99902187Y-75859170D02*
G75*
G02*
X100325130Y-76282083I13J-422930D01*
G01*
X236907699Y-78959052D02*
G75*
G03*
X237330352Y-78536361I1J422652D01*
G01*
X300626095Y-72678300D02*
G75*
G03*
X301050000Y-72254395I5J423900D01*
G01*
X295863219Y-84950000D02*
G75*
G03*
X296234800Y-84578419I-19J371600D01*
G01*
X187075615Y-74900000D02*
G75*
G03*
X187500000Y-74475615I-15J424400D01*
G01*
X139955500Y-81303508D02*
G75*
G02*
X139530871Y-81728100I-424600J8D01*
G01*
X294199304Y-74028343D02*
G75*
G03*
X294622516Y-74451496I423196J43D01*
G01*
X185122573Y-84750000D02*
G75*
G02*
X184700000Y-84327427I27J422600D01*
G01*
X254437861Y-75776185D02*
G75*
G02*
X254932815Y-76271053I39J-494915D01*
G01*
X156429393Y-85657682D02*
G75*
G03*
X156853936Y-86082207I424507J-18D01*
G01*
X184700000Y-75322797D02*
G75*
G02*
X185122797Y-74900000I422800J-3D01*
G01*
X320479568Y-66515700D02*
G75*
G02*
X320903300Y-66939432I32J-423700D01*
G01*
X35332857Y-71692143D02*
G75*
G03*
X34500043Y-72525000I43J-832857D01*
G01*
X141090400Y-114462833D02*
X141090400Y-114466182D01*
X175225958Y-110250000D02*
X169330090Y-110250000D01*
X239764980Y-109850000D02*
X239759029Y-109850000D01*
X260831880Y-102348000D02*
X262525400Y-102348000D01*
X177640900Y-105125000D02*
X176074102Y-105125000D01*
X143580300Y-42221464D02*
X143580300Y-24983200D01*
X262525418Y-102348024D02*
X263796954Y-102348024D01*
X264643326Y-114222911D02*
X290277698Y-114222911D01*
X196700000Y-105127700D02*
X197876051Y-105127700D01*
X254064110Y-107150000D02*
X259983465Y-107150000D01*
X290275829Y-105466731D02*
X289589535Y-105466760D01*
X198692701Y-115350000D02*
X238969098Y-115350000D01*
X141090400Y-114462833D02*
X141090400Y-43068575D01*
X41900000Y-97525000D02*
X43243629Y-97525000D01*
X324500000Y-98925632D02*
X324500000Y-97525000D01*
X239372000Y-114947098D02*
X239372000Y-110242980D01*
X68228875Y-114858914D02*
X67432254Y-114858914D01*
X168905900Y-110674190D02*
X168905900Y-114435411D01*
X168482411Y-114858900D02*
X141483118Y-114858900D01*
X253640400Y-109425861D02*
X253640400Y-107573710D01*
X198300000Y-114954161D02*
X198300000Y-105551649D01*
X68228875Y-114858914D02*
X68228889Y-114858900D01*
X309474118Y-99350000D02*
X324075632Y-99350000D01*
X140694324Y-114858902D02*
X141483116Y-114858902D01*
X197904161Y-115350000D02*
X198692701Y-115350000D01*
X178675000Y-105125000D02*
X177640900Y-105125000D01*
X260407500Y-106725965D02*
X260407500Y-102772380D01*
X198300000Y-114954161D02*
X198300000Y-114957299D01*
X43652669Y-97934040D02*
X43652669Y-114434161D01*
X67828702Y-114458756D02*
X67828702Y-114462438D01*
X67432240Y-114858900D02*
X44077408Y-114858900D01*
X141483116Y-114858902D02*
X141483118Y-114858900D01*
X68228889Y-114858900D02*
X140694322Y-114858900D01*
X309050000Y-103132780D02*
X309050000Y-99774118D01*
X197904161Y-115350000D02*
X179900000Y-115350000D01*
X67432254Y-114858914D02*
X67432240Y-114858900D01*
X179150000Y-114600000D02*
X179150000Y-105600000D01*
X289168200Y-103556400D02*
X308626380Y-103556400D01*
X66200583Y-102541925D02*
X67404913Y-102541912D01*
X239372000Y-101697425D02*
X239372000Y-109462971D01*
X140694322Y-114858900D02*
X140694324Y-114858902D01*
X264220175Y-102771245D02*
X264220175Y-113799760D01*
X239372000Y-110242980D02*
X239372000Y-109462971D01*
X141515275Y-42643700D02*
X143158064Y-42643700D01*
X175650000Y-105549102D02*
X175650000Y-109825958D01*
X239764980Y-109850000D02*
X253216261Y-109850000D01*
X233664000Y-101273400D02*
X238947975Y-101273400D01*
X290701220Y-113799389D02*
X290701220Y-105892104D01*
X289168217Y-105045460D02*
X289168217Y-103556423D01*
X67828702Y-102965697D02*
X67828702Y-114458756D01*
X68228875Y-114858914D02*
G75*
G02*
X67828786Y-114458756I25J400114D01*
G01*
X198300000Y-105551649D02*
G75*
G03*
X197876051Y-105127700I-423900J49D01*
G01*
X290701220Y-105892104D02*
G75*
G03*
X290275829Y-105466680I-425420J4D01*
G01*
X143158064Y-42643700D02*
G75*
G03*
X143580300Y-42221464I36J422200D01*
G01*
X239372000Y-110242980D02*
G75*
G02*
X239764980Y-109850000I393000J-20D01*
G01*
X309050000Y-99774118D02*
G75*
G02*
X309474118Y-99350000I424100J18D01*
G01*
X289589535Y-105466760D02*
G75*
G02*
X289168240Y-105045460I-35J421260D01*
G01*
X308626380Y-103556400D02*
G75*
G03*
X309050000Y-103132780I20J423600D01*
G01*
X168905900Y-114435411D02*
G75*
G02*
X168482411Y-114858900I-423500J11D01*
G01*
X239759029Y-109850000D02*
G75*
G02*
X239372000Y-109462971I-29J387000D01*
G01*
X176074102Y-105125000D02*
G75*
G03*
X175650000Y-105549102I-2J-424100D01*
G01*
X141090400Y-114466182D02*
G75*
G03*
X141483118Y-114858900I392700J-18D01*
G01*
X44077408Y-114858900D02*
G75*
G02*
X43652700Y-114434161I-8J424700D01*
G01*
X175650000Y-109825958D02*
G75*
G02*
X175225958Y-110250000I-424000J-42D01*
G01*
X264220175Y-113799760D02*
G75*
G03*
X264643326Y-114222925I423125J-40D01*
G01*
X43243629Y-97525000D02*
G75*
G02*
X43652600Y-97934040I-29J-409000D01*
G01*
X259983465Y-107150000D02*
G75*
G03*
X260407500Y-106725965I35J424000D01*
G01*
X198300000Y-114957299D02*
G75*
G03*
X198692701Y-115350000I392700J-1D01*
G01*
X263796954Y-102348024D02*
G75*
G02*
X264220176Y-102771245I46J-423176D01*
G01*
X67828702Y-114462438D02*
G75*
G02*
X67432240Y-114858902I-396502J38D01*
G01*
X253640400Y-107573710D02*
G75*
G02*
X254064110Y-107150000I423700J10D01*
G01*
X238947975Y-101273400D02*
G75*
G02*
X239372000Y-101697425I25J-424000D01*
G01*
X169330090Y-110250000D02*
G75*
G03*
X168905900Y-110674190I10J-424200D01*
G01*
X290277698Y-114222911D02*
G75*
G03*
X290701211Y-113799389I2J423511D01*
G01*
X179150000Y-105600000D02*
G75*
G03*
X178675000Y-105125000I-475000J0D01*
G01*
X179900000Y-115350000D02*
G75*
G02*
X179150000Y-114600000I0J750000D01*
G01*
X238969098Y-115350000D02*
G75*
G03*
X239372000Y-114947098I2J402900D01*
G01*
X67404913Y-102541912D02*
G75*
G02*
X67828688Y-102965697I-13J-423788D01*
G01*
X324075632Y-99350000D02*
G75*
G03*
X324500000Y-98925632I-32J424400D01*
G01*
X140694324Y-114858902D02*
G75*
G03*
X141090402Y-114462833I-24J396102D01*
G01*
X260407500Y-102772380D02*
G75*
G02*
X260831880Y-102348000I424400J-20D01*
G01*
X198300000Y-114954161D02*
G75*
G02*
X197904161Y-115350000I-395800J-39D01*
G01*
X253216261Y-109850000D02*
G75*
G03*
X253640400Y-109425861I39J424100D01*
G01*
X141090400Y-43068575D02*
G75*
G02*
X141515275Y-42643700I424900J-25D01*
G01*
X37593600Y-101800000D02*
X41175000Y-101800000D01*
X41175000Y-101800000D02*
G75*
G03*
X41900000Y-101075000I0J725000D01*
G01*
X49284815Y-39772700D02*
X46731300Y-39772700D01*
X49707100Y-35872600D02*
X49707100Y-39350415D01*
X49707100Y-39350415D02*
G75*
G02*
X49284815Y-39772700I-422300J15D01*
G01*
X54407100Y-59542194D02*
X54407100Y-56172600D01*
X51491200Y-59965600D02*
X53983694Y-59965600D01*
X53983694Y-59965600D02*
G75*
G03*
X54407100Y-59542194I6J423400D01*
G01*
X61172200Y-80479441D02*
X61172200Y-77159500D01*
X58201600Y-80902900D02*
X60748741Y-80902900D01*
X60748741Y-80902900D02*
G75*
G03*
X61172200Y-80479441I-41J423500D01*
G01*
X66448200Y-110121500D02*
X66448200Y-106083300D01*
X64046500Y-110545200D02*
X66024500Y-110545200D01*
X66024500Y-110545200D02*
G75*
G03*
X66448200Y-110121500I0J423700D01*
G01*
X65887300Y-38108031D02*
X65887300Y-41466500D01*
X69004600Y-37683800D02*
X66311531Y-37683800D01*
X66311531Y-37683800D02*
G75*
G03*
X65887300Y-38108031I-31J-424200D01*
G01*
X73585900Y-61237330D02*
X73585900Y-57850000D01*
X70484800Y-61660200D02*
X73163030Y-61660200D01*
X73163030Y-61660200D02*
G75*
G03*
X73585900Y-61237330I-30J422900D01*
G01*
X77357500Y-84000000D02*
X77357500Y-82596200D01*
X90750000Y-79316122D02*
X90750000Y-83577249D01*
X90327249Y-84000000D02*
X77357500Y-84000000D01*
X80523400Y-78891500D02*
X90325378Y-78891500D01*
X90325378Y-78891500D02*
G75*
G02*
X90750000Y-79316122I22J-424600D01*
G01*
X90750000Y-83577249D02*
G75*
G02*
X90327249Y-84000000I-422800J49D01*
G01*
X88328200Y-43736804D02*
X88328200Y-40488300D01*
X84928300Y-44160100D02*
X87904904Y-44160100D01*
X87904904Y-44160100D02*
G75*
G03*
X88328200Y-43736804I-4J423300D01*
G01*
X93022300Y-63930811D02*
X93022300Y-60853100D01*
X89689400Y-64353700D02*
X92599411Y-64353700D01*
X92599411Y-64353700D02*
G75*
G03*
X93022300Y-63930811I-11J422900D01*
G01*
X99769700Y-84866648D02*
X99769700Y-81771400D01*
X96398500Y-85289900D02*
X99346448Y-85289900D01*
X99346448Y-85289900D02*
G75*
G03*
X99769700Y-84866648I-48J423300D01*
G01*
X92338912Y-109415500D02*
X90347300Y-109415500D01*
X92761900Y-104973900D02*
X92761900Y-108992512D01*
X92761900Y-108992512D02*
G75*
G02*
X92338912Y-109415500I-423000J12D01*
G01*
X160925269Y-103335891D02*
X160928674Y-103332486D01*
X125185613Y-105350000D02*
X125185613Y-102335613D01*
X125185613Y-113477592D02*
X125185613Y-105350000D01*
X160928674Y-103332486D02*
X147372426Y-103332486D01*
X92638053Y-101426081D02*
X94125651Y-101426081D01*
X158594400Y-105132200D02*
X160503773Y-105132200D01*
X94973307Y-113900771D02*
X124762434Y-113900771D01*
X178582000Y-102633400D02*
X178582000Y-86531473D01*
X125150000Y-102300000D02*
X125150000Y-101704225D01*
X178545500Y-102633400D02*
X178582000Y-102633400D01*
X146947700Y-102244800D02*
X146947700Y-102907760D01*
X178157327Y-86106800D02*
X177659200Y-86106800D01*
X121668400Y-101279700D02*
X124725475Y-101279700D01*
X94549357Y-101849787D02*
X94549357Y-113476821D01*
X160925269Y-104710704D02*
X160925269Y-103335891D01*
X147372426Y-103332486D02*
G75*
G02*
X146947714Y-102907760I-26J424686D01*
G01*
X94549357Y-113476821D02*
G75*
G03*
X94973307Y-113900743I423943J21D01*
G01*
X160503773Y-105132200D02*
G75*
G03*
X160925300Y-104710704I27J421500D01*
G01*
X125185613Y-102335613D02*
G75*
G03*
X125150000Y-102299987I-35613J13D01*
G01*
X94125651Y-101426081D02*
G75*
G02*
X94549319Y-101849787I-51J-423719D01*
G01*
X178582000Y-86531473D02*
G75*
G03*
X178157327Y-86106800I-424700J-27D01*
G01*
X124725475Y-101279700D02*
G75*
G02*
X125150000Y-101704225I25J-424500D01*
G01*
X124762434Y-113900771D02*
G75*
G03*
X125185571Y-113477592I-34J423171D01*
G01*
X104630200Y-46566600D02*
X107250730Y-46566600D01*
X107675600Y-46141730D02*
X107675600Y-43016600D01*
X107250730Y-46566600D02*
G75*
G03*
X107675600Y-46141730I-30J424900D01*
G01*
X112519900Y-62893500D02*
X109815783Y-62893500D01*
X109392000Y-63317283D02*
X109392000Y-66759800D01*
X109815783Y-62893500D02*
G75*
G03*
X109392000Y-63317283I17J-423800D01*
G01*
X119239000Y-87272308D02*
X119239000Y-83928200D01*
X116100300Y-87695600D02*
X118815708Y-87695600D01*
X118815708Y-87695600D02*
G75*
G03*
X119239000Y-87272308I-8J423300D01*
G01*
X124431400Y-44474519D02*
X124431400Y-47937900D01*
X127398800Y-44052100D02*
X124853819Y-44052100D01*
X124853819Y-44052100D02*
G75*
G03*
X124431400Y-44474519I-19J-422400D01*
G01*
X129193100Y-68131800D02*
X129193100Y-64902381D01*
X129615881Y-64479600D02*
X132058800Y-64479600D01*
X129193100Y-64902381D02*
G75*
G02*
X129615881Y-64479600I422800J-19D01*
G01*
X135902300Y-89066700D02*
X138372979Y-89066700D01*
X138798000Y-88641679D02*
X138798000Y-85273300D01*
X138372979Y-89066700D02*
G75*
G03*
X138798000Y-88641679I21J425000D01*
G01*
X121668400Y-108532015D02*
X121668400Y-104829700D01*
X119040400Y-108954700D02*
X121245715Y-108954700D01*
X121245715Y-108954700D02*
G75*
G03*
X121668400Y-108532015I-15J422700D01*
G01*
X158588000Y-55234573D02*
X158588000Y-51512400D01*
X155905900Y-55657200D02*
X158165373Y-55657200D01*
X158165373Y-55657200D02*
G75*
G03*
X158588000Y-55234573I27J422600D01*
G01*
X158567900Y-74282618D02*
X158567900Y-70608100D01*
X155905900Y-74707200D02*
X158143318Y-74707200D01*
X158143318Y-74707200D02*
G75*
G03*
X158567900Y-74282618I-18J424600D01*
G01*
X155905900Y-93757200D02*
X158152994Y-93757200D01*
X158577900Y-93332294D02*
X158577900Y-89632200D01*
X158152994Y-93757200D02*
G75*
G03*
X158577900Y-93332294I6J424900D01*
G01*
X155905900Y-112807200D02*
X158170226Y-112807200D01*
X158594400Y-112383026D02*
X158594400Y-108682200D01*
X158170226Y-112807200D02*
G75*
G03*
X158594400Y-112383026I-26J424200D01*
G01*
X182800000Y-29875000D02*
X179130900Y-29875000D01*
X179130900Y-29875000D02*
G75*
G03*
X178405900Y-30600000I0J-725000D01*
G01*
X177646000Y-55233811D02*
X177646000Y-51531300D01*
X174955900Y-55657200D02*
X177222611Y-55657200D01*
X177222611Y-55657200D02*
G75*
G03*
X177646000Y-55233811I-11J423400D01*
G01*
X177652000Y-74283651D02*
X177652000Y-70575000D01*
X174955900Y-74707200D02*
X177228451Y-74707200D01*
X177228451Y-74707200D02*
G75*
G03*
X177652000Y-74283651I-51J423600D01*
G01*
X177234792Y-93757200D02*
X174955900Y-93757200D01*
X177659200Y-89656800D02*
X177659200Y-93332792D01*
X177659200Y-93332792D02*
G75*
G02*
X177234792Y-93757200I-424400J-8D01*
G01*
X196261105Y-55657200D02*
X194005900Y-55657200D01*
X196684500Y-51546200D02*
X196684500Y-55233805D01*
X196684500Y-55233805D02*
G75*
G02*
X196261105Y-55657200I-423400J5D01*
G01*
X196299544Y-74707200D02*
X194005900Y-74707200D01*
X196723000Y-70575000D02*
X196723000Y-74283744D01*
X196723000Y-74283744D02*
G75*
G02*
X196299544Y-74707200I-423500J44D01*
G01*
X196685900Y-89643300D02*
X194428786Y-89643300D01*
X194005900Y-90066186D02*
X194005900Y-93757200D01*
X194428786Y-89643300D02*
G75*
G03*
X194005900Y-90066186I14J-422900D01*
G01*
X177640900Y-112383672D02*
X177640900Y-108675000D01*
X174955900Y-112807200D02*
X177217372Y-112807200D01*
X177217372Y-112807200D02*
G75*
G03*
X177640900Y-112383672I28J423500D01*
G01*
X228115800Y-43148300D02*
X228115800Y-47141751D01*
X227691251Y-47566300D02*
X225721600Y-47566300D01*
X228115800Y-47141751D02*
G75*
G02*
X227691251Y-47566300I-424600J51D01*
G01*
X223466800Y-63525800D02*
X223466800Y-67336669D01*
X223043269Y-67760200D02*
X220960000Y-67760200D01*
X223466800Y-67336669D02*
G75*
G02*
X223043269Y-67760200I-423500J-31D01*
G01*
X216094815Y-88695100D02*
X214088000Y-88695100D01*
X216519500Y-84338700D02*
X216519500Y-88270415D01*
X216519500Y-88270415D02*
G75*
G02*
X216094815Y-88695100I-424700J15D01*
G01*
X196276316Y-112807200D02*
X194005900Y-112807200D01*
X196700000Y-108677700D02*
X196700000Y-112383516D01*
X196700000Y-112383516D02*
G75*
G02*
X196276316Y-112807200I-423700J16D01*
G01*
X247718100Y-41272400D02*
X247718100Y-45401721D01*
X247295421Y-45824400D02*
X245493700Y-45824400D01*
X247718100Y-45401721D02*
G75*
G02*
X247295421Y-45824400I-422700J21D01*
G01*
X242518742Y-66017600D02*
X240731900Y-66017600D01*
X242942700Y-61558700D02*
X242942700Y-65593642D01*
X242942700Y-65593642D02*
G75*
G02*
X242518742Y-66017600I-424000J42D01*
G01*
X236059300Y-82489600D02*
X236059300Y-86529126D01*
X235635026Y-86953400D02*
X233860800Y-86953400D01*
X236059300Y-86529126D02*
G75*
G02*
X235635026Y-86953400I-424300J26D01*
G01*
X233242084Y-108954700D02*
X230959600Y-108954700D01*
X233664000Y-104823400D02*
X233664000Y-108532784D01*
X233664000Y-108532784D02*
G75*
G02*
X233242084Y-108954700I-421900J-16D01*
G01*
X266714819Y-43049400D02*
X265147100Y-43049400D01*
X267137700Y-38583100D02*
X267137700Y-42626519D01*
X267137700Y-42626519D02*
G75*
G02*
X266714819Y-43049400I-422900J19D01*
G01*
X260385957Y-63243019D02*
X260385957Y-59092015D01*
X262334571Y-58665847D02*
X260812096Y-58665870D01*
X260385957Y-59092015D02*
G75*
G02*
X260812096Y-58665857I426143J15D01*
G01*
X255065205Y-84179200D02*
X253514100Y-84179200D01*
X255488100Y-79777300D02*
X255488100Y-83756305D01*
X255488100Y-83756305D02*
G75*
G02*
X255065205Y-84179200I-422900J5D01*
G01*
X261853869Y-109663300D02*
X259648300Y-109663300D01*
X262277800Y-105889400D02*
X262277800Y-109239369D01*
X262277800Y-109239369D02*
G75*
G02*
X261853869Y-109663300I-423900J-31D01*
G01*
X286480200Y-36328700D02*
X286480200Y-40300489D01*
X286056389Y-40724300D02*
X284236600Y-40724300D01*
X286480200Y-40300489D02*
G75*
G02*
X286056389Y-40724300I-423800J-11D01*
G01*
X281701900Y-56421700D02*
X281701900Y-60492065D01*
X281275965Y-60918000D02*
X279476300Y-60918000D01*
X281701900Y-60492065D02*
G75*
G02*
X281275965Y-60918000I-425900J-35D01*
G01*
X274840200Y-77550300D02*
X274840200Y-81429944D01*
X274416144Y-81854000D02*
X272603600Y-81854000D01*
X274840200Y-81429944D02*
G75*
G02*
X274416144Y-81854000I-424100J44D01*
G01*
X305950600Y-35083200D02*
X305950600Y-38976787D01*
X305526287Y-39401100D02*
X303421800Y-39401100D01*
X305950600Y-38976787D02*
G75*
G02*
X305526287Y-39401100I-424300J-13D01*
G01*
X300789918Y-59594000D02*
X298661900Y-59594000D01*
X301214800Y-55285100D02*
X301214800Y-59169118D01*
X301214800Y-59169118D02*
G75*
G02*
X300789918Y-59594000I-424900J18D01*
G01*
X293962070Y-80531300D02*
X291788700Y-80531300D01*
X294385100Y-76223500D02*
X294385100Y-80108270D01*
X294385100Y-80108270D02*
G75*
G02*
X293962070Y-80531300I-423000J-30D01*
G01*
X288920600Y-110616285D02*
X288920600Y-107097800D01*
X285936200Y-111040500D02*
X288496385Y-111040500D01*
X288496385Y-111040500D02*
G75*
G03*
X288920600Y-110616285I15J424200D01*
G01*
X325371200Y-34965700D02*
X325371200Y-38660604D01*
X324947604Y-39084200D02*
X322649900Y-39084200D01*
X325371200Y-38660604D02*
G75*
G02*
X324947604Y-39084200I-423600J4D01*
G01*
X322943200Y-55153900D02*
X322943200Y-58853022D01*
X322519222Y-59277000D02*
X320272000Y-59277000D01*
X322943200Y-58853022D02*
G75*
G02*
X322519222Y-59277000I-424000J22D01*
G01*
X318161200Y-80214800D02*
X320480110Y-80214800D01*
X320903300Y-79791610D02*
X320903300Y-76094700D01*
X320480110Y-80214800D02*
G75*
G03*
X320903300Y-79791610I-10J423200D01*
G01*
X323775000Y-101800000D02*
X319593600Y-101800000D01*
X324500000Y-101075000D02*
G75*
G02*
X323775000Y-101800000I-725000J0D01*
G01*
D56*
X57634588Y-84057900D02*
X62036064Y-84057900D01*
X70510700Y-46560656D02*
X70510700Y-46565455D01*
X109818794Y-38594700D02*
X117350108Y-38594700D01*
X126202245Y-79620900D02*
X128639104Y-79620900D01*
X197599699Y-36035837D02*
X197599700Y-37594442D01*
X46344000Y-29116900D02*
X47150000Y-29116900D01*
X148651675Y-40722549D02*
X148648300Y-40719174D01*
X118913588Y-38594700D02*
X123481038Y-38594700D01*
X66052900Y-31396025D02*
X66052900Y-30798800D01*
X178595994Y-103950000D02*
X178596000Y-103949994D01*
X206656000Y-76907900D02*
X198374760Y-76907900D01*
X238130400Y-72915961D02*
X238130400Y-72915816D01*
X69728403Y-47342944D02*
X69728405Y-47342946D01*
X124043100Y-37274800D02*
X124043100Y-37310800D01*
X132477111Y-26226000D02*
X132479445Y-26226000D01*
D57*
X62612660Y-72002875D02*
X62597838Y-72017697D01*
D56*
X149745657Y-43535500D02*
X149758892Y-43522265D01*
X85655500Y-33515900D02*
X85655500Y-38370452D01*
X177919176Y-103950000D02*
X178595994Y-103950000D01*
X67050000Y-30900000D02*
X67098726Y-30945914D01*
X206656000Y-76907900D02*
X206678000Y-76907900D01*
X207326200Y-76907900D02*
X206656000Y-76907900D01*
X214873730Y-31393600D02*
X198163621Y-31393600D01*
X165800000Y-79811127D02*
X165800000Y-81070534D01*
X57071316Y-98883394D02*
X54029074Y-98883394D01*
X238669703Y-55548100D02*
X244766064Y-55548100D01*
X150330980Y-79250000D02*
X160800000Y-79250000D01*
X131630187Y-40722549D02*
X131635200Y-40727562D01*
X133254400Y-36935226D02*
X133254400Y-27000955D01*
X237345084Y-72130500D02*
X227270681Y-72130500D01*
X302965510Y-99300000D02*
X305093600Y-99300000D01*
X215437179Y-35215141D02*
X215437188Y-31957060D01*
X131630187Y-39381833D02*
X131630187Y-40722549D01*
X284671900Y-68392190D02*
X284671903Y-68005544D01*
X257179300Y-32041800D02*
X257179300Y-29868838D01*
X58996200Y-33382489D02*
X58996200Y-32519031D01*
X221611500Y-61044052D02*
X221611500Y-62623571D01*
X284671900Y-66461496D02*
X284671900Y-51288720D01*
X206678000Y-76907900D02*
X206678000Y-73314400D01*
X105353627Y-50881111D02*
X105353638Y-50881100D01*
X101634288Y-48864000D02*
X99113919Y-48864000D01*
X79100000Y-46551131D02*
X79100000Y-46566196D01*
X148648300Y-40725924D02*
X148648300Y-43535500D01*
X168950000Y-79250000D02*
X168950000Y-72813123D01*
X117350108Y-38594700D02*
X118913588Y-38594700D01*
X101782486Y-77427919D02*
X101782500Y-77427905D01*
X76800000Y-101650000D02*
X76800000Y-98090754D01*
X215411928Y-65369100D02*
X221050197Y-65369100D01*
X277422300Y-50508500D02*
X283891680Y-50508500D01*
X245554400Y-73165600D02*
X245554400Y-72130500D01*
X226488094Y-71347904D02*
X226488094Y-72910091D01*
X125637700Y-77966535D02*
X125637700Y-79056355D01*
X261494392Y-99570894D02*
X261494392Y-99796935D01*
X57071316Y-98883394D02*
X57071300Y-98883378D01*
X118138092Y-39382674D02*
X118138092Y-39370196D01*
X105353627Y-50881111D02*
X103766019Y-50881111D01*
X207241900Y-72750500D02*
X214287933Y-72750500D01*
X124043100Y-38032638D02*
X124043100Y-37310800D01*
X79100000Y-41925393D02*
X79100000Y-46551131D01*
X285022511Y-68742801D02*
X265787855Y-68742801D01*
X104559800Y-51674960D02*
X104559800Y-51674892D01*
X179374300Y-103171674D02*
X179374300Y-103174494D01*
X70510700Y-43655240D02*
X70510700Y-46560656D01*
X169595921Y-41126800D02*
X181888172Y-41126800D01*
X101782500Y-77427905D02*
X101782500Y-75918148D01*
X196820068Y-76907900D02*
X198374760Y-76907900D01*
X178596000Y-103949994D02*
X180149800Y-103949994D01*
X284671900Y-51288720D02*
X284671900Y-51281220D01*
X129430800Y-80412527D02*
X129430800Y-80408584D01*
X218951411Y-35779301D02*
X218877797Y-35779301D01*
X23757300Y-47153900D02*
X23757300Y-42891600D01*
X168950000Y-79250000D02*
X178809565Y-79250000D01*
X222401537Y-61834143D02*
X225923807Y-61834143D01*
X134560000Y-20085908D02*
X134560000Y-19900000D01*
X59558331Y-31956900D02*
X65492025Y-31956900D01*
X45989500Y-45554900D02*
X50055732Y-45554900D01*
X187860600Y-43536300D02*
X187860600Y-37377692D01*
X149768200Y-81633600D02*
X149768200Y-79812772D01*
X98233862Y-74647996D02*
X97129564Y-74647996D01*
X149212954Y-23745800D02*
X160076549Y-23745800D01*
X77364454Y-97526300D02*
X83742763Y-97526300D01*
X250820308Y-100360400D02*
X258525081Y-100360400D01*
X276864430Y-29306500D02*
X276864447Y-29306483D01*
X131635200Y-40727562D02*
X131635200Y-54572812D01*
X259089442Y-99008082D02*
X260931580Y-99008082D01*
X246323740Y-55548100D02*
X250468191Y-55548100D01*
X175666500Y-71688912D02*
X175666500Y-66086601D01*
X67412132Y-31050000D02*
X69947856Y-31050000D01*
X238119700Y-34301100D02*
X238119700Y-34405500D01*
X124132588Y-37400288D02*
X127735850Y-37400288D01*
X47709964Y-33945064D02*
X49820189Y-33945064D01*
X179374300Y-79814735D02*
X179374300Y-103171674D01*
X168814000Y-28663823D02*
X168814000Y-40344879D01*
X257741638Y-29306500D02*
X276864430Y-29306500D01*
X221611500Y-61044052D02*
X221611483Y-61044069D01*
X175666500Y-66086601D02*
X175666500Y-66084285D01*
X174011700Y-64089000D02*
X174011700Y-64769211D01*
X62597838Y-83496126D02*
X62597838Y-72017697D01*
X156050000Y-64080400D02*
X154963200Y-64080400D01*
X176419685Y-65331100D02*
X192499907Y-65331100D01*
X57071300Y-98883378D02*
X57071300Y-84621188D01*
X197599700Y-31957521D02*
X197599700Y-36035836D01*
X49820189Y-33945064D02*
X49820190Y-33945063D01*
X97986088Y-39160500D02*
X86445509Y-39160500D01*
X117350108Y-38594700D02*
X117350109Y-38594699D01*
X85094627Y-41362200D02*
X79663193Y-41362200D01*
X105741313Y-36093940D02*
X105800000Y-36150000D01*
X101782500Y-88236292D02*
X101782500Y-78978098D01*
X112908100Y-96831100D02*
X112908100Y-96142667D01*
X227270681Y-72130500D02*
X227267697Y-72130500D01*
X276864447Y-29306483D02*
X276864447Y-28168646D01*
X196818332Y-36817200D02*
X196822458Y-36817200D01*
X197599700Y-63292533D02*
X197599700Y-64861605D01*
X156050000Y-70405020D02*
X156050000Y-64080400D01*
X148648300Y-43535500D02*
X149745657Y-43535500D01*
X168950000Y-79250000D02*
X168950000Y-81627900D01*
X99115547Y-75062189D02*
X99031921Y-74978563D01*
X133254400Y-25448711D02*
X133254400Y-23237906D01*
X133254400Y-25448711D02*
X133254400Y-27000955D01*
X78308210Y-47342944D02*
X78308217Y-47342937D01*
X221047682Y-57202600D02*
X219472700Y-57202600D01*
X149768200Y-79812772D02*
X149768216Y-79812756D01*
X241217729Y-72130500D02*
X238915861Y-72130500D01*
X302965506Y-99300004D02*
X302965510Y-99300000D01*
X84964264Y-47342944D02*
X79876748Y-47342944D01*
X105353638Y-50881100D02*
X108459666Y-50881100D01*
X285735300Y-101008391D02*
X285735300Y-100566797D01*
X193062500Y-64079400D02*
X196812815Y-64079400D01*
X301397464Y-99300004D02*
X302965506Y-99300004D01*
X66052861Y-30798765D02*
X66805597Y-30798765D01*
X245554384Y-73165563D02*
X243075753Y-73165563D01*
X139407195Y-55693358D02*
X139407195Y-78174448D01*
X174911002Y-65331100D02*
X176419685Y-65331100D01*
X169595921Y-41126800D02*
X169587883Y-41126800D01*
X296667500Y-27606300D02*
X296667500Y-27619900D01*
X23757300Y-42891600D02*
X31478775Y-42891600D01*
X148648300Y-40719174D02*
X148648300Y-24310454D01*
X188442193Y-76907900D02*
X196820068Y-76907900D01*
X302185600Y-98511893D02*
X302185600Y-68084800D01*
X294873461Y-67226100D02*
X285451354Y-67226100D01*
X132964221Y-37635780D02*
X131921529Y-38678471D01*
X129430800Y-95014972D02*
X129430800Y-80412527D01*
X103766019Y-50881111D02*
X103766008Y-50881100D01*
X82663421Y-88800000D02*
X101218792Y-88800000D01*
X218951400Y-34864126D02*
X218951400Y-35779300D01*
X85655500Y-39948603D02*
X85655500Y-40801327D01*
X85526236Y-51420804D02*
X85526236Y-47904916D01*
X226488100Y-71347898D02*
X226488094Y-71347904D01*
X177355972Y-102748907D02*
X177355991Y-103386831D01*
X238119700Y-34301100D02*
X238119700Y-32606107D01*
X163905900Y-28100000D02*
X168250177Y-28100000D01*
X108461624Y-36481900D02*
X106677931Y-36481900D01*
X323258147Y-48654900D02*
X319332200Y-48654900D01*
X279315661Y-101570700D02*
X285172991Y-101570700D01*
X180149800Y-103949994D02*
X180149806Y-103950000D01*
X226488094Y-72910091D02*
X226488100Y-72910097D01*
X85655500Y-38370452D02*
X85655494Y-38370458D01*
X238648552Y-55526949D02*
X238669703Y-55548100D01*
X82100000Y-86650000D02*
X82100000Y-88236579D01*
X85655494Y-38370458D02*
X85655494Y-39948597D01*
X101222522Y-75358170D02*
X99830108Y-75358170D01*
X40300000Y-70152955D02*
X40300000Y-98701378D01*
X284671900Y-66461496D02*
X284671900Y-68392190D01*
X50617200Y-44993432D02*
X50617200Y-34742044D01*
X39740772Y-99260624D02*
X38962043Y-99260649D01*
X302200400Y-68084800D02*
X312026500Y-68084800D01*
X238130400Y-99370000D02*
X230590880Y-99370000D01*
X316511200Y-26955600D02*
X316511200Y-25863953D01*
X156043772Y-70411248D02*
X156050000Y-70405020D01*
X197599700Y-63292533D02*
X197599694Y-63292539D01*
X242382352Y-72878357D02*
X242375532Y-72875532D01*
X187852790Y-81649528D02*
X187879600Y-81622718D01*
X65662100Y-48943200D02*
X65662100Y-47902003D01*
X121462700Y-55707000D02*
X123698600Y-55707000D01*
X66221159Y-47342944D02*
X69728403Y-47342944D01*
X116301543Y-76954965D02*
X117220565Y-76954965D01*
X138839724Y-78741919D02*
X136917580Y-78741919D01*
X102200000Y-50316100D02*
X102200000Y-49429712D01*
X257793900Y-54255643D02*
X257793900Y-52895500D01*
X109024600Y-50316166D02*
X109024600Y-39387188D01*
X51404860Y-33945063D02*
X51404861Y-33945064D01*
X30904100Y-69589100D02*
X39736145Y-69589100D01*
X297162500Y-49946333D02*
X297162500Y-49030300D01*
X238119700Y-34301100D02*
X219514426Y-34301100D01*
X148651675Y-40722549D02*
X148648300Y-40725924D01*
X277422300Y-50447700D02*
X277422300Y-50508500D01*
X319337885Y-62537000D02*
X323257759Y-62537000D01*
X103766008Y-50881100D02*
X102765000Y-50881100D01*
X323819900Y-61974859D02*
X323819900Y-49216653D01*
X57818800Y-70246700D02*
X57818800Y-70344933D01*
X32042400Y-42327975D02*
X32042400Y-29024973D01*
X57818800Y-70344933D02*
X62034303Y-70344933D01*
X230025800Y-98327500D02*
X230025800Y-98804920D01*
X78308217Y-47342937D02*
X79876741Y-47342937D01*
X285444620Y-50508500D02*
X296600333Y-50508500D01*
X174007200Y-102185400D02*
X176792448Y-102185400D01*
X164290494Y-102874634D02*
X164290500Y-102745667D01*
X188421092Y-36817200D02*
X196818332Y-36817200D01*
X45989500Y-47541300D02*
X45989500Y-45554900D01*
X221611500Y-61044052D02*
X221611500Y-57766418D01*
X197599700Y-37594442D02*
X197599700Y-63292533D01*
X70510700Y-31612844D02*
X70510700Y-43655240D01*
X302200400Y-68084800D02*
X302200400Y-68069600D01*
X173443035Y-103436700D02*
X164852533Y-103436700D01*
X85655494Y-39948597D02*
X85655500Y-39948603D01*
X102565359Y-78195200D02*
X115719630Y-78195200D01*
X135513100Y-79057997D02*
X135513100Y-78414800D01*
X118311150Y-77406700D02*
X125077865Y-77406700D01*
X169513123Y-72250000D02*
X175105412Y-72250000D01*
X50617200Y-34742044D02*
X50617200Y-34732725D01*
X262057857Y-100360400D02*
X276697290Y-100360400D01*
X265224800Y-69305856D02*
X265224800Y-70439300D01*
X183013668Y-43536300D02*
X187860600Y-43536300D01*
X168950000Y-81627900D02*
X168809300Y-81627900D01*
X196812815Y-64079400D02*
X196817495Y-64079400D01*
X252230325Y-54818200D02*
X257231343Y-54818200D01*
X77539261Y-71932065D02*
X77539241Y-72684320D01*
X182450000Y-42972632D02*
X182450000Y-41688628D01*
D57*
X62597838Y-72017697D02*
X62597838Y-72100000D01*
D56*
X286077739Y-100521762D02*
X295819722Y-100521762D01*
X128863961Y-26226000D02*
X132477111Y-26226000D01*
X51404861Y-33945064D02*
X58433625Y-33945064D01*
X193062900Y-103389486D02*
X193062900Y-102190400D01*
X180149806Y-103950000D02*
X192502386Y-103950000D01*
X226488100Y-62398436D02*
X226488100Y-71347898D01*
X174573589Y-65331100D02*
X174911002Y-65331100D01*
X285022500Y-68742800D02*
X284671900Y-68742800D01*
X160640100Y-24309351D02*
X160640100Y-27535700D01*
X163727333Y-102182500D02*
X154974300Y-102182500D01*
X242375532Y-72875532D02*
X241922373Y-72422373D01*
X82100000Y-73250000D02*
X78104906Y-73250000D01*
X160800000Y-79250000D02*
X165238873Y-79250000D01*
X161204400Y-28100000D02*
X163905900Y-28100000D01*
X101782486Y-78978084D02*
X101782486Y-77427919D01*
X102565359Y-78195200D02*
X102549795Y-78195200D01*
X174007200Y-102185400D02*
X174007200Y-102872535D01*
X79876741Y-47342937D02*
X79876748Y-47342944D01*
X47150000Y-29116900D02*
X47150000Y-33385100D01*
X244766064Y-55548100D02*
X246323740Y-55548100D01*
X118138092Y-39382674D02*
X118138092Y-50286149D01*
X31479427Y-28462000D02*
X26574500Y-28462000D01*
X86445509Y-39160500D02*
X86443603Y-39160500D01*
X166357366Y-81627900D02*
X168809300Y-81627900D01*
X105216159Y-35908165D02*
X104796461Y-35908165D01*
X218877797Y-35779301D02*
X216001335Y-35779298D01*
X128639104Y-79620900D02*
X128639124Y-79620880D01*
X197599700Y-76128268D02*
X197599700Y-76132840D01*
X238130400Y-99370000D02*
X238130400Y-72915961D01*
X221611500Y-64807797D02*
X221611500Y-62623571D01*
X285451354Y-67226100D02*
X285436504Y-67226100D01*
X124043100Y-37310800D02*
X124132588Y-37400288D01*
X116281800Y-77633030D02*
X116281800Y-77406700D01*
X104559800Y-54055000D02*
X104559800Y-51674960D01*
X226488100Y-75537700D02*
X226488100Y-72910097D01*
X118701943Y-50850000D02*
X120899630Y-50850000D01*
X245554400Y-56336436D02*
X245554400Y-72130500D01*
X296667500Y-27604800D02*
X296667500Y-27606300D01*
X101782500Y-78978098D02*
X101782486Y-78978084D01*
X131630187Y-40722549D02*
X131735122Y-40617614D01*
X113471367Y-95579400D02*
X128866372Y-95579400D01*
X130218484Y-79620900D02*
X128639104Y-79620900D01*
X301397460Y-99300000D02*
X301397464Y-99300004D01*
X132192588Y-55130200D02*
X138844037Y-55130200D01*
X69728405Y-47342946D02*
X71288187Y-47342946D01*
X214850000Y-72188433D02*
X214850000Y-65931028D01*
X222401537Y-61834143D02*
X222400928Y-61834143D01*
X130218484Y-79620900D02*
X134950197Y-79620900D01*
X168814000Y-40344879D02*
X168814000Y-41900683D01*
X109818794Y-38594700D02*
X109817088Y-38594700D01*
X297862724Y-99300000D02*
X301397460Y-99300000D01*
X278000000Y-100900000D02*
X278214644Y-101114644D01*
X187879600Y-81622718D02*
X187879600Y-77470493D01*
X62597838Y-71988053D02*
X62612660Y-72002875D01*
X259089400Y-99796081D02*
X259089400Y-99008100D01*
X315947247Y-25300000D02*
X297231629Y-25300000D01*
X98550000Y-48300081D02*
X98550000Y-39724412D01*
X197599700Y-36035836D02*
X197599699Y-36035837D01*
X197599700Y-64861605D02*
X197599700Y-76128268D01*
X128300000Y-36836138D02*
X128300000Y-26789961D01*
X296667500Y-25864129D02*
X296667500Y-27606300D01*
X283891680Y-50508500D02*
X285444620Y-50508500D01*
X71288187Y-47342946D02*
X71288189Y-47342944D01*
X168814000Y-41900683D02*
X168814000Y-43532300D01*
X71288189Y-47342944D02*
X78308210Y-47342944D01*
X296517103Y-100232897D02*
X297158160Y-99591840D01*
X193062500Y-64768507D02*
X193062500Y-64079400D01*
X62597838Y-70908468D02*
X62597838Y-71988053D01*
X49820190Y-33945063D02*
X51404860Y-33945063D01*
X109024600Y-37800506D02*
X109024600Y-39387188D01*
X238915861Y-72130500D02*
X237345084Y-72130500D01*
X238684007Y-32041800D02*
X257179300Y-32041800D01*
X277428293Y-27604800D02*
X296667500Y-27604800D01*
X109024600Y-37800506D02*
X109024600Y-37044876D01*
X136127956Y-78414846D02*
X135513085Y-78414846D01*
X318775100Y-65542800D02*
X318775100Y-63099785D01*
X250258800Y-99370000D02*
X250258800Y-99798892D01*
X121462700Y-51413070D02*
X121462700Y-55707000D01*
X32042400Y-29024973D02*
G75*
G03*
X31479427Y-28462000I-563000J-27D01*
G01*
X168250177Y-28100000D02*
G75*
G02*
X168814000Y-28663823I23J-563800D01*
G01*
X181888172Y-41126800D02*
G75*
G02*
X182450000Y-41688628I28J-561800D01*
G01*
X197599700Y-76132840D02*
G75*
G03*
X198374760Y-76907900I775100J40D01*
G01*
X285172991Y-101570700D02*
G75*
G03*
X285735300Y-101008391I9J562300D01*
G01*
X132479445Y-26226000D02*
G75*
G02*
X133254400Y-27000955I-45J-775000D01*
G01*
X216001335Y-35779298D02*
G75*
G02*
X215437102Y-35215141I-35J564198D01*
G01*
X65492025Y-31956900D02*
G75*
G03*
X66052900Y-31396025I-25J560900D01*
G01*
X174011700Y-64769211D02*
G75*
G03*
X174573589Y-65331100I561900J11D01*
G01*
X82100000Y-88236579D02*
G75*
G03*
X82663421Y-88800000I563400J-21D01*
G01*
X219514426Y-34301100D02*
G75*
G03*
X218951400Y-34864126I-26J-563000D01*
G01*
X175666500Y-66084285D02*
G75*
G02*
X176419685Y-65331100I753200J-15D01*
G01*
X104559800Y-51674892D02*
G75*
G03*
X103766008Y-50881100I-793800J-8D01*
G01*
X276697290Y-100360400D02*
G75*
G02*
X278000003Y-100899997I10J-1842300D01*
G01*
X40300000Y-98701378D02*
G75*
G02*
X39740772Y-99260600I-559200J-22D01*
G01*
X102549795Y-78195200D02*
G75*
G02*
X101782500Y-77427905I5J767300D01*
G01*
X160640100Y-27535700D02*
G75*
G03*
X161204400Y-28100000I564300J0D01*
G01*
X57071300Y-84621188D02*
G75*
G02*
X57634588Y-84057900I563300J-12D01*
G01*
X206678000Y-73314400D02*
G75*
G02*
X207241900Y-72750500I563900J0D01*
G01*
X178596000Y-103949994D02*
G75*
G03*
X179374294Y-103171674I0J778294D01*
G01*
X238119700Y-32606107D02*
G75*
G02*
X238684007Y-32041800I564300J7D01*
G01*
X117350109Y-38594699D02*
G75*
G02*
X118138101Y-39382674I-9J-788001D01*
G01*
X148648300Y-24310454D02*
G75*
G02*
X149212954Y-23745800I564700J-46D01*
G01*
X187860600Y-37377692D02*
G75*
G02*
X188421092Y-36817200I560500J-8D01*
G01*
X54029074Y-98883394D02*
G75*
G03*
X53118318Y-99260667I26J-1288006D01*
G01*
X214850000Y-65931028D02*
G75*
G02*
X215411928Y-65369100I561900J28D01*
G01*
X323819900Y-49216653D02*
G75*
G03*
X323258147Y-48654900I-561800J-47D01*
G01*
X125637700Y-79056355D02*
G75*
G03*
X126202245Y-79620900I564500J-45D01*
G01*
X214287933Y-72750500D02*
G75*
G03*
X214850000Y-72188433I-33J562100D01*
G01*
X225923807Y-61834143D02*
G75*
G02*
X226488057Y-62398436I-7J-564257D01*
G01*
X197599699Y-36035837D02*
G75*
G02*
X196818332Y-36817199I-781399J37D01*
G01*
X297158160Y-99591840D02*
G75*
G02*
X297862724Y-99300016I704540J-704560D01*
G01*
X192502386Y-103950000D02*
G75*
G03*
X193062900Y-103389486I14J560500D01*
G01*
X276864447Y-28168646D02*
G75*
G02*
X277428293Y-27604747I563853J46D01*
G01*
X238915861Y-72130500D02*
G75*
G03*
X238130400Y-72915961I39J-785500D01*
G01*
X222400928Y-61834143D02*
G75*
G03*
X221611443Y-62623571I-28J-789457D01*
G01*
X39736145Y-69589100D02*
G75*
G02*
X40300000Y-70152955I-45J-563900D01*
G01*
X244766064Y-55548100D02*
G75*
G02*
X245554400Y-56336436I36J-788300D01*
G01*
X323257759Y-62537000D02*
G75*
G03*
X323819900Y-61974859I41J562100D01*
G01*
X78308217Y-47342937D02*
G75*
G03*
X79100037Y-46551131I-17J791837D01*
G01*
X66805597Y-30798765D02*
G75*
G02*
X67050001Y-30899999I3J-345635D01*
G01*
X62034303Y-70344933D02*
G75*
G02*
X62597867Y-70908468I-3J-563567D01*
G01*
X58996200Y-32519031D02*
G75*
G02*
X59558331Y-31956900I562100J31D01*
G01*
X221050197Y-65369100D02*
G75*
G03*
X221611500Y-64807797I3J561300D01*
G01*
X196820068Y-76907900D02*
G75*
G03*
X197599700Y-76128268I32J779600D01*
G01*
X133254400Y-23237906D02*
G75*
G02*
X133849998Y-21799998I2033500J6D01*
G01*
X198163621Y-31393600D02*
G75*
G03*
X197599700Y-31957521I-21J-563900D01*
G01*
X62036064Y-84057900D02*
G75*
G03*
X62597900Y-83496126I36J561800D01*
G01*
X109818794Y-38594700D02*
G75*
G02*
X109024600Y-37800506I6J794200D01*
G01*
X123481038Y-38594700D02*
G75*
G03*
X124043100Y-38032638I-38J562100D01*
G01*
X120899630Y-50850000D02*
G75*
G02*
X121462700Y-51413070I-30J-563100D01*
G01*
X109024600Y-37044876D02*
G75*
G03*
X108461624Y-36481900I-563000J-24D01*
G01*
X278214644Y-101114644D02*
G75*
G03*
X279315661Y-101570720I1101056J1101044D01*
G01*
X112908100Y-96142667D02*
G75*
G02*
X113471367Y-95579400I563300J-33D01*
G01*
X101218792Y-88800000D02*
G75*
G03*
X101782500Y-88236292I8J563700D01*
G01*
X109817088Y-38594700D02*
G75*
G03*
X109024600Y-39387188I12J-792500D01*
G01*
X318775100Y-63099785D02*
G75*
G02*
X319337885Y-62537000I562800J-15D01*
G01*
X105800000Y-36150000D02*
G75*
G03*
X105216159Y-35908182I-583800J-583800D01*
G01*
X301397464Y-99300004D02*
G75*
G03*
X302185604Y-98511893I36J788104D01*
G01*
X284671900Y-51281220D02*
G75*
G02*
X285444620Y-50508500I772700J20D01*
G01*
X128639124Y-79620880D02*
G75*
G02*
X129430820Y-80412527I76J-791620D01*
G01*
X221611483Y-61044069D02*
G75*
G03*
X222401537Y-61834117I790017J-31D01*
G01*
X169587883Y-41126800D02*
G75*
G03*
X168814000Y-41900683I17J-773900D01*
G01*
X164290500Y-102745667D02*
G75*
G03*
X163727333Y-102182500I-563200J-33D01*
G01*
X70510700Y-46565455D02*
G75*
G03*
X71288189Y-47343000I777500J-45D01*
G01*
X47150000Y-33385100D02*
G75*
G03*
X47709964Y-33945100I560000J0D01*
G01*
X168905900Y-81531300D02*
G75*
G02*
X168809300Y-81627900I-96600J0D01*
G01*
X285451354Y-67226100D02*
G75*
G03*
X284672000Y-68005544I46J-779400D01*
G01*
X175105412Y-72250000D02*
G75*
G03*
X175666500Y-71688912I-12J561100D01*
G01*
X69947856Y-31050000D02*
G75*
G02*
X70510700Y-31612844I44J-562800D01*
G01*
X99830108Y-75358170D02*
G75*
G02*
X99115537Y-75062199I-8J1010570D01*
G01*
X99113919Y-48864000D02*
G75*
G02*
X98550000Y-48300081I-19J563900D01*
G01*
X138844037Y-55130200D02*
G75*
G02*
X139407200Y-55693358I-37J-563200D01*
G01*
X197599694Y-63292539D02*
G75*
G02*
X196812815Y-64079394I-786894J39D01*
G01*
X129430800Y-80408584D02*
G75*
G02*
X130218484Y-79620900I787700J-16D01*
G01*
X215437188Y-31957060D02*
G75*
G03*
X214873730Y-31393612I-563488J-40D01*
G01*
X78104906Y-73250000D02*
G75*
G02*
X77539200Y-72684320I-6J565700D01*
G01*
X50617200Y-34732725D02*
G75*
G02*
X51404861Y-33945000I787700J25D01*
G01*
X257231343Y-54818200D02*
G75*
G03*
X257793900Y-54255643I-43J562600D01*
G01*
X83742763Y-97526300D02*
G75*
G03*
X83758200Y-97510926I37J15400D01*
G01*
X178809565Y-79250000D02*
G75*
G02*
X179374300Y-79814735I35J-564700D01*
G01*
X79663193Y-41362200D02*
G75*
G03*
X79100000Y-41925393I7J-563200D01*
G01*
X85655500Y-40801327D02*
G75*
G02*
X85094627Y-41362200I-560900J27D01*
G01*
X251550000Y-55100000D02*
G75*
G02*
X252230325Y-54818211I680300J-680300D01*
G01*
X101782486Y-78978084D02*
G75*
G02*
X102565359Y-78195186I782914J-16D01*
G01*
X133850000Y-21800000D02*
G75*
G03*
X134560003Y-20085908I-1714100J1714100D01*
G01*
X105353627Y-50881111D02*
G75*
G03*
X104559711Y-51674960I-27J-793889D01*
G01*
X295819722Y-100521762D02*
G75*
G03*
X296517096Y-100232890I-22J986262D01*
G01*
X101782500Y-75918148D02*
G75*
G03*
X101222522Y-75358100I-560000J48D01*
G01*
X196817495Y-64079400D02*
G75*
G02*
X197599700Y-64861605I5J-782200D01*
G01*
X102200000Y-49429712D02*
G75*
G03*
X101634288Y-48864000I-565700J12D01*
G01*
X250468191Y-55548100D02*
G75*
G03*
X251550003Y-55100003I9J1529900D01*
G01*
X99031921Y-74978563D02*
G75*
G03*
X98233862Y-74648017I-798021J-798037D01*
G01*
X245554400Y-56317440D02*
G75*
G02*
X246323740Y-55548100I769300J40D01*
G01*
X294887933Y-67240572D02*
G75*
G03*
X294873461Y-67226167I-14433J-28D01*
G01*
X221611500Y-57766418D02*
G75*
G03*
X221047682Y-57202600I-563800J18D01*
G01*
X128866372Y-95579400D02*
G75*
G03*
X129430800Y-95014972I28J564400D01*
G01*
X131921529Y-38678471D02*
G75*
G03*
X131630213Y-39381833I703371J-703329D01*
G01*
X226488094Y-71347904D02*
G75*
G03*
X227270681Y-72130506I782606J4D01*
G01*
X250258800Y-99798892D02*
G75*
G03*
X250820308Y-100360400I561500J-8D01*
G01*
X192499907Y-65331100D02*
G75*
G03*
X193062500Y-64768507I-7J562600D01*
G01*
X265787855Y-68742801D02*
G75*
G03*
X265224801Y-69305856I45J-563099D01*
G01*
X136462235Y-78553309D02*
G75*
G03*
X136127956Y-78414881I-334235J-334291D01*
G01*
X49820190Y-33945063D02*
G75*
G02*
X50617137Y-34742044I10J-796937D01*
G01*
X139407195Y-78174448D02*
G75*
G02*
X138839724Y-78741895I-567495J48D01*
G01*
X136917580Y-78741919D02*
G75*
G02*
X136462253Y-78553291I20J643919D01*
G01*
X106677931Y-36481900D02*
G75*
G02*
X105741293Y-36093960I-31J1324600D01*
G01*
X257179300Y-29868838D02*
G75*
G02*
X257741638Y-29306500I562300J38D01*
G01*
X86443603Y-39160500D02*
G75*
G03*
X85655500Y-39948603I-3J-788100D01*
G01*
X175666500Y-66086601D02*
G75*
G03*
X174911002Y-65331100I-755500J1D01*
G01*
X297231629Y-25300000D02*
G75*
G03*
X296667500Y-25864129I-29J-564100D01*
G01*
X177355991Y-103386831D02*
G75*
G03*
X177919176Y-103950009I563209J31D01*
G01*
X115719630Y-78195200D02*
G75*
G03*
X116281800Y-77633030I-30J562200D01*
G01*
X79100000Y-46566196D02*
G75*
G03*
X79876748Y-47342900I776700J-4D01*
G01*
X179374300Y-103174494D02*
G75*
G03*
X180149806Y-103950000I775500J-6D01*
G01*
X302185600Y-98520090D02*
G75*
G03*
X302965510Y-99300000I779900J-10D01*
G01*
X133254400Y-36935226D02*
G75*
G02*
X132964201Y-37635760I-990700J26D01*
G01*
X165800000Y-81070534D02*
G75*
G03*
X166357366Y-81627900I557400J34D01*
G01*
X174007200Y-102872535D02*
G75*
G02*
X173443035Y-103436700I-564200J35D01*
G01*
X108459666Y-50881100D02*
G75*
G03*
X109024600Y-50316166I34J564900D01*
G01*
X196822458Y-36817200D02*
G75*
G02*
X197599700Y-37594442I42J-777200D01*
G01*
X65662100Y-47902003D02*
G75*
G02*
X66221159Y-47342900I559100J3D01*
G01*
X168950000Y-72813123D02*
G75*
G02*
X169513123Y-72250000I563100J23D01*
G01*
X85526236Y-47904916D02*
G75*
G03*
X84964264Y-47342964I-561936J16D01*
G01*
X164852533Y-103436700D02*
G75*
G02*
X164290500Y-102874634I-33J562000D01*
G01*
X69728405Y-47342946D02*
G75*
G03*
X70510646Y-46560656I-5J782246D01*
G01*
X131635200Y-54572812D02*
G75*
G03*
X132192588Y-55130200I557400J12D01*
G01*
X261494392Y-99796935D02*
G75*
G03*
X262057857Y-100360408I563508J35D01*
G01*
X187879600Y-77470493D02*
G75*
G02*
X188442193Y-76907900I562600J-7D01*
G01*
X160076549Y-23745800D02*
G75*
G02*
X160640100Y-24309351I-49J-563600D01*
G01*
X165238873Y-79250000D02*
G75*
G02*
X165800000Y-79811127I27J-561100D01*
G01*
X128300000Y-26789961D02*
G75*
G02*
X128863961Y-26226000I564000J-39D01*
G01*
X85655494Y-38370458D02*
G75*
G03*
X86445509Y-39160506I790006J-42D01*
G01*
X296600333Y-50508500D02*
G75*
G03*
X297162500Y-49946333I-33J562200D01*
G01*
X241922373Y-72422373D02*
G75*
G03*
X241217729Y-72130474I-704673J-704627D01*
G01*
X238130400Y-72915816D02*
G75*
G03*
X237345084Y-72130500I-785300J16D01*
G01*
X168814000Y-40344879D02*
G75*
G03*
X169595921Y-41126800I781900J-21D01*
G01*
X316511200Y-25863953D02*
G75*
G03*
X315947247Y-25300000I-564000J-47D01*
G01*
X149768216Y-79812756D02*
G75*
G02*
X150330980Y-79250016I562784J-44D01*
G01*
X50055732Y-45554900D02*
G75*
G03*
X50617200Y-44993432I-32J561500D01*
G01*
X260931580Y-99008082D02*
G75*
G02*
X261494418Y-99570894I20J-562818D01*
G01*
X283891680Y-50508500D02*
G75*
G02*
X284671900Y-51288720I20J-780200D01*
G01*
X284671900Y-68392190D02*
G75*
G03*
X285022511Y-68742800I350600J-10D01*
G01*
X117220565Y-76954965D02*
G75*
G02*
X117450010Y-77049990I35J-324435D01*
G01*
X117450000Y-77050000D02*
G75*
G03*
X118311150Y-77406721I861200J861200D01*
G01*
X102765000Y-50881100D02*
G75*
G02*
X102200000Y-50316100I0J565000D01*
G01*
X118138092Y-39370196D02*
G75*
G02*
X118913588Y-38594692I775508J-4D01*
G01*
X258525081Y-100360400D02*
G75*
G03*
X259089400Y-99796081I19J564300D01*
G01*
X176792448Y-102185400D02*
G75*
G02*
X177355900Y-102748907I-48J-563500D01*
G01*
X118138092Y-50286149D02*
G75*
G03*
X118701943Y-50849908I563808J49D01*
G01*
X58433625Y-33945064D02*
G75*
G03*
X58996164Y-33382489I-25J562564D01*
G01*
X134950197Y-79620900D02*
G75*
G03*
X135513100Y-79057997I3J562900D01*
G01*
X76800000Y-98090754D02*
G75*
G02*
X77364454Y-97526300I564500J-46D01*
G01*
X227267697Y-72130500D02*
G75*
G03*
X226488100Y-72910097I3J-779600D01*
G01*
X182450000Y-42972632D02*
G75*
G03*
X183013668Y-43536300I563700J32D01*
G01*
X98550000Y-39724412D02*
G75*
G03*
X97986088Y-39160500I-563900J12D01*
G01*
X31478775Y-42891600D02*
G75*
G03*
X32042400Y-42327975I25J563600D01*
G01*
X243075753Y-73165563D02*
G75*
G02*
X242382371Y-72878338I47J980663D01*
G01*
X285436504Y-67226100D02*
G75*
G02*
X284671900Y-66461496I-4J764600D01*
G01*
X67098726Y-30945914D02*
G75*
G03*
X67410840Y-31049469I301774J387414D01*
G01*
X230590880Y-99370000D02*
G75*
G02*
X230025800Y-98804920I20J565100D01*
G01*
X125077865Y-77406700D02*
G75*
G02*
X125637700Y-77966535I35J-559800D01*
G01*
X127735850Y-37400288D02*
G75*
G03*
X128299988Y-36836138I-50J564188D01*
G01*
X132477111Y-26226000D02*
G75*
G03*
X133254400Y-25448711I-11J777300D01*
G01*
D57*
X113626700Y-36578777D02*
X113626700Y-34838517D01*
X113204583Y-34416400D02*
X104953300Y-34416400D01*
X118850200Y-37002700D02*
X114050623Y-37002700D01*
X114050623Y-37002700D02*
G75*
G02*
X113626700Y-36578777I-23J423900D01*
G01*
X113626700Y-34838517D02*
G75*
G03*
X113204583Y-34416400I-422100J17D01*
G01*
X124121600Y-35776900D02*
X124121600Y-31010000D01*
X150745000Y-31010000D02*
X150745000Y-33665522D01*
X152340000Y-34514889D02*
X152340000Y-35140000D01*
X151167778Y-34088300D02*
X151913411Y-34088300D01*
X150745000Y-33665522D02*
G75*
G03*
X151167778Y-34088300I422800J22D01*
G01*
X151913411Y-34088300D02*
G75*
G02*
X152340000Y-34514889I-11J-426600D01*
G01*
X89648449Y-34940608D02*
X89648449Y-32458298D01*
X99624900Y-35364600D02*
X90072441Y-35364600D01*
X89224551Y-32034400D02*
X85890100Y-32034400D01*
X89648449Y-32458298D02*
G75*
G03*
X89224551Y-32034451I-423849J-2D01*
G01*
X90072441Y-35364600D02*
G75*
G02*
X89648400Y-34940608I-41J424000D01*
G01*
X72910544Y-29307000D02*
X66209700Y-29307000D01*
X80519500Y-32702400D02*
X73757526Y-32702400D01*
X73334200Y-32279074D02*
X73334200Y-29730656D01*
X73757526Y-32702400D02*
G75*
G02*
X73334200Y-32279074I-26J423300D01*
G01*
X73334200Y-29730656D02*
G75*
G03*
X72910544Y-29307000I-423700J-44D01*
G01*
X51123451Y-30255200D02*
X60881300Y-30255200D01*
X46422500Y-27619000D02*
X50278704Y-27619000D01*
X50701500Y-28041796D02*
X50701500Y-29833249D01*
X50278704Y-27619000D02*
G75*
G02*
X50701500Y-28041796I-4J-422800D01*
G01*
X50701500Y-29833249D02*
G75*
G03*
X51123451Y-30255200I422000J49D01*
G01*
X31350000Y-26775747D02*
X31366892Y-26758855D01*
X26574500Y-26962000D02*
X26574500Y-26758855D01*
X36074400Y-28421308D02*
X36074400Y-26777083D01*
X41151100Y-28844800D02*
X36497892Y-28844800D01*
X36074400Y-26777083D02*
X36075736Y-26775747D01*
X26760753Y-26775747D02*
X31350000Y-26775747D01*
X26574500Y-26962000D02*
G75*
G02*
X26760753Y-26775700I186300J0D01*
G01*
X36497892Y-28844800D02*
G75*
G02*
X36074400Y-28421308I8J423500D01*
G01*
X21949598Y-48653900D02*
X23757300Y-48653900D01*
X19435700Y-28886277D02*
X19435700Y-31797629D01*
X21526500Y-37830311D02*
X21526500Y-48230802D01*
X21374500Y-28462000D02*
X19859977Y-28462000D01*
X19859977Y-28462000D02*
G75*
G03*
X19435700Y-28886277I23J-424300D01*
G01*
X21526500Y-48230802D02*
G75*
G03*
X21949598Y-48653900I423100J2D01*
G01*
X19435700Y-31797629D02*
G75*
G03*
X19446087Y-31822651I35400J29D01*
G01*
X43827600Y-46198500D02*
X43827600Y-48615761D01*
X44251039Y-49039200D02*
X45911000Y-49039200D01*
X28957300Y-46622879D02*
X28957300Y-47153900D01*
X32094200Y-46203074D02*
X32089626Y-46198500D01*
X32089626Y-46198500D02*
X29381679Y-46198500D01*
X43827600Y-48615761D02*
G75*
G03*
X44251039Y-49039200I423400J-39D01*
G01*
X29381679Y-46198500D02*
G75*
G03*
X28957300Y-46622879I21J-424400D01*
G01*
X51182400Y-36259544D02*
X51182400Y-47813400D01*
X65505300Y-50435000D02*
X60289905Y-50435000D01*
X59442473Y-35835700D02*
X51606244Y-35835700D01*
X59866000Y-50011095D02*
X59866000Y-36259227D01*
X59866000Y-36259227D02*
G75*
G03*
X59442473Y-35835700I-423500J27D01*
G01*
X60289905Y-50435000D02*
G75*
G02*
X59866000Y-50011095I-5J423900D01*
G01*
X51606244Y-35835700D02*
G75*
G03*
X51182400Y-36259544I-44J-423800D01*
G01*
X80762100Y-52479303D02*
X80762100Y-49909589D01*
X80339311Y-49486800D02*
X70833700Y-49486800D01*
X85291600Y-52902300D02*
X81185097Y-52902300D01*
X81185097Y-52902300D02*
G75*
G02*
X80762100Y-52479303I3J423000D01*
G01*
X80762100Y-49909589D02*
G75*
G03*
X80339311Y-49486800I-422800J-11D01*
G01*
X90662200Y-50432700D02*
X90662200Y-52234300D01*
X104403000Y-55546800D02*
X100254222Y-55546800D01*
X99829800Y-55122378D02*
X99829800Y-50870612D01*
X100254222Y-55546800D02*
G75*
G02*
X99829800Y-55122378I-22J424400D01*
G01*
X119576424Y-54598600D02*
X109731400Y-54598600D01*
X120000000Y-56780808D02*
X120000000Y-55022176D01*
X123620100Y-57204900D02*
X120424092Y-57204900D01*
X120424092Y-57204900D02*
G75*
G02*
X120000000Y-56780808I8J424100D01*
G01*
X120000000Y-55022176D02*
G75*
G03*
X119576424Y-54598600I-423600J-24D01*
G01*
X129294800Y-46850000D02*
X129294800Y-55979100D01*
X149779300Y-45042673D02*
X149758892Y-45022265D01*
X129294800Y-55979100D02*
X128891500Y-55979100D01*
X149779300Y-46850000D02*
X149779300Y-45042673D01*
X154972127Y-43535500D02*
X157579234Y-43535500D01*
X154958892Y-43522265D02*
X154972127Y-43535500D01*
X163650000Y-42350000D02*
X163650000Y-44607066D01*
X158002100Y-43112634D02*
X158002100Y-42407000D01*
X164075234Y-45032300D02*
X168814000Y-45032300D01*
X157579234Y-43535500D02*
G75*
G03*
X158002100Y-43112634I-34J422900D01*
G01*
X163650000Y-44607066D02*
G75*
G03*
X164075234Y-45032300I425200J-34D01*
G01*
X174014000Y-43532300D02*
X180929340Y-43532300D01*
X181772292Y-45036300D02*
X187860600Y-45036300D01*
X181350000Y-43952960D02*
X181350000Y-44614008D01*
X180929340Y-43532300D02*
G75*
G02*
X181350000Y-43952960I-40J-420700D01*
G01*
X181350000Y-44614008D02*
G75*
G03*
X181772292Y-45036300I422300J8D01*
G01*
X194543454Y-43536300D02*
X193060600Y-43536300D01*
X194968000Y-37620600D02*
X194968000Y-43111754D01*
X214800000Y-37618800D02*
X218688361Y-37618800D01*
X194968000Y-43111754D02*
G75*
G02*
X194543454Y-43536300I-424500J-46D01*
G01*
X218688361Y-37618800D02*
G75*
G03*
X219030000Y-37277246I39J341600D01*
G01*
X232802525Y-35278640D02*
X224144300Y-35278640D01*
X233352457Y-35506440D02*
X233359257Y-35509256D01*
X238276539Y-35897265D02*
X234067972Y-35897265D01*
X233359257Y-35509256D02*
X233520491Y-35670491D01*
X224144300Y-35278640D02*
X224144300Y-35507200D01*
X234067972Y-35897265D02*
G75*
G02*
X233520503Y-35670479I28J774265D01*
G01*
X233352457Y-35506440D02*
G75*
G03*
X232802525Y-35278612I-549957J-549860D01*
G01*
X257413900Y-33523300D02*
X243291300Y-33523300D01*
X243291300Y-33523300D02*
X243291300Y-33861900D01*
X269480400Y-30173799D02*
X262739304Y-30173799D01*
X277021239Y-30798265D02*
X270747634Y-30798265D01*
X270198602Y-30570848D02*
X270028642Y-30400888D01*
X262315300Y-30597803D02*
X262315300Y-31228300D01*
X262739304Y-30173799D02*
G75*
G03*
X262315299Y-30597803I-4J-424001D01*
G01*
X270747634Y-30798265D02*
G75*
G02*
X270198581Y-30570869I-34J776465D01*
G01*
X270028642Y-30400888D02*
G75*
G03*
X269480400Y-30173790I-548242J-548212D01*
G01*
X284050000Y-28427242D02*
X282846396Y-28427242D01*
X289898269Y-29117686D02*
X296713604Y-29117686D01*
X289333928Y-28883928D02*
X289111241Y-28661241D01*
X284050000Y-28427242D02*
X288546318Y-28427242D01*
X284050000Y-28427242D02*
X283106443Y-28427242D01*
X289333928Y-28883928D02*
G75*
G03*
X289898269Y-29117711I564372J564328D01*
G01*
X288546318Y-28427242D02*
G75*
G02*
X289111240Y-28661242I-18J-798958D01*
G01*
X282846396Y-28427242D02*
G75*
G03*
X282035957Y-28762931I4J-1146158D01*
G01*
X301860400Y-27077988D02*
X301860400Y-27347800D01*
X308677570Y-27077988D02*
X301860400Y-27077988D01*
X309100200Y-28032370D02*
X309100200Y-27500618D01*
X316511200Y-28455600D02*
X309523430Y-28455600D01*
X309100200Y-27500618D02*
G75*
G03*
X308677570Y-27078000I-422600J18D01*
G01*
X309523430Y-28455600D02*
G75*
G02*
X309100200Y-28032370I-30J423200D01*
G01*
X321711200Y-26955600D02*
X325725284Y-26955600D01*
X326147900Y-27378216D02*
X326147900Y-46731561D01*
X325724561Y-47154900D02*
X319332200Y-47154900D01*
X325725284Y-26955600D02*
G75*
G02*
X326147900Y-27378216I16J-422600D01*
G01*
X326147900Y-46731561D02*
G75*
G02*
X325724561Y-47154900I-423300J-39D01*
G01*
X314132200Y-48654900D02*
X310773924Y-48654900D01*
X297084000Y-47257886D02*
X297084000Y-47532400D01*
X310350000Y-48230976D02*
X310350000Y-47681479D01*
X309926407Y-47257886D02*
X297084000Y-47257886D01*
X310350000Y-47681479D02*
G75*
G03*
X309926407Y-47257900I-423600J-21D01*
G01*
X310773924Y-48654900D02*
G75*
G02*
X310350000Y-48230976I-24J423900D01*
G01*
X277265500Y-48955900D02*
X277265500Y-48663993D01*
X277265500Y-48663993D02*
X283194939Y-48663993D01*
X284475381Y-49302446D02*
X291969615Y-49302446D01*
X283924098Y-49074098D02*
X283739597Y-48889597D01*
X283194939Y-48663993D02*
G75*
G02*
X283739586Y-48889608I-39J-770307D01*
G01*
X283924098Y-49074098D02*
G75*
G03*
X284475381Y-49302456I551302J551298D01*
G01*
X268900000Y-52743515D02*
X268900000Y-51415062D01*
X261838416Y-50382490D02*
X257983068Y-50382490D01*
X262262836Y-52749400D02*
X262262836Y-50806910D01*
X269323836Y-50991231D02*
X272250739Y-50991265D01*
X268905885Y-52749400D02*
X268900000Y-52743515D01*
X257559264Y-50806294D02*
X257559264Y-51414004D01*
X257983068Y-50382490D02*
G75*
G03*
X257559290Y-50806294I32J-423810D01*
G01*
X268900000Y-51415062D02*
G75*
G02*
X269323836Y-50991300I423800J-38D01*
G01*
X262262836Y-50806910D02*
G75*
G03*
X261838416Y-50382464I-424436J10D01*
G01*
X238540500Y-53709000D02*
X238540500Y-54056300D01*
X252657900Y-53709000D02*
X238540500Y-53709000D01*
X219394200Y-55704700D02*
X219394200Y-55466050D01*
X226193189Y-55693189D02*
X226341756Y-55841757D01*
X226893971Y-56070497D02*
X233477038Y-56070497D01*
X219394200Y-55466050D02*
X225644827Y-55466050D01*
X226341756Y-55841757D02*
G75*
G03*
X226893971Y-56070529I552244J552157D01*
G01*
X225644827Y-55466050D02*
G75*
G02*
X226193165Y-55693213I-27J-775450D01*
G01*
X211269200Y-61439700D02*
X211269200Y-57898558D01*
X211693058Y-57474700D02*
X214279800Y-57474700D01*
X193062500Y-59969959D02*
X193055144Y-59962603D01*
X193062500Y-62579400D02*
X193062500Y-59969959D01*
X211269200Y-57898558D02*
G75*
G02*
X211693058Y-57474700I423900J-42D01*
G01*
X187862500Y-64079400D02*
X178333244Y-64079400D01*
X177909366Y-63655522D02*
X177909366Y-63011773D01*
X177486593Y-62589000D02*
X174011700Y-62589000D01*
X177909366Y-63011773D02*
G75*
G03*
X177486593Y-62589034I-422766J-27D01*
G01*
X178333244Y-64079400D02*
G75*
G02*
X177909300Y-63655522I-44J423900D01*
G01*
X159200000Y-62836449D02*
X159200000Y-64006609D01*
X168257600Y-75374164D02*
X168257600Y-64089000D01*
X159550000Y-69173336D02*
X159550000Y-75376530D01*
X168257600Y-64089000D02*
X168811700Y-64089000D01*
X154963200Y-62580400D02*
X155133010Y-62410590D01*
X158776358Y-64430251D02*
X157872693Y-64430251D01*
X157450000Y-64852944D02*
X157450000Y-68326004D01*
X155133010Y-62410590D02*
X158774141Y-62410590D01*
X157873996Y-68750000D02*
X159126664Y-68750000D01*
X159973470Y-75800000D02*
X167831764Y-75800000D01*
X159200000Y-64006609D02*
G75*
G02*
X158776358Y-64430200I-423600J9D01*
G01*
X157450000Y-68326004D02*
G75*
G03*
X157873996Y-68750000I424000J4D01*
G01*
X159550000Y-75376530D02*
G75*
G03*
X159973470Y-75800000I423500J30D01*
G01*
X158774141Y-62410590D02*
G75*
G02*
X159199910Y-62836449I-41J-425810D01*
G01*
X157872693Y-64430251D02*
G75*
G03*
X157450051Y-64852944I7J-422649D01*
G01*
X167831764Y-75800000D02*
G75*
G03*
X168257600Y-75374164I36J425800D01*
G01*
X159126664Y-68750000D02*
G75*
G02*
X159550000Y-69173336I36J-423300D01*
G01*
X135591600Y-76916900D02*
X135591600Y-62688400D01*
X145675646Y-64080400D02*
X149763200Y-64080400D01*
X145250000Y-62650000D02*
X145250000Y-63654754D01*
X145250000Y-63654754D02*
G75*
G03*
X145675646Y-64080400I425600J-46D01*
G01*
X127950000Y-75970310D02*
X127950000Y-77719862D01*
X116438600Y-75545200D02*
X127524890Y-75545200D01*
X128372838Y-78142700D02*
X130320200Y-78142700D01*
X127524890Y-75545200D02*
G75*
G02*
X127950000Y-75970310I10J-425100D01*
G01*
X127950000Y-77719862D02*
G75*
G03*
X128372838Y-78142700I422800J-38D01*
G01*
X97364200Y-73166500D02*
X102767369Y-73166500D01*
X103190700Y-73589831D02*
X103190700Y-77075351D01*
X111110200Y-77075745D02*
X111110200Y-76493400D01*
X103615349Y-77500000D02*
X110685945Y-77500000D01*
X102767369Y-73166500D02*
G75*
G02*
X103190700Y-73589831I31J-423300D01*
G01*
X110685945Y-77500000D02*
G75*
G03*
X111110200Y-77075745I-45J424300D01*
G01*
X103190700Y-77075351D02*
G75*
G03*
X103615349Y-77500000I424600J-49D01*
G01*
X91993600Y-73834500D02*
X88473704Y-73834500D01*
X87626755Y-70440300D02*
X77696100Y-70440300D01*
X88050000Y-73410796D02*
X88050000Y-70863545D01*
X88473704Y-73834500D02*
G75*
G02*
X88050000Y-73410796I-4J423700D01*
G01*
X88050000Y-70863545D02*
G75*
G03*
X87626755Y-70440300I-423200J45D01*
G01*
X62600000Y-68750000D02*
X62598800Y-68748800D01*
X62598800Y-68748800D02*
X57897300Y-68748800D01*
X69273004Y-71388500D02*
X72367700Y-71388500D01*
X68850000Y-68750000D02*
X68850000Y-70965496D01*
X68850000Y-70965496D02*
G75*
G03*
X69273004Y-71388500I423000J-4D01*
G01*
X50550900Y-66174500D02*
X50550900Y-69550105D01*
X50975395Y-69974600D02*
X52625900Y-69974600D01*
X32391997Y-68089100D02*
X30904100Y-68089100D01*
X32813800Y-66174500D02*
X32813800Y-67667297D01*
X50550900Y-69550105D02*
G75*
G03*
X50975395Y-69974600I424500J5D01*
G01*
X32813800Y-67667297D02*
G75*
G02*
X32391997Y-68089100I-421800J-3D01*
G01*
X39020425Y-74450000D02*
X32955501Y-74450000D01*
X39444300Y-84300000D02*
X39444300Y-74873875D01*
X57176000Y-100379700D02*
X52841761Y-100379700D01*
X25704100Y-70675930D02*
X25704100Y-69589100D01*
X53820026Y-93559918D02*
X53820026Y-84313882D01*
X32531900Y-74026399D02*
X32531900Y-71523860D01*
X52418300Y-99956239D02*
X52418300Y-95603538D01*
X32108040Y-71100000D02*
X26128170Y-71100000D01*
X52645911Y-95054031D02*
X53593770Y-94106156D01*
X39444300Y-74873875D02*
G75*
G03*
X39020425Y-74450000I-423900J-25D01*
G01*
X26128170Y-71100000D02*
G75*
G02*
X25704100Y-70675930I30J424100D01*
G01*
X52841761Y-100379700D02*
G75*
G02*
X52418300Y-99956239I39J423500D01*
G01*
X32531900Y-71523860D02*
G75*
G03*
X32108040Y-71100000I-423900J-40D01*
G01*
X52418300Y-95603538D02*
G75*
G02*
X52645897Y-95054017I777100J38D01*
G01*
X53593770Y-94106156D02*
G75*
G03*
X53820033Y-93559918I-546270J546256D01*
G01*
X32955501Y-74450000D02*
G75*
G02*
X32531900Y-74026399I-1J423600D01*
G01*
X79579232Y-99015300D02*
X83847700Y-99015300D01*
X79570266Y-99024266D02*
X79579232Y-99015300D01*
X62258649Y-98520660D02*
X62258676Y-97638330D01*
X66300000Y-97214660D02*
X62682359Y-97214660D01*
X62682359Y-97214660D02*
G75*
G03*
X62258760Y-97638330I41J-423640D01*
G01*
X103600500Y-97580883D02*
X103600500Y-110074958D01*
X88992100Y-97157720D02*
X103177337Y-97157720D01*
X112500000Y-110075302D02*
X112500000Y-98331100D01*
X88992100Y-97334700D02*
X88992100Y-97157720D01*
X104025542Y-110500000D02*
X112075302Y-110500000D01*
X112500000Y-98331100D02*
X112908100Y-98331100D01*
X112075302Y-110500000D02*
G75*
G03*
X112500000Y-110075302I-2J424700D01*
G01*
X103600500Y-110074958D02*
G75*
G03*
X104025542Y-110500000I425000J-42D01*
G01*
X103177337Y-97157720D02*
G75*
G02*
X103600480Y-97580883I-37J-423180D01*
G01*
X120154108Y-96577197D02*
X118362003Y-96577197D01*
X136300000Y-93050000D02*
X136300000Y-96142386D01*
X135865189Y-96577197D02*
X120154108Y-96577197D01*
X149768200Y-83133600D02*
X144739500Y-83133600D01*
X136300000Y-96142386D02*
G75*
G02*
X135865189Y-96577200I-434800J-14D01*
G01*
X118362003Y-96577197D02*
G75*
G03*
X118108097Y-96831100I-3J-253903D01*
G01*
X144739500Y-83133600D02*
G75*
G02*
X144705900Y-83100000I0J33600D01*
G01*
X154968200Y-81633600D02*
X164914504Y-81633600D01*
X165761915Y-83127900D02*
X168809300Y-83127900D01*
X165339000Y-82058096D02*
X165339000Y-82704985D01*
X165339000Y-82704985D02*
G75*
G03*
X165761915Y-83127900I422900J-15D01*
G01*
X164914504Y-81633600D02*
G75*
G02*
X165339000Y-82058096I-4J-424500D01*
G01*
X185645345Y-78666624D02*
X185645345Y-82710401D01*
X178566720Y-81627900D02*
X178574300Y-81635480D01*
X187837362Y-83134100D02*
X187852790Y-83149528D01*
X186069044Y-83134100D02*
X187837362Y-83134100D01*
X174009300Y-81627900D02*
X178566720Y-81627900D01*
X185645345Y-82710401D02*
G75*
G03*
X186069044Y-83134055I423655J1D01*
G01*
X193079600Y-81622718D02*
X193052790Y-81649528D01*
X193079600Y-78828365D02*
X193079600Y-81622718D01*
X207404700Y-78405800D02*
X193502165Y-78405800D01*
X193502165Y-78405800D02*
G75*
G03*
X193079600Y-78828365I35J-422600D01*
G01*
X220899506Y-76799506D02*
X220762200Y-76662200D01*
X221454677Y-77029465D02*
X226644939Y-77029465D01*
X212519100Y-76635800D02*
X212519100Y-76434111D01*
X212519100Y-76434111D02*
X220211546Y-76434111D01*
X220899506Y-76799506D02*
G75*
G03*
X221454677Y-77029471I555194J555206D01*
G01*
X220211546Y-76434111D02*
G75*
G02*
X220762166Y-76662234I-46J-778689D01*
G01*
X242119300Y-74647100D02*
X245789000Y-74647100D01*
X231659700Y-72930500D02*
X231659700Y-74994100D01*
X242116400Y-74650000D02*
X242119300Y-74647100D01*
X250690364Y-72352104D02*
X250690361Y-71414204D01*
X261238800Y-70950000D02*
X261238800Y-71507259D01*
X261662641Y-71931100D02*
X265381600Y-71931100D01*
X253507940Y-70991848D02*
X251112716Y-70991848D01*
X251112716Y-70991848D02*
G75*
G03*
X250690348Y-71414204I-16J-422352D01*
G01*
X261238800Y-71507259D02*
G75*
G03*
X261662641Y-71931100I423800J-41D01*
G01*
X270396400Y-69596341D02*
X276425131Y-69596341D01*
X270396400Y-69895700D02*
X270396400Y-69596341D01*
X277713960Y-70240746D02*
X285101015Y-70240746D01*
X277162200Y-70012200D02*
X276973470Y-69823470D01*
X276425131Y-69596341D02*
G75*
G02*
X276973452Y-69823488I-31J-775459D01*
G01*
X277162200Y-70012200D02*
G75*
G03*
X277713960Y-70240763I551800J551800D01*
G01*
X295743655Y-69151490D02*
X295743650Y-68767859D01*
X290215400Y-68470700D02*
X290215400Y-68346100D01*
X303750000Y-69150000D02*
X306867157Y-69150000D01*
X307916857Y-69584800D02*
X312026500Y-69584800D01*
X290215400Y-68346100D02*
X295321886Y-68346100D01*
X295321886Y-68346100D02*
G75*
G02*
X295743700Y-68767859I14J-421800D01*
G01*
X307350000Y-69350000D02*
G75*
G03*
X307916857Y-69584818I566900J566900D01*
G01*
X306867157Y-69150000D02*
G75*
G02*
X307350013Y-69349987I43J-682800D01*
G01*
X301922675Y-66917400D02*
X316802424Y-66917400D01*
X301500400Y-96726372D02*
X301500400Y-67339675D01*
X285839984Y-98883594D02*
X285839989Y-97573989D01*
X286263979Y-97150000D02*
X301076772Y-97150000D01*
X317226500Y-67341476D02*
X317226500Y-68084800D01*
X316802424Y-66917400D02*
G75*
G02*
X317226500Y-67341476I-24J-424100D01*
G01*
X301076772Y-97150000D02*
G75*
G03*
X301500400Y-96726372I28J423600D01*
G01*
X285839989Y-97573989D02*
G75*
G02*
X286263979Y-97149989I424011J-11D01*
G01*
X301500400Y-67339675D02*
G75*
G02*
X301922675Y-66917400I422300J-25D01*
G01*
X259141800Y-97509000D02*
X266797926Y-97509000D01*
X267647375Y-99790979D02*
X280321789Y-99790979D01*
X267222800Y-97933874D02*
X267222800Y-99366404D01*
X280321789Y-99790979D02*
G75*
G02*
X280548021Y-100017206I11J-226221D01*
G01*
X267222800Y-99366404D02*
G75*
G03*
X267647375Y-99791000I424600J4D01*
G01*
X266797926Y-97509000D02*
G75*
G02*
X267222800Y-97933874I-26J-424900D01*
G01*
X230025800Y-96827500D02*
X230253300Y-96600000D01*
X248008483Y-98544752D02*
X253610757Y-98544752D01*
X230253300Y-96600000D02*
X235150000Y-96600000D01*
X253610757Y-98544752D02*
G75*
G02*
X253892648Y-98826604I43J-281848D01*
G01*
X224825800Y-98327500D02*
X219769636Y-98327500D01*
X200055603Y-98342778D02*
X200050000Y-98348381D01*
X199627535Y-100690400D02*
X193062900Y-100690400D01*
X200050000Y-98348381D02*
X200050000Y-100267935D01*
X219769636Y-98327500D02*
G75*
G03*
X219759600Y-98337536I-36J-10000D01*
G01*
X200050000Y-100267935D02*
G75*
G02*
X199627535Y-100690400I-422500J35D01*
G01*
X177880300Y-100260347D02*
X177880300Y-98835600D01*
X186111200Y-98835600D02*
X186111200Y-101765218D01*
X174007200Y-100685400D02*
X177455247Y-100685400D01*
X186112800Y-98835600D02*
X186111200Y-98835600D01*
X186536382Y-102190400D02*
X187862900Y-102190400D01*
X186111200Y-101765218D02*
G75*
G03*
X186536382Y-102190400I425200J18D01*
G01*
X177455247Y-100685400D02*
G75*
G03*
X177880300Y-100260347I-47J425100D01*
G01*
X165584744Y-100802223D02*
X165584744Y-101895325D01*
X154974300Y-100682500D02*
X155164240Y-100492560D01*
X155164240Y-100492560D02*
X162450000Y-100492560D01*
X162450000Y-100492560D02*
X165275081Y-100492560D01*
X165874819Y-102185400D02*
X168807200Y-102185400D01*
X165584744Y-101895325D02*
G75*
G03*
X165874819Y-102185356I290056J25D01*
G01*
X165275081Y-100492560D02*
G75*
G02*
X165584740Y-100802223I19J-309640D01*
G01*
X140700000Y-39800000D02*
X140688700Y-39811300D01*
X140688700Y-39811300D02*
X140688700Y-95257957D01*
X17287781Y-62050000D02*
X19514836Y-62050000D01*
X37593600Y-96800000D02*
X33979761Y-96800000D01*
X182049000Y-96400102D02*
X182049000Y-102614800D01*
X130589800Y-35564195D02*
X130589800Y-39793100D01*
X182049000Y-96378494D02*
X182049000Y-91557200D01*
X19938800Y-107030830D02*
X19938800Y-78014800D01*
X182105900Y-49089538D02*
X182105900Y-53457200D01*
X17990800Y-57077000D02*
X16864400Y-57077000D01*
X15737900Y-36884200D02*
X15737900Y-56653031D01*
X182125472Y-49069966D02*
X182105900Y-49089538D01*
X16161869Y-57077000D02*
X16864400Y-57077000D01*
X182105900Y-91557200D02*
X182105900Y-72507200D01*
X182049000Y-91557200D02*
X182105900Y-91557200D01*
X163055900Y-110607200D02*
X163055900Y-105637332D01*
X140267257Y-95679400D02*
X137650000Y-95679400D01*
X182059804Y-96389298D02*
X182049000Y-96378494D01*
X33132401Y-107424970D02*
X20332940Y-107424970D01*
X132020000Y-35140000D02*
X131013995Y-35140000D01*
X16864400Y-57077000D02*
X16864400Y-61626619D01*
X33555264Y-97224497D02*
X33555264Y-107002107D01*
X19938800Y-62473964D02*
X19938800Y-78014800D01*
X182059804Y-96389298D02*
X182049000Y-96400102D01*
X163055900Y-105637332D02*
X163047481Y-105628913D01*
X33979761Y-96800000D02*
G75*
G03*
X33555300Y-97224497I39J-424500D01*
G01*
X15737900Y-56653031D02*
G75*
G03*
X16161869Y-57077000I424000J31D01*
G01*
X20332940Y-107424970D02*
G75*
G02*
X19938730Y-107030830I-40J394170D01*
G01*
X140688700Y-95257957D02*
G75*
G02*
X140267257Y-95679400I-421400J-43D01*
G01*
X19514836Y-62050000D02*
G75*
G02*
X19938800Y-62473964I-36J-424000D01*
G01*
X131013995Y-35140000D02*
G75*
G03*
X130589800Y-35564195I5J-424200D01*
G01*
X16864400Y-61626619D02*
G75*
G03*
X17287781Y-62050000I423400J19D01*
G01*
X33555264Y-107002107D02*
G75*
G02*
X33132401Y-107424964I-422864J7D01*
G01*
X25026370Y-75400000D02*
X23873474Y-75400000D01*
X20814600Y-54426273D02*
X20814600Y-31177034D01*
X23026291Y-54850000D02*
X21238327Y-54850000D01*
X23450000Y-74976526D02*
X23450000Y-55273709D01*
X23093600Y-101800000D02*
X25026982Y-101800000D01*
X25450000Y-101376982D02*
X25450000Y-75823630D01*
X21238327Y-54850000D02*
G75*
G02*
X20814600Y-54426273I-27J423700D01*
G01*
X25450000Y-75823630D02*
G75*
G03*
X25026370Y-75400000I-423600J30D01*
G01*
X25026982Y-101800000D02*
G75*
G03*
X25450000Y-101376982I18J423000D01*
G01*
X23873474Y-75400000D02*
G75*
G02*
X23450000Y-74976526I26J423500D01*
G01*
X23450000Y-55273709D02*
G75*
G03*
X23026291Y-54850000I-423700J9D01*
G01*
X152340000Y-20964905D02*
X152340000Y-19900000D01*
X142192100Y-94300000D02*
X142204200Y-94287900D01*
X142628885Y-43840000D02*
X145785663Y-43840000D01*
X146208100Y-43417563D02*
X146208100Y-21813702D01*
X142204200Y-94287900D02*
X142204200Y-44264685D01*
X146633502Y-21388300D02*
X151916605Y-21388300D01*
X151916605Y-21388300D02*
G75*
G03*
X152340000Y-20964905I-5J423400D01*
G01*
X146208100Y-21813702D02*
G75*
G02*
X146633502Y-21388300I425400J2D01*
G01*
X142204200Y-44264685D02*
G75*
G02*
X142628885Y-43840000I424700J-15D01*
G01*
X145785663Y-43840000D02*
G75*
G03*
X146208100Y-43417563I37J422400D01*
G01*
X34123476Y-65472800D02*
X46009789Y-65472800D01*
X46433000Y-75374155D02*
X46433000Y-78083100D01*
X51481156Y-74987000D02*
X46823708Y-74987000D01*
X46433000Y-74596222D02*
X46432977Y-74596245D01*
X206301374Y-66186000D02*
X208961200Y-66186000D01*
X203305800Y-32195400D02*
X203305800Y-45569996D01*
X134568900Y-35140000D02*
X134560000Y-35140000D01*
X183766800Y-79509875D02*
X183766800Y-88625604D01*
X31607123Y-50948960D02*
X31607123Y-53076508D01*
X208568340Y-45992100D02*
X208568349Y-45992091D01*
X184191196Y-89050000D02*
X187175937Y-89050000D01*
X205876300Y-75839700D02*
X205876300Y-66611074D01*
X187176796Y-94200000D02*
X185836669Y-94200000D01*
X208568349Y-45992091D02*
X209353287Y-45992091D01*
X39433800Y-49715100D02*
X39433800Y-56857024D01*
X202089200Y-79507900D02*
X202089200Y-87120900D01*
X187600000Y-89474063D02*
X187600000Y-93776796D01*
X34565802Y-50524792D02*
X34571342Y-50524792D01*
X32030615Y-53500000D02*
X33276016Y-53500000D01*
X209353296Y-45992100D02*
X213722800Y-45992100D01*
X39433800Y-49715100D02*
X39722600Y-49715100D01*
X46823708Y-74987000D02*
X46820155Y-74987000D01*
X203727904Y-45992100D02*
X208568340Y-45992100D01*
X46433000Y-74596222D02*
X46433000Y-75374155D01*
X208961200Y-66186000D02*
X208961200Y-46384923D01*
X34962700Y-36952900D02*
X34962700Y-50916150D01*
X183770576Y-79506099D02*
X183766800Y-79509875D01*
X46433000Y-65896011D02*
X46433000Y-74596222D01*
X34565802Y-50524792D02*
X32031291Y-50524792D01*
X52022000Y-109180700D02*
X51905387Y-109180700D01*
X34962700Y-56722752D02*
X34962700Y-50916150D01*
X185411000Y-94625669D02*
X185411000Y-102766000D01*
X209353287Y-45992091D02*
X209353296Y-45992100D01*
X33700000Y-53923984D02*
X33700000Y-65049324D01*
X182105900Y-106522204D02*
X182105900Y-110607200D01*
X134571365Y-49978906D02*
X134568900Y-49976441D01*
X51905387Y-109180700D02*
X51905387Y-75411231D01*
X183800000Y-106100000D02*
X182528104Y-106100000D01*
X208961200Y-46384923D02*
X208961200Y-46384196D01*
X39722600Y-57145800D02*
X35385748Y-57145800D01*
X134568900Y-49976441D02*
X134568900Y-35140000D01*
X33276016Y-53500000D02*
G75*
G02*
X33700000Y-53923984I-16J-424000D01*
G01*
X185836669Y-94200000D02*
G75*
G03*
X185411000Y-94625669I31J-425700D01*
G01*
X187175937Y-89050000D02*
G75*
G02*
X187600000Y-89474063I-37J-424100D01*
G01*
X31607123Y-53076508D02*
G75*
G03*
X32030615Y-53499977I423477J8D01*
G01*
X39433800Y-56857024D02*
G75*
G03*
X39722600Y-57145800I288800J24D01*
G01*
X208961200Y-46384196D02*
G75*
G02*
X209353296Y-45992100I392100J-4D01*
G01*
X187600000Y-93776796D02*
G75*
G02*
X187176796Y-94200000I-423200J-4D01*
G01*
X34565802Y-50524792D02*
G75*
G03*
X34962692Y-50127935I-2J396892D01*
G01*
X182528104Y-106100000D02*
G75*
G03*
X182105900Y-106522204I-4J-422200D01*
G01*
X46820155Y-74987000D02*
G75*
G03*
X46433000Y-75374155I45J-387200D01*
G01*
X35385748Y-57145800D02*
G75*
G02*
X34962700Y-56722752I-48J423000D01*
G01*
X203305800Y-45569996D02*
G75*
G03*
X203727904Y-45992100I422100J-4D01*
G01*
X34571342Y-50524792D02*
G75*
G02*
X34962608Y-50916150I-42J-391308D01*
G01*
X46432977Y-74596245D02*
G75*
G03*
X46823708Y-74987023I390723J-55D01*
G01*
X33700000Y-65049324D02*
G75*
G03*
X34123476Y-65472800I423500J24D01*
G01*
X32031291Y-50524792D02*
G75*
G03*
X31607092Y-50948960I9J-424208D01*
G01*
X205876300Y-66611074D02*
G75*
G02*
X206301374Y-66186000I425100J-26D01*
G01*
X208568349Y-45992091D02*
G75*
G02*
X208961209Y-46384923I51J-392809D01*
G01*
X46009789Y-65472800D02*
G75*
G02*
X46433000Y-65896011I11J-423200D01*
G01*
X51905387Y-75411231D02*
G75*
G03*
X51481156Y-74987013I-424187J31D01*
G01*
X183766800Y-88625604D02*
G75*
G03*
X184191196Y-89050000I424400J4D01*
G01*
X57904210Y-46007800D02*
X57904210Y-57252541D01*
X59303169Y-63859100D02*
X65331182Y-63859100D01*
X233428900Y-44880300D02*
X233428900Y-50810000D01*
X219059600Y-84440000D02*
X219059600Y-106754700D01*
X58880000Y-58228300D02*
X58880000Y-63435931D01*
X57904210Y-46007800D02*
X54705854Y-46007800D01*
X228667100Y-65073539D02*
X228568400Y-65172239D01*
X221796000Y-86009300D02*
X221796000Y-81000000D01*
X54282500Y-45584446D02*
X54282500Y-38034600D01*
X228667100Y-65073539D02*
X228667100Y-58184400D01*
X228568400Y-65172239D02*
X228568400Y-70915700D01*
X218919600Y-84300000D02*
X219059600Y-84440000D01*
X58478300Y-58228300D02*
X58880000Y-58228300D01*
X65752700Y-64280618D02*
X65752700Y-79164300D01*
X228667100Y-65073539D02*
X228667095Y-65073544D01*
X57904210Y-57252541D02*
G75*
G03*
X58879987Y-58228290I975790J41D01*
G01*
X65331182Y-63859100D02*
G75*
G02*
X65752700Y-64280618I18J-421500D01*
G01*
X54705854Y-46007800D02*
G75*
G02*
X54282500Y-45584446I46J423400D01*
G01*
X58880000Y-63435931D02*
G75*
G03*
X59303169Y-63859100I423200J31D01*
G01*
X68150000Y-66111470D02*
X68150008Y-66111478D01*
X59549606Y-52771600D02*
X63640342Y-52771600D01*
X68574050Y-76900000D02*
X70875703Y-76900000D01*
X241416400Y-106625791D02*
X241416400Y-83867885D01*
X73518995Y-42741371D02*
X73518995Y-40125619D01*
X251086200Y-35791600D02*
X252626522Y-35791600D01*
X72305600Y-43163700D02*
X73096666Y-43163700D01*
X71300000Y-107208369D02*
X71300000Y-80761514D01*
X253049410Y-36214488D02*
X253049410Y-42738075D01*
X241416400Y-83867885D02*
X241416410Y-83867875D01*
X240550000Y-83001465D02*
X240550000Y-73950000D01*
X68150000Y-66889038D02*
X68150000Y-76475950D01*
X247832400Y-107049300D02*
X241839909Y-107049300D01*
X68150000Y-63873118D02*
X68150000Y-66111470D01*
X73519000Y-40125600D02*
X72305600Y-40125600D01*
X71300000Y-79981071D02*
X71299986Y-79981085D01*
X139640000Y-35140000D02*
X139640000Y-31805000D01*
X64063300Y-53194558D02*
X64063300Y-63026406D01*
X84989200Y-80373400D02*
X71692272Y-80373400D01*
X64486894Y-63450000D02*
X67726882Y-63450000D01*
X72001234Y-40125600D02*
X72305600Y-40125600D01*
X71692272Y-80373400D02*
X71688114Y-80373400D01*
X68150000Y-66111470D02*
X68150000Y-66889038D01*
X68539339Y-66500800D02*
X68538238Y-66500800D01*
X59126300Y-43163700D02*
X59126300Y-52348294D01*
X78280100Y-66076836D02*
X78280100Y-60319200D01*
X71300000Y-77324297D02*
X71300000Y-79981071D01*
X250142900Y-52983300D02*
X250142900Y-43161756D01*
X71300000Y-79981071D02*
X71300000Y-80761514D01*
X68539339Y-66500800D02*
X77856136Y-66500800D01*
X78377800Y-107632200D02*
X71723831Y-107632200D01*
X71576500Y-30212600D02*
X71576500Y-39700866D01*
X248288300Y-56449800D02*
X248288300Y-71185200D01*
X84989200Y-81255400D02*
X84989200Y-80373400D01*
X250566556Y-42738100D02*
X253049400Y-42738100D01*
X63640342Y-52771600D02*
G75*
G02*
X64063300Y-53194558I-42J-423000D01*
G01*
X67726882Y-63450000D02*
G75*
G02*
X68150000Y-63873118I18J-423100D01*
G01*
X70875703Y-76900000D02*
G75*
G02*
X71300000Y-77324297I-3J-424300D01*
G01*
X73096666Y-43163700D02*
G75*
G03*
X73519000Y-42741371I34J422300D01*
G01*
X71688114Y-80373400D02*
G75*
G03*
X71300000Y-80761514I-14J-388100D01*
G01*
X241839909Y-107049300D02*
G75*
G02*
X241416400Y-106625791I-9J423500D01*
G01*
X68538238Y-66500800D02*
G75*
G03*
X68150000Y-66889038I-38J-388200D01*
G01*
X59126300Y-52348294D02*
G75*
G03*
X59549606Y-52771600I423300J-6D01*
G01*
X250142900Y-43161756D02*
G75*
G02*
X250566556Y-42738100I423700J-44D01*
G01*
X77856136Y-66500800D02*
G75*
G03*
X78280100Y-66076836I-36J424000D01*
G01*
X64063300Y-63026406D02*
G75*
G03*
X64486894Y-63450000I423600J6D01*
G01*
X241416410Y-83867875D02*
G75*
G02*
X240550025Y-83001465I-10J866375D01*
G01*
X71723831Y-107632200D02*
G75*
G02*
X71300000Y-107208369I-31J423800D01*
G01*
X252626522Y-35791600D02*
G75*
G02*
X253049400Y-36214488I-22J-422900D01*
G01*
X68150008Y-66111478D02*
G75*
G03*
X68539339Y-66500792I389292J-22D01*
G01*
X71299986Y-79981085D02*
G75*
G03*
X71692272Y-80373414I392314J-15D01*
G01*
X71576500Y-39700866D02*
G75*
G03*
X72001234Y-40125600I424700J-34D01*
G01*
X68150000Y-76475950D02*
G75*
G03*
X68574050Y-76900000I424000J-50D01*
G01*
X272171800Y-34720509D02*
X272169040Y-34717749D01*
X267411500Y-50366100D02*
X267411500Y-59973900D01*
X105656200Y-76376192D02*
X105656200Y-70764200D01*
X271365700Y-40586339D02*
X271365700Y-48406500D01*
X139013097Y-26150000D02*
X141757369Y-26150000D01*
X93448851Y-49730900D02*
X97394240Y-49730900D01*
X272171795Y-39780244D02*
X272171800Y-39780239D01*
X272171795Y-39780244D02*
X271365700Y-40586339D01*
X260538800Y-80909900D02*
X260538800Y-68275983D01*
X93025400Y-43134700D02*
X93025400Y-49307449D01*
X267411495Y-67428213D02*
X267411495Y-59973944D01*
X97394240Y-49730900D02*
X97394244Y-49730896D01*
X97787200Y-69118700D02*
X97787200Y-50123844D01*
X104495500Y-80046600D02*
X104495500Y-84263700D01*
X272171800Y-39780239D02*
X272171800Y-34720509D01*
X98179465Y-49730900D02*
X100575363Y-49730900D01*
X142180000Y-26572631D02*
X142180000Y-35140000D01*
X107689700Y-76800000D02*
X106080008Y-76800000D01*
X138588300Y-50810000D02*
X138588300Y-26574797D01*
X260963035Y-67851748D02*
X266987960Y-67851748D01*
X100999500Y-50155037D02*
X100999500Y-50810000D01*
X97394244Y-49730896D02*
X98179461Y-49730896D01*
X97787200Y-50123844D02*
X97787200Y-50123165D01*
X98179461Y-49730896D02*
X98179465Y-49730900D01*
X97394244Y-49730896D02*
G75*
G02*
X97787204Y-50123844I56J-392904D01*
G01*
X93025400Y-49307449D02*
G75*
G03*
X93448851Y-49730900I423500J49D01*
G01*
X260538800Y-68275983D02*
G75*
G02*
X260963035Y-67851800I424200J-17D01*
G01*
X141757369Y-26150000D02*
G75*
G02*
X142180000Y-26572631I31J-422600D01*
G01*
X106080008Y-76800000D02*
G75*
G02*
X105656200Y-76376192I-8J423800D01*
G01*
X266987960Y-67851748D02*
G75*
G03*
X267411548Y-67428213I40J423548D01*
G01*
X100575363Y-49730900D02*
G75*
G02*
X100999500Y-50155037I37J-424100D01*
G01*
X97787200Y-50123165D02*
G75*
G02*
X98179465Y-49730900I392300J-35D01*
G01*
X138588300Y-26574797D02*
G75*
G02*
X139013097Y-26150000I424800J-3D01*
G01*
X136034278Y-23350000D02*
X144294039Y-23350000D01*
X286665200Y-54884500D02*
X286665200Y-63615726D01*
X112662800Y-45118100D02*
X112662800Y-52224525D01*
X286663100Y-52049400D02*
X286663100Y-54884500D01*
X286663100Y-54884500D02*
X286663100Y-58019800D01*
X298125534Y-71671588D02*
X280214218Y-71671588D01*
X135611700Y-54160200D02*
X135611700Y-23772578D01*
X291549300Y-44914287D02*
X291549300Y-37826900D01*
X286663100Y-54884500D02*
X286665200Y-54884500D01*
X107140400Y-106754700D02*
X107140400Y-94808509D01*
X279789900Y-72095906D02*
X279789900Y-97380200D01*
X298550000Y-64464590D02*
X298550000Y-71247122D01*
X291549300Y-37826900D02*
X291423000Y-37826900D01*
X291546575Y-44917012D02*
X291549300Y-44914287D01*
X115708400Y-64888481D02*
X115708400Y-57358400D01*
X144720000Y-23775961D02*
X144720000Y-35140000D01*
X107564609Y-94384300D02*
X123710172Y-94384300D01*
X274218600Y-108015700D02*
X274218600Y-102383500D01*
X117424500Y-65312000D02*
X116131919Y-65312000D01*
X117424500Y-70483090D02*
X117424500Y-65312000D01*
X287090775Y-64041301D02*
X298126711Y-64041301D01*
X124133700Y-93960772D02*
X124133700Y-78234600D01*
X115708400Y-57358400D02*
X115700000Y-57350000D01*
X112662800Y-52224525D02*
X112686610Y-52248335D01*
X298126711Y-64041301D02*
G75*
G02*
X298549999Y-64464590I-11J-423299D01*
G01*
X135611700Y-23772578D02*
G75*
G02*
X136034278Y-23350000I422600J-22D01*
G01*
X123710172Y-94384300D02*
G75*
G03*
X124133700Y-93960772I28J423500D01*
G01*
X144294039Y-23350000D02*
G75*
G02*
X144720000Y-23775961I-39J-426000D01*
G01*
X298550000Y-71247122D02*
G75*
G02*
X298125534Y-71671600I-424500J22D01*
G01*
X286665200Y-63615726D02*
G75*
G03*
X287090775Y-64041300I425600J26D01*
G01*
X280214218Y-71671588D02*
G75*
G03*
X279789888Y-72095906I-18J-424312D01*
G01*
X107140400Y-94808509D02*
G75*
G02*
X107564609Y-94384300I424200J9D01*
G01*
X116131919Y-65312000D02*
G75*
G02*
X115708400Y-64888481I-19J423500D01*
G01*
X144005900Y-44822170D02*
X144005900Y-53457200D01*
X144005900Y-72507200D02*
X144005900Y-53457200D01*
X310749900Y-36884200D02*
X310749900Y-43750000D01*
X144005900Y-91557200D02*
X144005900Y-72507200D01*
X319593600Y-96800000D02*
X319593600Y-87308479D01*
X144000000Y-95650000D02*
X144005900Y-95644100D01*
X147260000Y-35140000D02*
X147260000Y-43974928D01*
X144005900Y-95644100D02*
X144005900Y-95564100D01*
X144005900Y-110607200D02*
X144005900Y-95564100D01*
X144005900Y-95564100D02*
X144005900Y-91557200D01*
X306261200Y-86459995D02*
X306261200Y-78014800D01*
X308072200Y-48106505D02*
X308072200Y-56777200D01*
X319170021Y-86884900D02*
X306686105Y-86884900D01*
X146836328Y-44398600D02*
X144429470Y-44398600D01*
X306686105Y-86884900D02*
G75*
G02*
X306261200Y-86459995I-5J424900D01*
G01*
X308072200Y-56777200D02*
G75*
G03*
X308372000Y-57077000I299800J0D01*
G01*
X147260000Y-43974928D02*
G75*
G02*
X146836328Y-44398600I-423700J28D01*
G01*
X319593600Y-87308479D02*
G75*
G03*
X319170021Y-86884900I-423600J-21D01*
G01*
X144429470Y-44398600D02*
G75*
G03*
X144005900Y-44822170I30J-423600D01*
G01*
X163055900Y-53457200D02*
X160261361Y-53457200D01*
X149800000Y-35140000D02*
X149800000Y-29432254D01*
X159838400Y-53034239D02*
X159838400Y-29405033D01*
X160481300Y-73842900D02*
X161720200Y-73842900D01*
X163055900Y-53457200D02*
X163055900Y-72507200D01*
X163055900Y-91557200D02*
X163055900Y-84102200D01*
X150223954Y-29008300D02*
X159441385Y-29008300D01*
X159441385Y-29008300D02*
X159441667Y-29008300D01*
X159838400Y-28611285D02*
X159838400Y-24547500D01*
X159838400Y-28611285D02*
X159838400Y-29405033D01*
X160261361Y-53457200D02*
G75*
G02*
X159838400Y-53034239I39J423000D01*
G01*
X161720200Y-73842900D02*
G75*
G03*
X163055900Y-72507200I0J1335700D01*
G01*
X159441667Y-29008300D02*
G75*
G02*
X159838400Y-29405033I33J-396700D01*
G01*
X159441385Y-29008300D02*
G75*
G03*
X159838400Y-28611285I15J397000D01*
G01*
X149800000Y-29432254D02*
G75*
G02*
X150223954Y-29008300I424000J-46D01*
G01*
X141492100Y-96701513D02*
X141492100Y-43860698D01*
X141914498Y-43438300D02*
X145349000Y-43438300D01*
X146195884Y-19900000D02*
X147260000Y-19900000D01*
X142450053Y-97123966D02*
X141914553Y-97123966D01*
X145771700Y-43015600D02*
X145771700Y-20324184D01*
X145349000Y-43438300D02*
G75*
G03*
X145771700Y-43015600I0J422700D01*
G01*
X145771700Y-20324184D02*
G75*
G02*
X146195884Y-19900000I424200J-16D01*
G01*
X141914553Y-97123966D02*
G75*
G02*
X141492134Y-96701513I47J422466D01*
G01*
X141492100Y-43860698D02*
G75*
G02*
X141914498Y-43438300I422400J-2D01*
G01*
X322073700Y-98227238D02*
X322073700Y-63674278D01*
X327431500Y-62826051D02*
X327431500Y-25257167D01*
X308150000Y-101377570D02*
X308150000Y-99074974D01*
X308574974Y-98650000D02*
X321650938Y-98650000D01*
X305093600Y-101800000D02*
X307727570Y-101800000D01*
X327431500Y-25257167D02*
X327438605Y-25250062D01*
X322497978Y-63250000D02*
X327007551Y-63250000D01*
X307727570Y-101800000D02*
G75*
G03*
X308150000Y-101377570I30J422400D01*
G01*
X308150000Y-99074974D02*
G75*
G02*
X308574974Y-98650000I425000J-26D01*
G01*
X322073700Y-63674278D02*
G75*
G02*
X322497978Y-63250000I424300J-22D01*
G01*
X327007551Y-63250000D02*
G75*
G03*
X327431500Y-62826051I49J423900D01*
G01*
X321650938Y-98650000D02*
G75*
G03*
X322073700Y-98227238I-38J422800D01*
G01*
M02*
