M48
; DRILL file {KiCad 9.0.0} date 2025-03-01T00:44:01+0900
; FORMAT={-:-/ absolute / metric / decimal}
; #@! TF.CreationDate,2025-03-01T00:44:01+09:00
; #@! TF.GenerationSoftware,Kicad,Pcbnew,9.0.0
; #@! TF.FileFunction,Plated,1,2,PTH
FMAT,2
METRIC
; #@! TA.AperFunction,Plated,PTH,ViaDrill
T1C0.400
; #@! TA.AperFunction,Plated,PTH,ComponentDrill
T2C1.000
; #@! TA.AperFunction,Plated,PTH,ComponentDrill
T3C2.000
%
G90
G05
T1
X19.446Y-31.823
X20.815Y-31.177
X21.526Y-37.83
X23.757Y-42.892
X31.197Y-30.182
X31.35Y-26.776
X32.094Y-46.203
X32.814Y-66.174
X36.076Y-26.776
X38.015Y-71.692
X38.962Y-99.261
X39.434Y-49.715
X39.444Y-84.3
X43.828Y-46.198
X45.989Y-45.555
X48.756Y-30.223
X50.551Y-66.174
X53.118Y-99.261
X53.82Y-84.314
X54.648Y-50.355
X57.904Y-46.008
X58.891Y-73.624
X59.126Y-43.164
X62.6Y-68.75
X62.613Y-72.003
X63.607Y-71.128
X66.3Y-97.215
X66.8Y-33.3
X67.1Y-100.0
X68.85Y-68.75
X71.576Y-30.213
X72.306Y-43.164
X72.484Y-67.73
X73.963Y-52.237
X76.8Y-101.65
X79.57Y-99.024
X82.1Y-73.25
X82.1Y-86.65
X83.3Y-75.85
X90.662Y-50.433
X92.597Y-54.966
X97.139Y-100.464
X97.787Y-69.119
X99.83Y-50.871
X100.999Y-50.81
X104.495Y-80.047
X105.656Y-70.764
X107.69Y-76.8
X108.047Y-37.282
X112.687Y-52.248
X114.529Y-55.724
X115.7Y-57.35
X116.65Y-79.85
X117.424Y-70.483
X118.134Y-99.815
X124.122Y-31.01
X124.134Y-78.235
X125.15Y-102.3
X129.295Y-46.85
X129.35Y-32.505
X130.59Y-39.793
X131.306Y-58.583
X131.63Y-40.723
X134.571Y-49.979
X135.592Y-62.688
X135.612Y-54.16
X136.08Y-60.092
X136.3Y-93.05
X137.65Y-95.679
X138.588Y-50.81
X139.64Y-31.805
X139.956Y-79.82
X140.7Y-39.8
X140.7Y-27.522
X142.192Y-94.3
X142.45Y-97.124
X143.58Y-24.983
X144.0Y-95.65
X144.706Y-83.1
X145.25Y-62.65
X146.948Y-102.245
X147.562Y-98.034
X148.652Y-40.723
X149.761Y-60.092
X149.779Y-46.85
X150.745Y-31.01
X156.044Y-70.411
X156.429Y-85.339
X158.002Y-42.407
X159.838Y-24.547
X160.481Y-73.843
X160.929Y-103.332
X161.0Y-65.539
X163.047Y-105.629
X163.056Y-84.102
X163.65Y-42.35
X168.8Y-60.1
X168.95Y-79.25
X174.384Y-39.697
X174.39Y-30.932
X177.88Y-98.836
X178.546Y-102.633
X178.574Y-81.635
X179.0Y-63.379
X180.094Y-60.1
X182.049Y-102.615
X182.06Y-96.389
X182.125Y-49.07
X183.771Y-79.506
X183.8Y-106.1
X185.411Y-102.766
X185.645Y-78.667
X186.113Y-98.836
X187.94Y-98.034
X193.055Y-59.963
X193.9Y-84.75
X194.393Y-68.68
X194.968Y-37.621
X196.684Y-39.697
X200.056Y-98.343
X202.089Y-79.508
X203.306Y-32.195
X205.876Y-75.84
X211.269Y-61.44
X213.5Y-82.15
X214.8Y-37.619
X216.346Y-78.277
X218.92Y-84.3
X219.76Y-98.338
X221.796Y-81.0
X228.568Y-70.916
X228.667Y-58.184
X229.982Y-38.787
X231.66Y-72.93
X233.429Y-50.81
X235.15Y-96.6
X235.49Y-50.268
X236.1Y-76.489
X237.33Y-75.655
X238.13Y-99.37
X240.55Y-73.95
X242.116Y-74.65
X244.25Y-37.272
X244.754Y-60.198
X248.008Y-98.545
X248.288Y-56.45
X248.288Y-71.185
X250.143Y-52.983
X250.259Y-99.37
X251.086Y-35.792
X252.423Y-50.268
X252.429Y-75.776
X253.508Y-70.992
X253.957Y-90.591
X259.7Y-58.4
X261.239Y-70.95
X262.263Y-52.749
X267.411Y-50.366
X268.7Y-33.519
X268.906Y-52.749
X271.366Y-48.407
X271.5Y-73.3
X272.169Y-34.718
X274.219Y-102.383
X275.782Y-72.159
X279.79Y-97.38
X283.44Y-63.99
X284.259Y-32.148
X286.663Y-52.049
X291.547Y-44.917
X294.35Y-84.95
X294.888Y-67.241
X295.744Y-69.151
X297.8Y-70.972
X302.2Y-68.085
X303.45Y-33.5
X303.75Y-69.15
X305.856Y-61.631
X306.45Y-71.05
X308.05Y-33.5
X308.072Y-48.107
X310.75Y-43.75
X318.775Y-65.543
X327.439Y-25.25
T2
X23.094Y-96.8
X23.094Y-99.3
X23.094Y-101.8
X37.594Y-96.8
X37.594Y-101.8
X132.02Y-19.9
X132.02Y-35.14
X134.56Y-19.9
X134.56Y-35.14
X137.1Y-19.9
X137.1Y-35.14
X139.64Y-19.9
X139.64Y-35.14
X142.18Y-19.9
X142.18Y-35.14
X144.72Y-19.9
X144.72Y-35.14
X147.26Y-19.9
X147.26Y-35.14
X149.8Y-19.9
X149.8Y-35.14
X152.34Y-19.9
X152.34Y-22.44
X152.34Y-24.98
X152.34Y-27.52
X152.34Y-30.06
X152.34Y-32.6
X152.34Y-35.14
X163.906Y-25.6
X163.906Y-28.1
X163.906Y-30.6
X178.406Y-25.6
X178.406Y-30.6
X305.094Y-96.8
X305.094Y-99.3
X305.094Y-101.8
X319.594Y-96.8
X319.594Y-101.8
T3
G00X30.194Y-93.7
M15
G01X30.994Y-93.7
M16
G05
G00X30.194Y-104.9
M15
G01X30.994Y-104.9
M16
G05
G00X171.006Y-22.5
M15
G01X171.806Y-22.5
M16
G05
G00X171.006Y-33.7
M15
G01X171.806Y-33.7
M16
G05
G00X312.194Y-93.7
M15
G01X312.994Y-93.7
M16
G05
G00X312.194Y-104.9
M15
G01X312.994Y-104.9
M16
G05
M30
